<?xml version="1.0" standalone="no"?>
<!DOCTYPE svg PUBLIC "-//W3C//DTD SVG 1.1//EN" "http://www.w3.org/Graphics/SVG/1.1/DTD/svg11.dtd" >
<svg xmlns="http://www.w3.org/2000/svg" xmlns:xlink="http://www.w3.org/1999/xlink" version="1.1">
<metadata>
Created by FontForge 20161116 at Wed Jun 12 16:26:44 2013
 By Jimmy Wärting
(c) 2013 Microsoft Corporation. All Rights Reserved.
</metadata>
<defs>
<font id="SitkaSmall-Italic" horiz-adv-x="0" >
  <font-face 
    font-family="Sitka Small"
    font-weight="400"
    font-style="italic"
    font-variant="small-caps"
    font-stretch="normal"
    units-per-em="2200"
    panose-1="2 0 5 5 0 0 0 9 0 4"
    ascent="1665"
    descent="-535"
    x-height="1109"
    cap-height="1451"
    bbox="-1061 -665 3285 2509"
    underline-thickness="102"
    underline-position="-205"
    slope="-12"
    unicode-range="U+0020-FB04"
  />
<missing-glyph horiz-adv-x="1100" 
d="M0 1575h1100v-1575h-1100v1575zM89 86h922v1403h-922v-1403z" />
    <glyph glyph-name="f_b.liga" unicode="fb" horiz-adv-x="2224" 
d="M-172 -501q-18 0 -36.5 2t-38 5.5t-39 7.5t-37.5 8v197h44q21 -8 43 -16t47 -15.5t52.5 -12t60.5 -4.5q43 0 78 10t62 34q9 8 24 37.5t32.5 78t36 114.5t34.5 148l164 829h-196v125h226q40 148 92.5 249t118 163t143.5 89t169 27q18 0 40 -2.5t45 -6t46 -8t41 -8.5v-194
h-43q-20 8 -44.5 17.5t-52 17.5t-58 13.5t-62.5 5.5q-42 0 -72 -6t-50 -16t-31 -23.5t-16 -28.5q-6 -19 -13 -47t-15.5 -64.5t-18 -81t-19.5 -96.5h284v-125h-309l-169 -856q-25 -125 -81.5 -229t-133 -179t-166.5 -117t-182 -42zM1502 123q66 0 121 21t98.5 57.5t76.5 87.5
t54.5 110.5t32.5 126t11 134.5q0 70 -14.5 129.5t-46 102.5t-80.5 67.5t-118 24.5q-25 0 -53.5 -6.5t-58.5 -21.5t-60.5 -38.5t-60.5 -56.5l-152 -691q22 -14 56 -23t70.5 -14.5t70 -7.5t53.5 -2zM1511 -21q-46 0 -86 9t-73 24t-58.5 34.5t-41.5 40.5l-54 -107h-222
q20 58 40 115t40 115l252 1153q5 14 -5 27t-21 19l-125 64v85h399q-30 -140 -60.5 -277t-60.5 -277l-17 -59q57 67 109.5 105t97.5 57.5t82 24.5t65 5q85 0 150 -32.5t109.5 -90t67 -136t22.5 -170.5q0 -95 -20.5 -185.5t-58.5 -171.5t-92 -149.5t-122 -118t-148 -77
t-169 -27.5z" />
    <glyph glyph-name="f_f_b.liga" unicode="ffb" horiz-adv-x="3076" 
d="M-172 -501q-18 0 -36.5 2t-38 5.5t-39 7.5t-37.5 8v197h44q21 -8 43 -16t47 -15.5t52.5 -12t60.5 -4.5q43 0 78 10t62 34q9 8 24 37.5t32.5 78t36 114.5t34.5 148l164 829h-196v125h226q40 148 92.5 249t118 163t143.5 89t169 27q18 0 40 -2.5t45 -6t46 -8t41 -8.5v-194
h-43q-20 8 -44.5 17.5t-52 17.5t-58 13.5t-62.5 5.5q-42 0 -72 -6t-50 -16t-31 -23.5t-16 -28.5q-6 -19 -13 -47t-15.5 -64.5t-18 -81t-19.5 -96.5h284v-125h-309l-169 -856q-25 -125 -81.5 -229t-133 -179t-166.5 -117t-182 -42zM680 -501q-18 0 -36.5 2t-38 5.5t-39 7.5
t-37.5 8v197h44q21 -8 43 -16t47 -15.5t52.5 -12t60.5 -4.5q43 0 78 10t62 34q9 8 24 37.5t32.5 78t36 114.5t34.5 148l164 829h-196v125h226q40 148 92.5 249t118 163t143.5 89t169 27q18 0 40 -2.5t45 -6t46 -8t41 -8.5v-194h-43q-20 8 -44.5 17.5t-52 17.5t-58 13.5
t-62.5 5.5q-42 0 -72 -6t-50 -16t-31 -23.5t-16 -28.5q-6 -19 -13 -47t-15.5 -64.5t-18 -81t-19.5 -96.5h284v-125h-309l-169 -856q-25 -125 -81.5 -229t-133 -179t-166.5 -117t-182 -42zM2354 123q66 0 121 21t98.5 57.5t76.5 87.5t54.5 110.5t32.5 126t11 134.5
q0 70 -14.5 129.5t-46 102.5t-80.5 67.5t-118 24.5q-25 0 -53.5 -6.5t-58.5 -21.5t-60.5 -38.5t-60.5 -56.5l-152 -691q22 -14 56 -23t70.5 -14.5t70 -7.5t53.5 -2zM2363 -21q-46 0 -86 9t-73 24t-58.5 34.5t-41.5 40.5l-54 -107h-222q20 58 40 115t40 115l252 1153
q5 14 -5 27t-21 19l-125 64v85h399q-30 -140 -60.5 -277t-60.5 -277l-17 -59q57 67 109.5 105t97.5 57.5t82 24.5t65 5q85 0 150 -32.5t109.5 -90t67 -136t22.5 -170.5q0 -95 -20.5 -185.5t-58.5 -171.5t-92 -149.5t-122 -118t-148 -77t-169 -27.5z" />
    <glyph glyph-name="uniFB00" unicode="ff" horiz-adv-x="1694" 
d="M-172 -501q-18 0 -36.5 2t-38 5.5t-39 7.5t-37.5 8v197h44q21 -8 43 -16t47 -15.5t52.5 -12t60.5 -4.5q43 0 78 10t62 34q9 8 24 37.5t32.5 78t36 114.5t34.5 148l164 829h-196v125h226q40 148 92.5 249t118 163t143.5 89t169 27q18 0 40 -2.5t45 -6t46 -8t41 -8.5v-194
h-43q-20 8 -44.5 17.5t-52 17.5t-58 13.5t-62.5 5.5q-42 0 -72 -6t-50 -16t-31 -23.5t-16 -28.5q-6 -19 -13 -47t-15.5 -64.5t-18 -81t-19.5 -96.5h284v-125h-309l-169 -856q-25 -125 -81.5 -229t-133 -179t-166.5 -117t-182 -42zM680 -501q-18 0 -36.5 2t-38 5.5t-39 7.5
t-37.5 8v197h44q21 -8 43 -16t47 -15.5t52.5 -12t60.5 -4.5q43 0 78 10t62 34q9 8 24 37.5t32.5 78t36 114.5t34.5 148l164 829h-196v125h226q40 148 92.5 249t118 163t143.5 89t169 27q18 0 40 -2.5t45 -6t46 -8t41 -8.5v-194h-43q-20 8 -44.5 17.5t-52 17.5t-58 13.5
t-62.5 5.5q-42 0 -72 -6t-50 -16t-31 -23.5t-16 -28.5q-6 -19 -13 -47t-15.5 -64.5t-18 -81t-19.5 -96.5h284v-125h-309l-169 -856q-25 -125 -81.5 -229t-133 -179t-166.5 -117t-182 -42z" />
    <glyph glyph-name="f_h.liga" unicode="fh" horiz-adv-x="2237" 
d="M-172 -501q-18 0 -36.5 2t-38 5.5t-39 7.5t-37.5 8v197h44q21 -8 43 -16t47 -15.5t52.5 -12t60.5 -4.5q43 0 78 10t62 34q9 8 24 37.5t32.5 78t36 114.5t34.5 148l164 829h-196v125h226q40 148 92.5 249t118 163t143.5 89t169 27q18 0 40 -2.5t45 -6t46 -8t41 -8.5v-194
h-43q-20 8 -44.5 17.5t-52 17.5t-58 13.5t-62.5 5.5q-42 0 -72 -6t-50 -16t-31 -23.5t-16 -28.5q-6 -19 -13 -47t-15.5 -64.5t-18 -81t-19.5 -96.5h284v-125h-309l-169 -856q-25 -125 -81.5 -229t-133 -179t-166.5 -117t-182 -42zM1874 -16q-48 0 -80.5 16t-53 39.5
t-29.5 51t-9 50.5q0 13 1.5 30t4.5 36t7 40.5t10 43.5l92 390q10 42 15.5 80t5.5 65q0 37 -9.5 65t-31 47t-56.5 29t-86 10q-33 0 -68.5 -5.5t-71 -18t-70 -33t-64.5 -50.5l-146 -658v-53.5v-52.5v-52.5v-53.5h-252l303 1363q5 22 -4 30t-23 16l-124 64v85h399l-121 -546
l-13 -57q58 60 109.5 96t98 55t89.5 25t84 6q59 0 109 -15.5t86.5 -47.5t57 -80.5t20.5 -114.5q0 -50 -11.5 -100t-22.5 -97l-79 -340q-5 -21 -8.5 -41t-6 -36.5t-4 -29.5t-1.5 -19q0 -16 4 -31.5t15.5 -28t31.5 -20t52 -7.5q10 0 21.5 1.5t25 4.5t29 8t34.5 12h40v-100
q-43 -24 -85 -38t-81 -21.5t-73 -9.5t-61 -2z" />
    <glyph glyph-name="f_f_h.liga" unicode="ffh" horiz-adv-x="3089" 
d="M-172 -501q-18 0 -36.5 2t-38 5.5t-39 7.5t-37.5 8v197h44q21 -8 43 -16t47 -15.5t52.5 -12t60.5 -4.5q43 0 78 10t62 34q9 8 24 37.5t32.5 78t36 114.5t34.5 148l164 829h-196v125h226q40 148 92.5 249t118 163t143.5 89t169 27q18 0 40 -2.5t45 -6t46 -8t41 -8.5v-194
h-43q-20 8 -44.5 17.5t-52 17.5t-58 13.5t-62.5 5.5q-42 0 -72 -6t-50 -16t-31 -23.5t-16 -28.5q-6 -19 -13 -47t-15.5 -64.5t-18 -81t-19.5 -96.5h284v-125h-309l-169 -856q-25 -125 -81.5 -229t-133 -179t-166.5 -117t-182 -42zM680 -501q-18 0 -36.5 2t-38 5.5t-39 7.5
t-37.5 8v197h44q21 -8 43 -16t47 -15.5t52.5 -12t60.5 -4.5q43 0 78 10t62 34q9 8 24 37.5t32.5 78t36 114.5t34.5 148l164 829h-196v125h226q40 148 92.5 249t118 163t143.5 89t169 27q18 0 40 -2.5t45 -6t46 -8t41 -8.5v-194h-43q-20 8 -44.5 17.5t-52 17.5t-58 13.5
t-62.5 5.5q-42 0 -72 -6t-50 -16t-31 -23.5t-16 -28.5q-6 -19 -13 -47t-15.5 -64.5t-18 -81t-19.5 -96.5h284v-125h-309l-169 -856q-25 -125 -81.5 -229t-133 -179t-166.5 -117t-182 -42zM2726 -16q-48 0 -80.5 16t-53 39.5t-29.5 51t-9 50.5q0 13 1.5 30t4.5 36t7 40.5
t10 43.5l92 390q10 42 15.5 80t5.5 65q0 37 -9.5 65t-31 47t-56.5 29t-86 10q-33 0 -68.5 -5.5t-71 -18t-70 -33t-64.5 -50.5l-146 -658v-53.5v-52.5v-52.5v-53.5h-252l303 1363q5 22 -4 30t-23 16l-124 64v85h399l-121 -546l-13 -57q58 60 109.5 96t98 55t89.5 25t84 6
q59 0 109 -15.5t86.5 -47.5t57 -80.5t20.5 -114.5q0 -50 -11.5 -100t-22.5 -97l-79 -340q-5 -21 -8.5 -41t-6 -36.5t-4 -29.5t-1.5 -19q0 -16 4 -31.5t15.5 -28t31.5 -20t52 -7.5q10 0 21.5 1.5t25 4.5t29 8t34.5 12h40v-100q-43 -24 -85 -38t-81 -21.5t-73 -9.5t-61 -2z
" />
    <glyph glyph-name="uniFB01" unicode="fi" horiz-adv-x="1631" 
d="M-172 -501q-18 0 -36.5 2t-38 5.5t-39 7.5t-37.5 8v197h44q21 -8 43 -16t47 -15.5t52.5 -12t60.5 -4.5q43 0 80 11.5t60 32.5q9 8 24 37.5t32.5 78t36 114.5t34.5 148l164 829h-196v125h226q40 148 92.5 249t118 163t143.5 89t169 27q18 0 40 -2.5t45 -6t46 -8t41 -8.5
v-194h-43q-20 8 -44.5 17.5t-52 17.5t-58 13.5t-62.5 5.5q-42 0 -72 -6t-50 -16t-31 -23.5t-16 -28.5q-6 -19 -13 -47t-15.5 -64.5t-18 -81t-19.5 -96.5h284v-125h-309l-169 -856q-25 -125 -81.5 -229t-133 -179t-166.5 -117t-182 -42zM1233 -16q-48 0 -81 16t-53.5 39.5
t-30 51t-9.5 50.5q0 26 7.5 64t17.5 84l129 588q1 4 1.5 7.5t0.5 5.5q0 10 -8 18.5t-21 14.5l-155 70v82l442 53l-161 -733q-5 -27 -11 -54.5t-11 -51.5t-8 -43t-3 -28q0 -16 4.5 -32t16 -28.5t31.5 -20.5t52 -8q10 0 23.5 2t29 5.5t33 9t36.5 12.5h39v-100
q-43 -24 -87 -38.5t-85 -22.5t-76.5 -10.5t-62.5 -2.5zM1408 1306q-29 0 -55.5 9t-46.5 25.5t-32 41t-12 56.5q0 34 12 59.5t32 43t46.5 26t55.5 8.5q34 0 62 -7.5t48 -23.5t31 -39.5t11 -55.5q0 -34 -11.5 -60.5t-32 -45t-48.5 -28t-60 -9.5z" />
    <glyph glyph-name="uniFB03" unicode="ffi" horiz-adv-x="2485" 
d="M-172 -501q-18 0 -36.5 2t-38 5.5t-39 7.5t-37.5 8v197h44q21 -8 43 -16t47 -15.5t52.5 -12t60.5 -4.5q43 0 78 10t62 34q9 8 24 37.5t32.5 78t36 114.5t34.5 148l164 829h-196v125h226q40 148 92.5 249t118 163t143.5 89t169 27q18 0 40 -2.5t45 -6t46 -8t41 -8.5v-194
h-43q-20 8 -44.5 17.5t-52 17.5t-58 13.5t-62.5 5.5q-42 0 -72 -6t-50 -16t-31 -23.5t-16 -28.5q-6 -19 -13 -47t-15.5 -64.5t-18 -81t-19.5 -96.5h284v-125h-309l-169 -856q-25 -125 -81.5 -229t-133 -179t-166.5 -117t-182 -42zM680 -501q-18 0 -36.5 2t-38 5.5t-39 7.5
t-37.5 8v197h44q21 -8 43 -16t47 -15.5t52.5 -12t60.5 -4.5q43 0 78 10t62 34q9 8 24 37.5t32.5 78t36 114.5t34.5 148l164 829h-196v125h226q40 148 92.5 249t118 163t143.5 89t169 27q18 0 40 -2.5t45 -6t46 -8t41 -8.5v-194h-43q-20 8 -44.5 17.5t-52 17.5t-58 13.5
t-62.5 5.5q-42 0 -72 -6t-50 -16t-31 -23.5t-16 -28.5q-6 -19 -13 -47t-15.5 -64.5t-18 -81t-19.5 -96.5h284v-125h-309l-169 -856q-25 -125 -81.5 -229t-133 -179t-166.5 -117t-182 -42zM2262 1306q-29 0 -55.5 9t-46.5 25.5t-32 41t-12 56.5q0 34 12 59.5t32 43t46.5 26
t55.5 8.5q34 0 62 -7.5t48 -23.5t31 -39.5t11 -55.5q0 -34 -11.5 -60.5t-32 -45t-48.5 -28t-60 -9.5zM2087 -16q-48 0 -81 16t-53.5 39.5t-30 51t-9.5 50.5q0 26 7.5 64t17.5 84l129 588q5 20 -3.5 29.5t-23.5 16.5l-155 70v82l442 53l-154 -703q0 -1 -3 -15t-7.5 -35.5
t-9.5 -47t-9.5 -48t-7.5 -39.5t-3 -22q0 -16 4.5 -32t16 -28.5t31.5 -20.5t52 -8q10 0 23.5 2t29 5.5t33 9t36.5 12.5h39v-100q-43 -24 -87 -38.5t-85 -22.5t-76.5 -10.5t-62.5 -2.5z" />
    <glyph glyph-name="f_j.liga" unicode="fj" horiz-adv-x="1657" 
d="M-172 -501q-18 0 -36.5 2t-38 5.5t-39 7.5t-37.5 8v197h44q21 -8 43 -16t47 -15.5t52.5 -12t60.5 -4.5q43 0 78 10t62 34q9 8 24 37.5t32.5 78t36 114.5t34.5 148l164 829h-196v125h226q40 148 92.5 249t118 163t143.5 89t169 27q18 0 40 -2.5t45 -6t46 -8t41 -8.5v-194
h-43q-20 8 -44.5 17.5t-52 17.5t-58 13.5t-62.5 5.5q-42 0 -72 -6t-50 -16t-31 -23.5t-16 -28.5q-6 -19 -13 -47t-15.5 -64.5t-18 -81t-19.5 -96.5h284v-125h-309l-169 -856q-25 -125 -81.5 -229t-133 -179t-166.5 -117t-182 -42zM779 -501q-12 0 -30.5 2t-40 5.5t-43.5 7.5
t-41 8v198h44q20 -7 43.5 -15.5t48.5 -15.5t51 -11.5t51 -4.5q66 0 105 17.5t60 43.5q34 41 61 153t62 300l131 695q4 11 -3 25t-25 21l-185 65v82l469 53l-197 -1028q-32 -164 -88 -278.5t-130 -186t-161.5 -104t-181.5 -32.5zM1465 1306q-29 0 -55.5 9t-46.5 25.5t-32 41
t-12 56.5q0 34 12 59.5t32 43t46.5 26t55.5 8.5q34 0 62 -7.5t47.5 -23.5t30.5 -39.5t11 -55.5q0 -34 -11.5 -60.5t-32 -45t-48 -28t-59.5 -9.5z" />
    <glyph glyph-name="f_f_j.liga" unicode="ffj" horiz-adv-x="2509" 
d="M-172 -501q-18 0 -36.5 2t-38 5.5t-39 7.5t-37.5 8v197h44q21 -8 43 -16t47 -15.5t52.5 -12t60.5 -4.5q43 0 78 10t62 34q9 8 24 37.5t32.5 78t36 114.5t34.5 148l164 829h-196v125h226q40 148 92.5 249t118 163t143.5 89t169 27q18 0 40 -2.5t45 -6t46 -8t41 -8.5v-194
h-43q-20 8 -44.5 17.5t-52 17.5t-58 13.5t-62.5 5.5q-42 0 -72 -6t-50 -16t-31 -23.5t-16 -28.5q-6 -19 -13 -47t-15.5 -64.5t-18 -81t-19.5 -96.5h284v-125h-309l-169 -856q-25 -125 -81.5 -229t-133 -179t-166.5 -117t-182 -42zM680 -501q-18 0 -36.5 2t-38 5.5t-39 7.5
t-37.5 8v197h44q21 -8 43 -16t47 -15.5t52.5 -12t60.5 -4.5q43 0 78 10t62 34q9 8 24 37.5t32.5 78t36 114.5t34.5 148l164 829h-196v125h226q40 148 92.5 249t118 163t143.5 89t169 27q18 0 40 -2.5t45 -6t46 -8t41 -8.5v-194h-43q-20 8 -44.5 17.5t-52 17.5t-58 13.5
t-62.5 5.5q-42 0 -72 -6t-50 -16t-31 -23.5t-16 -28.5q-6 -19 -13 -47t-15.5 -64.5t-18 -81t-19.5 -96.5h284v-125h-309l-169 -856q-25 -125 -81.5 -229t-133 -179t-166.5 -117t-182 -42zM1631 -501q-12 0 -30.5 2t-40 5.5t-43.5 7.5t-41 8v198h44q20 -7 43.5 -15.5
t48.5 -15.5t51 -11.5t51 -4.5q66 0 105 17.5t60 43.5q34 41 61 153t62 300l131 695q4 11 -3 25t-25 21l-185 65v82l469 53l-197 -1028q-32 -164 -88 -278.5t-130 -186t-161.5 -104t-181.5 -32.5zM2317 1306q-29 0 -55.5 9t-46.5 25.5t-32 41t-12 56.5q0 34 12 59.5t32 43
t46.5 26t55.5 8.5q34 0 62 -7.5t47.5 -23.5t30.5 -39.5t11 -55.5q0 -34 -11.5 -60.5t-32 -45t-48 -28t-59.5 -9.5z" />
    <glyph glyph-name="f_k.liga" unicode="fk" horiz-adv-x="2156" 
d="M-172 -501q-18 0 -36.5 2t-38 5.5t-39 7.5t-37.5 8v197h44q21 -8 43 -16t47 -15.5t52.5 -12t60.5 -4.5q43 0 78 10t62 34q9 8 24 37.5t32.5 78t36 114.5t34.5 148l164 829h-196v125h226q40 148 92.5 249t118 163t143.5 89t169 27q18 0 40 -2.5t45 -6t46 -8t41 -8.5v-194
h-43q-20 8 -44.5 17.5t-52 17.5t-58 13.5t-62.5 5.5q-42 0 -72 -6t-50 -16t-31 -23.5t-16 -28.5q-6 -19 -13 -47t-15.5 -64.5t-18 -81t-19.5 -96.5h284v-125h-309l-169 -856q-25 -125 -81.5 -229t-133 -179t-166.5 -117t-182 -42zM1804 -16q-41 0 -68.5 12t-47 33.5t-34 50
t-28.5 61.5l-173 401l-170 -106l-48 -224v-53.5v-52.5v-52.5v-53.5h-252l303 1363q3 14 -5 26t-22 20l-124 64v85h399l-230 -1034q82 90 154 167.5t131 140.5t106 110.5t80 77.5q31 28 56 48t49 33t51 19t62 6q18 0 28.5 -0.5t20 -1t26.5 -3t28 -4.5v-226h-43q-3 0 -21.5 2
t-44 5t-52.5 5t-43 2q-18 0 -47.5 -14.5t-66.5 -43t-79.5 -69.5t-85.5 -94l202 -482q7 -18 18 -31.5t25.5 -23t34 -14t45.5 -4.5q10 0 21.5 1.5t25.5 4.5t30 8t35 12h39v-100q-43 -24 -83 -38t-76 -21.5t-67.5 -9.5t-58.5 -2z" />
    <glyph glyph-name="f_f_k.liga" unicode="ffk" horiz-adv-x="3008" 
d="M-172 -501q-18 0 -36.5 2t-38 5.5t-39 7.5t-37.5 8v197h44q21 -8 43 -16t47 -15.5t52.5 -12t60.5 -4.5q43 0 78 10t62 34q9 8 24 37.5t32.5 78t36 114.5t34.5 148l164 829h-196v125h226q40 148 92.5 249t118 163t143.5 89t169 27q18 0 40 -2.5t45 -6t46 -8t41 -8.5v-194
h-43q-20 8 -44.5 17.5t-52 17.5t-58 13.5t-62.5 5.5q-42 0 -72 -6t-50 -16t-31 -23.5t-16 -28.5q-6 -19 -13 -47t-15.5 -64.5t-18 -81t-19.5 -96.5h284v-125h-309l-169 -856q-25 -125 -81.5 -229t-133 -179t-166.5 -117t-182 -42zM680 -501q-18 0 -36.5 2t-38 5.5t-39 7.5
t-37.5 8v197h44q21 -8 43 -16t47 -15.5t52.5 -12t60.5 -4.5q43 0 78 10t62 34q9 8 24 37.5t32.5 78t36 114.5t34.5 148l164 829h-196v125h226q40 148 92.5 249t118 163t143.5 89t169 27q18 0 40 -2.5t45 -6t46 -8t41 -8.5v-194h-43q-20 8 -44.5 17.5t-52 17.5t-58 13.5
t-62.5 5.5q-42 0 -72 -6t-50 -16t-31 -23.5t-16 -28.5q-6 -19 -13 -47t-15.5 -64.5t-18 -81t-19.5 -96.5h284v-125h-309l-169 -856q-25 -125 -81.5 -229t-133 -179t-166.5 -117t-182 -42zM2656 -16q-41 0 -68.5 12t-47 33.5t-34 50t-28.5 61.5l-173 401l-170 -106l-48 -224
v-53.5v-52.5v-52.5v-53.5h-252l303 1363q3 14 -5 26t-22 20l-124 64v85h399l-230 -1034q82 90 154 167.5t131 140.5t106 110.5t80 77.5q31 28 56 48t49 33t51 19t62 6q18 0 28.5 -0.5t20 -1t26.5 -3t28 -4.5v-226h-43q-3 0 -21.5 2t-44 5t-52.5 5t-43 2q-18 0 -47.5 -14.5
t-66.5 -43t-79.5 -69.5t-85.5 -94l202 -482q7 -18 18 -31.5t25.5 -23t34 -14t45.5 -4.5q10 0 21.5 1.5t25.5 4.5t30 8t35 12h39v-100q-43 -24 -83 -38t-76 -21.5t-67.5 -9.5t-58.5 -2z" />
    <glyph glyph-name="uniFB02" unicode="fl" horiz-adv-x="1626" 
d="M-172 -501q-18 0 -36.5 2t-38 5.5t-39 7.5t-37.5 8v197h44q21 -8 43 -16t47 -15.5t52.5 -12t60.5 -4.5q43 0 78.5 10.5t61.5 33.5q9 8 24 37t32.5 77.5t36 115t34.5 148.5l164 829h-196v125h226q40 148 92.5 249t118 163t143.5 89t169 27q18 0 40 -2.5t45 -6t46 -8
t41 -8.5v-194h-43q-20 8 -44.5 17.5t-52 17.5t-58 13.5t-62.5 5.5q-42 0 -72 -5.5t-50 -15.5t-31 -23.5t-16 -29.5q-6 -19 -13 -47t-15.5 -64.5t-18 -81t-19.5 -96.5h284v-125h-309l-169 -856q-25 -125 -81.5 -229t-133 -179t-166.5 -117t-182 -42zM1234 -16q-48 0 -82.5 16
t-57 39.5t-33 51t-10.5 50.5q0 26 7.5 65.5t17.5 82.5l238 1074q1 4 1.5 7t0.5 5q0 11 -9 20t-21 14l-157 64v85h433l-265 -1193l-10 -46t-9 -43t-6 -35.5t-2 -22.5q0 -16 6 -32t19.5 -28.5t35 -20.5t53.5 -8q10 0 23.5 2t29 5.5t33 9t36.5 12.5h39v-100q-43 -24 -87 -38.5
t-85 -22.5t-76.5 -10.5t-62.5 -2.5z" />
    <glyph glyph-name="uniFB04" unicode="ffl" horiz-adv-x="2476" 
d="M-172 -501q-18 0 -36.5 2t-38 5.5t-39 7.5t-37.5 8v197h44q21 -8 43 -16t47 -15.5t52.5 -12t60.5 -4.5q43 0 78 10t62 34q9 8 24 37.5t32.5 78t36 114.5t34.5 148l164 829h-196v125h226q40 148 92.5 249t118 163t143.5 89t169 27q18 0 40 -2.5t45 -6t46 -8t41 -8.5v-194
h-43q-20 8 -44.5 17.5t-52 17.5t-58 13.5t-62.5 5.5q-42 0 -72 -6t-50 -16t-31 -23.5t-16 -28.5q-6 -19 -13 -47t-15.5 -64.5t-18 -81t-19.5 -96.5h284v-125h-309l-169 -856q-25 -125 -81.5 -229t-133 -179t-166.5 -117t-182 -42zM680 -501q-18 0 -36.5 2t-38 5.5t-39 7.5
t-37.5 8v197h44q21 -8 43 -16t47 -15.5t52.5 -12t60.5 -4.5q43 0 78 10t62 34q9 8 24 37.5t32.5 78t36 114.5t34.5 148l164 829h-196v125h226q40 148 92.5 249t118 163t143.5 89t169 27q18 0 40 -2.5t45 -6t46 -8t41 -8.5v-194h-43q-20 8 -44.5 17.5t-52 17.5t-58 13.5
t-62.5 5.5q-42 0 -72 -6t-50 -16t-31 -23.5t-16 -28.5q-6 -19 -13 -47t-15.5 -64.5t-18 -81t-19.5 -96.5h284v-125h-309l-169 -856q-25 -125 -81.5 -229t-133 -179t-166.5 -117t-182 -42zM2086 -16q-48 0 -82.5 16t-57 39.5t-33 51t-10.5 50.5q0 26 7.5 65.5t17.5 82.5
l238 1074q5 22 -4.5 31t-23.5 15l-157 64v85h433l-265 -1193l-10 -46t-9 -43t-6 -35.5t-2 -22.5q0 -16 6 -32t19.5 -28.5t35 -20.5t53.5 -8q10 0 23.5 2t29 5.5t33 9t36.5 12.5h39v-100q-43 -24 -87 -38.5t-85 -22.5t-76.5 -10.5t-62.5 -2.5z" />
    <glyph glyph-name=".notdef" horiz-adv-x="1100" 
d="M0 1575h1100v-1575h-1100v1575zM89 86h922v1403h-922v-1403z" />
    <glyph glyph-name="glyph1" 
 />
    <glyph glyph-name="glyph2" 
 />
    <glyph glyph-name="space" unicode=" " horiz-adv-x="680" 
 />
    <glyph glyph-name="space" unicode="&#xa0;" horiz-adv-x="680" 
 />
    <glyph glyph-name="A" unicode="A" horiz-adv-x="1515" 
d="M870 1197l-336 -560h445l-74 425l-15 135h-20zM390 0h-479l18 83l107 52q17 8 34.5 23.5t26.5 30.5l641 1042l170 242h136l223 -1289q3 -16 11 -31.5t22 -21.5l117 -48l-18 -83h-526l18 83l173 65l-61 352h-554l-206 -345l165 -72z" />
    <glyph glyph-name="B" unicode="B" horiz-adv-x="1490" 
d="M574 680l-120 -546h285q196 0 288 82t92 250q0 58 -19.5 99t-61.5 66.5t-107 37t-156 11.5h-201zM716 1317l-113 -509h112q126 0 207.5 21.5t129.5 60.5t67 94.5t19 123.5q0 108 -71 158.5t-224 50.5h-127zM24 0l19 83l162 56q17 6 29 16t17 32l239 1081q4 20 -2.5 28.5
t-22.5 15.5l-162 58l19 81h571q143 0 237 -23.5t149 -62.5t77 -90t22 -106q0 -77 -28 -141.5t-77.5 -115t-117.5 -86t-149 -53.5l-1 -10q78 -5 143 -27t112 -60.5t73.5 -91.5t26.5 -120q0 -90 -27 -159t-74 -120.5t-111 -87t-138 -57t-154 -31t-160 -9.5h-672z" />
    <glyph glyph-name="C" unicode="C" horiz-adv-x="1452" 
d="M752 -31q-141 0 -253.5 40t-191.5 116.5t-121 189t-42 256.5q0 129 28 246.5t79.5 219t125.5 184t166.5 140.5t201 90t230.5 32q56 0 124.5 -9t136.5 -22t130 -27t104 -24l-87 -380h-135l28 214q1 7 -3 13.5t-10 12t-13 10t-12 7.5q-32 17 -65 30.5t-68.5 22.5t-74 14
t-80.5 5q-94 0 -173 -27t-142.5 -76t-111 -117t-79.5 -150t-48 -175t-16 -192q0 -235 116 -356t340 -121q69 0 133 23t119 54.5t100 65.5t76 56h60l-34 -148q-48 -36 -108.5 -75t-129.5 -70.5t-145 -52t-155 -20.5z" />
    <glyph glyph-name="D" unicode="D" horiz-adv-x="1652" 
d="M716 1317l-262 -1183h314q144 0 254 50.5t184 141t111.5 217.5t37.5 280q0 115 -32 206.5t-92.5 155.5t-147.5 98t-198 34h-169zM24 0l19 83l162 56q15 5 28 15.5t18 32.5l239 1081q4 20 -2.5 28.5t-22.5 15.5l-162 58l19 81h637q66 0 138.5 -11.5t143 -39t134.5 -71.5
t112.5 -109.5t77 -153.5t28.5 -203q0 -138 -29 -256t-83 -214t-130.5 -169.5t-172 -123t-207 -75t-235.5 -25.5h-712z" />
    <glyph glyph-name="E" unicode="E" horiz-adv-x="1488" 
d="M1242 0h-1218l19 83l162 56q17 6 29 16t17 32l239 1081q4 20 -2.5 28.5t-22.5 15.5l-162 58l19 81h1144l-81 -366h-137l12 192q2 19 -8 28.5t-26 9.5h-510l-110 -493h304q21 0 32.5 9t19.5 29l65 156h110l-117 -524h-110l4 155q1 20 -6.5 29.5t-28.5 9.5h-303l-121 -550
h608q14 0 29 10.5t22 28.5l79 214h136z" />
    <glyph glyph-name="F" unicode="F" horiz-adv-x="1371" 
d="M643 0h-618l18 83l162 56q17 6 29 16t17 32l239 1081q4 20 -3 28.5t-23 15.5l-161 58l18 81h1149l-81 -366h-137l12 192q2 19 -8 28.5t-26 9.5h-514l-114 -511h321q20 0 31 9.5t19 27.5l66 157h109l-117 -524h-109l4 155q1 19 -6 28.5t-28 9.5h-320l-106 -480
q-4 -17 2 -29.5t24 -18.5l169 -56z" />
    <glyph glyph-name="G" unicode="G" horiz-adv-x="1634" 
d="M742 -33q-129 0 -238.5 38t-189.5 113.5t-125 187.5t-45 259q0 128 28.5 246t81.5 220t128.5 185.5t170 142.5t206 91.5t235.5 32.5q75 0 139.5 -5t119 -12.5t101 -17.5t85.5 -20l92 -24l-86 -380h-137l31 215q0 15 -19 29t-50.5 26.5t-71 22.5t-81 17.5t-81 11.5
t-69.5 4q-90 0 -168.5 -24.5t-143.5 -70.5t-116 -112.5t-86 -149t-53.5 -180.5t-18.5 -208q0 -114 28.5 -207.5t85 -160t139.5 -102.5t191 -36q49 0 88.5 6.5t71 15.5t55.5 19t43 18l76 351q5 20 -3 29t-23 14l-202 59l17 81h626l-17 -81l-141 -59q-12 -5 -26 -14t-19 -29
l-37 -167q-11 -49 -19.5 -90.5t-15 -75t-10.5 -60.5t-7 -46q-60 -20 -123.5 -39t-131 -33t-138.5 -22.5t-147 -8.5z" />
    <glyph glyph-name="H" unicode="H" horiz-adv-x="1801" 
d="M634 0h-610l19 83l162 56q14 5 27.5 15.5t18.5 32.5l239 1081q4 20 -2.5 28.5t-21.5 15.5l-162 58l19 81h610l-19 -81l-161 -58q-17 -7 -30 -15.5t-18 -28.5l-99 -446h717l99 446q4 20 -3 28.5t-24 15.5l-160 58l19 81h611l-19 -81l-160 -58q-18 -7 -31 -15.5t-18 -28.5
l-239 -1081q-4 -21 1.5 -31t25.5 -17l160 -56l-19 -83h-611l19 83l160 56q17 6 30.5 16t18.5 32l110 499h-717l-110 -499q-4 -17 0.5 -28.5t25.5 -19.5l161 -56z" />
    <glyph glyph-name="I" unicode="I" horiz-adv-x="899" 
d="M653 0h-630l20 83l171 56q18 6 30 16t17 32l239 1081q4 20 -2.5 28.5t-22.5 15.5l-171 58l18 81h630l-18 -81l-115 -39q-15 -5 -31.5 -9t-31 -10.5t-26 -17t-15.5 -26.5l-239 -1081q-4 -21 1.5 -31t23.5 -17l172 -56z" />
    <glyph glyph-name="J" unicode="J" horiz-adv-x="893" 
d="M-99 -418q-19 0 -46.5 2.5t-57 6t-57.5 8.5t-47 10l42 210h59q21 -8 50 -17.5t59.5 -18t58.5 -14.5t48 -6q74 0 115 15.5t64 43.5q12 15 25.5 52t27.5 88.5t28 114.5t29 129l215 1062q3 10 -2 23.5t-25 20.5l-192 58l18 81h636l-18 -81l-159 -58q-17 -6 -28 -15t-15 -29
l-211 -1049q-34 -165 -92 -285.5t-137 -198.5t-177 -115.5t-211 -37.5z" />
    <glyph glyph-name="K" unicode="K" horiz-adv-x="1571" 
d="M634 0h-610l19 83l162 56q17 6 29 16t17 32l239 1081q3 16 -1.5 26.5t-23.5 17.5l-162 58l19 81h610l-19 -81l-161 -58q-18 -7 -30 -15.5t-17 -28.5l-125 -564l690 604l-66 62l19 81h486l-19 -81q-43 -15 -85.5 -28.5t-85.5 -27.5q-19 -6 -43 -17t-47 -31l-523 -445
l341 -631q4 -7 9.5 -16t12.5 -17t14.5 -15t15.5 -10l146 -54l-18 -78h-473l18 78l70 52l-302 561l-181 -82l-93 -422q-4 -21 1.5 -31t24.5 -17l161 -56z" />
    <glyph glyph-name="L" unicode="L" horiz-adv-x="1374" 
d="M1182 0h-1158l19 83l162 56q14 5 27.5 15.5t18.5 32.5l239 1081q3 16 -2 26.5t-23 17.5l-161 58l17 81h610l-17 -81l-162 -58q-15 -6 -28.5 -15t-18.5 -29l-251 -1132h539q7 0 15 2.5t15.5 7t13.5 12t9 17.5l102 303h141z" />
    <glyph glyph-name="M" unicode="M" horiz-adv-x="2136" 
d="M563 0h-538l18 83l164 64q15 6 28 15t18 31l237 1075q4 20 -2.5 28.5t-23.5 15.5l-160 58l18 81h538l130 -966l11 -165h23l634 1131h531l-18 -81l-162 -58q-15 -5 -28.5 -15t-18.5 -29l-240 -1081q-4 -21 1.5 -31t25.5 -17l160 -56l-18 -83h-607l18 83l159 56
q17 6 30.5 16t18.5 32l255 1151h-24l-77 -147l-558 -971l-140 -220h-118l-161 1191l-11 147h-23l-253 -1145q-4 -17 0.5 -27.5t23.5 -18.5l157 -64z" />
    <glyph glyph-name="N" unicode="N" horiz-adv-x="1796" 
d="M1338 -10h-120l-531 1095l-43 125h-21l-223 -1017q-2 -14 -1 -21.5t4 -12t8.5 -7t12.5 -5.5l157 -64l-18 -83h-538l18 83l164 64q17 7 29 15.5t17 30.5l237 1075q4 20 -2.5 29t-23.5 15l-166 58l19 81h421l489 -1011l43 -126h21l208 948q5 14 -4 25.5t-24 17.5l-157 65
l17 81h541l-17 -81l-164 -65q-14 -6 -27 -14.5t-18 -28.5l-230 -1042z" />
    <glyph glyph-name="O" unicode="O" horiz-adv-x="1647" 
d="M752 -34q-149 0 -262.5 40t-190 115t-116 184t-39.5 247q0 125 26.5 243t76.5 221.5t123 190t166 148t205 96t241 34.5q159 0 273.5 -43t189 -120.5t110 -184t35.5 -233.5q0 -108 -22.5 -219.5t-68 -215.5t-114.5 -196t-162.5 -160t-211 -107.5t-259.5 -39.5zM782 98
q94 0 173 33t142.5 90.5t111 135.5t79.5 168.5t48 189t16 196.5q0 104 -24.5 186t-74.5 139t-125.5 87t-178.5 30q-101 0 -182 -35t-144 -95.5t-108.5 -140.5t-75.5 -170t-44 -185t-14 -185q0 -105 25 -187.5t75 -139.5t125 -87t176 -30z" />
    <glyph glyph-name="P" unicode="P" horiz-adv-x="1373" 
d="M814 717q89 0 153 32t105 83.5t60.5 115t19.5 126.5q0 50 -15.5 94.5t-51.5 77.5t-96 52t-150 19h-122l-130 -580q16 -5 44.5 -8.5t60.5 -6t64.5 -4t57.5 -1.5zM642 0h-618l19 83l162 56q14 5 27.5 15.5t18.5 32.5l239 1081q4 20 -2.5 28.5t-21.5 15.5l-162 58l19 81h575
q103 0 193 -21t157 -63.5t105.5 -106.5t38.5 -151q0 -116 -43.5 -213.5t-120.5 -168.5t-181.5 -111t-227.5 -40q-25 0 -60 5.5t-71 15t-68.5 22t-52.5 26.5l-101 -458q-4 -20 2 -31t24 -17l169 -56z" />
    <glyph glyph-name="Q" unicode="Q" horiz-adv-x="1655" 
d="M782 98q94 0 173 33t142.5 90.5t111 135.5t79.5 168.5t48 189t16 196.5q0 104 -24.5 186t-74.5 139t-125.5 87t-178.5 30q-101 0 -182 -35t-144 -95.5t-108.5 -140.5t-75.5 -170t-44 -185t-14 -185q0 -105 25 -187.5t75 -139.5t125 -87t176 -30zM1311 -502h-222
q-51 0 -80 6t-47 21t-31 40t-32 63l-177 338q-141 4 -249 45.5t-181 117t-110.5 182t-37.5 241.5q0 125 26.5 243t76.5 221.5t123 190t166 148t205 96t241 34.5q159 0 273.5 -43t189 -120.5t110 -184t35.5 -233.5q0 -95 -17.5 -193t-52.5 -191.5t-88.5 -179t-125.5 -155.5
t-162.5 -121.5t-200.5 -76.5l155 -295q8 -15 24.5 -35.5t36.5 -26.5l171 -49z" />
    <glyph glyph-name="R" unicode="R" horiz-adv-x="1557" 
d="M793 759q94 0 163 29.5t114.5 77.5t67.5 109t22 124q0 49 -16 89t-51.5 68.5t-93 44.5t-141.5 16h-141l-122 -544q11 -2 37 -4.5t56.5 -4.5t59.5 -3.5t45 -1.5zM634 0h-610l19 83l163 56q17 6 28.5 16t16.5 32l239 1081q4 20 -2.5 28.5t-22.5 15.5l-161 58l17 81h591
q145 0 239.5 -26.5t149 -70.5t76 -100t21.5 -115q0 -70 -19.5 -129t-52.5 -108t-75.5 -87t-89.5 -66t-94 -47t-88 -28l256 -477q8 -16 24.5 -36t37.5 -26l174 -52l-19 -83h-232q-47 0 -74 5t-44 17t-28 31t-26 47q-15 29 -41.5 79t-57 108t-62 117.5t-57.5 108t-42 79
l-16 30.5l-202 40l-104 -475q-4 -21 2 -31t25 -17l160 -56z" />
    <glyph glyph-name="S" unicode="S" horiz-adv-x="1322" 
d="M543 -35q-54 0 -115 8.5t-124.5 23t-126.5 33t-120 38.5l86 390h138l-22 -222q-1 -14 11.5 -29.5t35 -30.5t53 -29.5t66 -25.5t73.5 -17.5t76 -6.5q91 0 163 19.5t122 56.5t77 91t27 123t-40 119.5t-112 85.5q-42 20 -83 36.5t-80.5 31.5t-78 30t-75.5 33
q-50 24 -91.5 55.5t-71.5 70.5t-47 85.5t-17 100.5q0 97 45.5 179.5t123 142.5t180.5 94t219 34q64 0 125.5 -7t119.5 -18t110.5 -24t98.5 -25l-85 -379h-137l21 209q1 9 -7 21t-23.5 24.5t-38 24t-52 21t-65.5 15t-77 5.5q-86 0 -150.5 -20t-108.5 -55.5t-66 -82.5
t-22 -101q0 -30 9 -59t29 -55t52.5 -50t80.5 -45q77 -35 154 -64t151 -65q41 -21 83 -48.5t76 -65t55.5 -85.5t21.5 -110q0 -87 -37 -173.5t-115.5 -154.5t-201 -110.5t-293.5 -42.5z" />
    <glyph glyph-name="T" unicode="T" horiz-adv-x="1463" 
d="M936 0h-627l18 83l171 56q18 6 29.5 16t16.5 32l250 1130h-336q-16 0 -30 -10t-21 -28l-78 -214h-136l86 386h1304l-86 -386h-137l18 214q2 20 -9 29t-25 9h-335l-250 -1130q-4 -20 2 -31t24 -17l169 -56z" />
    <glyph glyph-name="U" unicode="U" horiz-adv-x="1732" 
d="M774 -35q-126 0 -221 31t-158.5 82.5t-95.5 118t-32 137.5q0 19 2 40.5t5.5 43t7.5 41.5t8 37l171 772q4 20 -2.5 28.5t-25.5 15.5l-158 58l18 81h609l-18 -81l-162 -58q-14 -5 -27 -14.5t-18 -29.5q-39 -173 -76 -343t-76 -343q-3 -13 -6.5 -33t-7 -42t-5.5 -43.5
t-2 -38.5q0 -52 13.5 -105.5t49 -97t97 -71t157.5 -27.5q78 0 139.5 18.5t109 50t82 71.5t58.5 83t39 85.5t23 78.5l165 751q4 10 -3 23.5t-22 19.5l-158 65l18 81h539l-18 -81l-163 -65q-16 -6 -28 -14.5t-17 -28.5l-181 -820q-19 -85 -57.5 -153t-90 -121t-112 -91.5
t-124.5 -63t-127 -36.5t-119 -12z" />
    <glyph glyph-name="V" unicode="V" horiz-adv-x="1521" 
d="M696 -20h-140l-225 1290q-2 14 -11 28.5t-24 21.5l-111 50l18 81h525l-18 -81l-172 -67l156 -915l15 -131h22l625 1039l-161 74l18 81h478l-18 -81l-108 -54q-17 -9 -33 -21.5t-26 -28.5l-643 -1046z" />
    <glyph glyph-name="W" unicode="W" horiz-adv-x="2313" 
d="M621 -14h-169l-115 1284q-2 18 -10 30.5t-23 19.5l-106 50l18 81h518l-18 -81l-174 -67l79 -885l4 -139h23l475 875l165 267h161l106 -1003l10 -137h21l557 1015l-171 74l18 81h484l-18 -81l-103 -54q-16 -8 -33 -21.5t-25 -28.5l-574 -1019l-161 -261h-167l-105 1009
l-3 135h-20l-480 -883z" />
    <glyph glyph-name="X" unicode="X" horiz-adv-x="1523" 
d="M420 0h-487l19 83l131 46q19 7 37.5 21.5t35.5 31.5l541 546l-276 544q-4 7 -9 15t-11 14.5t-13 12t-15 8.5l-129 48l19 81h516l-19 -81l-124 -67l167 -335l41 -117h11l420 447l-119 72l19 81h475l-19 -81l-121 -48q-6 -3 -14.5 -7.5t-17.5 -11.5t-18.5 -14.5
t-18.5 -16.5l-524 -535l282 -555q10 -19 21.5 -33.5t26.5 -19.5l128 -46l-19 -83h-517l19 83l126 66l-177 358l-41 104h-12l-434 -458l119 -70z" />
    <glyph glyph-name="Y" unicode="Y" horiz-adv-x="1458" 
d="M928 0h-627l19 83l169 56q17 6 30 16t18 32l77 345l-258 738q-5 14 -12.5 28.5t-22.5 21.5l-117 50l18 81h523l-18 -81l-163 -65l175 -495l34 -123h21l476 610l-159 73l18 81h480l-18 -81l-113 -54q-16 -8 -32 -22t-28 -28l-589 -729l-77 -350q-3 -18 0.5 -30t22.5 -18
l172 -56z" />
    <glyph glyph-name="Z" unicode="Z" horiz-adv-x="1369" 
d="M1149 0h-1197l24 107l1069 1108l87 78l6 22h-615q-14 0 -28.5 -9.5t-21.5 -28.5l-77 -212h-137l86 386h1117l-23 -104l-1070 -1108l-88 -81l-5 -22h694q14 0 29 8.5t23 30.5l84 241h136z" />
    <glyph glyph-name="Agrave" unicode="&#xc0;" horiz-adv-x="1515" 
d="M870 1197l-336 -560h445l-74 425l-15 135h-20zM390 0h-479l18 83l107 52q17 8 34.5 23.5t26.5 30.5l641 1042l170 242h136l223 -1289q3 -16 11 -31.5t22 -21.5l117 -48l-18 -83h-526l18 83l173 65l-61 352h-554l-206 -345l165 -72zM1163 1618l-63 -45l-307 234
q-10 8 -18.5 15.5t-16 14.5t-13.5 14t-11 14q-10 14 -14 29t-2 36q1 17 9 33t21 28t30.5 19.5t38.5 7.5t38.5 -4t33.5 -14t32 -27.5t35 -45.5z" />
    <glyph glyph-name="Aacute" unicode="&#xc1;" horiz-adv-x="1515" 
d="M870 1197l-336 -560h445l-74 425l-15 135h-20zM390 0h-479l18 83l107 52q17 8 34.5 23.5t26.5 30.5l641 1042l170 242h136l223 -1289q3 -16 11 -31.5t22 -21.5l117 -48l-18 -83h-526l18 83l173 65l-61 352h-554l-206 -345l165 -72zM801 1573l-50 45q59 78 103 138
t77.5 104.5t59.5 74.5t49 48.5t46 26.5t51 8q43 0 67 -25t24 -59q0 -22 -5.5 -38.5t-16 -31t-26.5 -28t-37 -29.5z" />
    <glyph glyph-name="Acircumflex" unicode="&#xc2;" horiz-adv-x="1515" 
d="M870 1197l-336 -560h445l-74 425l-15 135h-20zM390 0h-479l18 83l107 52q17 8 34.5 23.5t26.5 30.5l641 1042l170 242h136l223 -1289q3 -16 11 -31.5t22 -21.5l117 -48l-18 -83h-526l18 83l173 65l-61 352h-554l-206 -345l165 -72zM999 1829l-336 -241l-53 30l275 307
q18 20 34.5 37t33.5 29t35.5 18.5t40.5 6.5q44 0 69 -25.5t46 -64.5l164 -308l-67 -30z" />
    <glyph glyph-name="uni1EA4" unicode="&#x1ea4;" horiz-adv-x="1515" 
d="M870 1197l-336 -560h445l-74 425l-15 135h-20zM390 0h-479l18 83l107 52q17 8 34.5 23.5t26.5 30.5l641 1042l170 242h136l223 -1289q3 -16 11 -31.5t22 -21.5l117 -48l-18 -83h-526l18 83l173 65l-61 352h-554l-206 -345l165 -72zM999 1829l-336 -241l-53 30l275 307
q18 20 34.5 37t33.5 29t35.5 18.5t40.5 6.5q44 0 69 -25.5t46 -64.5l164 -308l-67 -30zM1286 1837l135 255q17 32 34 55.5t35 38.5t38 22.5t43 7.5q45 0 65.5 -21.5t20.5 -51.5q0 -19 -8 -38.5t-21.5 -38t-30 -36t-32.5 -31.5l-226 -198z" />
    <glyph glyph-name="uni1EA6" unicode="&#x1ea6;" horiz-adv-x="1515" 
d="M870 1197l-336 -560h445l-74 425l-15 135h-20zM390 0h-479l18 83l107 52q17 8 34.5 23.5t26.5 30.5l641 1042l170 242h136l223 -1289q3 -16 11 -31.5t22 -21.5l117 -48l-18 -83h-526l18 83l173 65l-61 352h-554l-206 -345l165 -72zM999 1829l-336 -241l-53 30l275 307
q18 20 34.5 37t33.5 29t35.5 18.5t40.5 6.5q44 0 69 -25.5t46 -64.5l164 -308l-67 -30zM715 1842l-63 -45l-279 216q-15 12 -29 24t-24 25.5t-16 30t-6 37.5q0 19 7 35t19 27t29 17.5t38 6.5t38.5 -4t33.5 -14t32 -27.5t35 -45.5z" />
    <glyph glyph-name="uni1EA8" unicode="&#x1ea8;" horiz-adv-x="1515" 
d="M870 1197l-336 -560h445l-74 425l-15 135h-20zM390 0h-479l18 83l107 52q17 8 34.5 23.5t26.5 30.5l641 1042l170 242h136l223 -1289q3 -16 11 -31.5t22 -21.5l117 -48l-18 -83h-526l18 83l173 65l-61 352h-554l-206 -345l165 -72zM1469 2156q31 0 59 -6t49 -18.5
t33.5 -31.5t12.5 -44q0 -29 -11.5 -51.5t-29.5 -41.5t-39.5 -36.5t-41 -36.5t-35 -40.5t-21.5 -48.5l-3 -16h-110l5 23q10 45 36 74t53.5 53t49 47.5t21.5 57.5q0 19 -14.5 30t-39.5 11q-20 0 -38.5 -7t-35 -18t-30.5 -23.5t-26 -22.5h-36l21 105q10 4 27 11t39 13.5
t49 11.5t56 5zM999 1829l-336 -241l-53 30l275 307q18 20 34.5 37t33.5 29t35.5 18.5t40.5 6.5q44 0 69 -25.5t46 -64.5l164 -308l-67 -30z" />
    <glyph glyph-name="uni1EAA" unicode="&#x1eaa;" horiz-adv-x="1515" 
d="M870 1197l-336 -560h445l-74 425l-15 135h-20zM390 0h-479l18 83l107 52q17 8 34.5 23.5t26.5 30.5l641 1042l170 242h136l223 -1289q3 -16 11 -31.5t22 -21.5l117 -48l-18 -83h-526l18 83l173 65l-61 352h-554l-206 -345l165 -72zM686 2008q18 49 46 92.5t65.5 76.5
t84 52.5t100.5 19.5q39 0 73.5 -11t67.5 -23.5t65.5 -23.5t67.5 -11q44 0 72.5 24.5t45.5 59.5h99q-16 -48 -43 -91.5t-63.5 -76.5t-82.5 -52.5t-100 -19.5q-39 0 -73 11t-66 24.5t-65 25t-70 11.5q-45 0 -77 -26t-49 -62h-98zM999 1809l-336 -221l-53 30l275 292
q36 38 68 62t76 24t69 -24t46 -61l164 -293l-67 -30z" />
    <glyph glyph-name="Atilde" unicode="&#xc3;" horiz-adv-x="1515" 
d="M870 1197l-336 -560h445l-74 425l-15 135h-20zM390 0h-479l18 83l107 52q17 8 34.5 23.5t26.5 30.5l641 1042l170 242h136l223 -1289q3 -16 11 -31.5t22 -21.5l117 -48l-18 -83h-526l18 83l173 65l-61 352h-554l-206 -345l165 -72zM703 1624h-98q11 55 36.5 104t61 86
t78.5 59t90 22q40 0 76 -15.5t70 -34t67.5 -34t68.5 -15.5q22 0 39.5 9t30.5 24.5t22.5 36t15.5 44.5h99q-11 -54 -35 -103t-58.5 -86t-77 -59t-90.5 -22q-41 0 -75.5 16t-67.5 35t-66 35t-70 16q-45 0 -74.5 -35t-42.5 -83z" />
    <glyph glyph-name="Adieresis" unicode="&#xc4;" horiz-adv-x="1515" 
d="M870 1197l-336 -560h445l-74 425l-15 135h-20zM390 0h-479l18 83l107 52q17 8 34.5 23.5t26.5 30.5l641 1042l170 242h136l223 -1289q3 -16 11 -31.5t22 -21.5l117 -48l-18 -83h-526l18 83l173 65l-61 352h-554l-206 -345l165 -72zM740 1642q-26 0 -49.5 8t-41 23t-28 37
t-10.5 50q0 31 10.5 54t28 38.5t41 23.5t49.5 8q30 0 55 -7t43 -21t27.5 -35.5t9.5 -50.5q0 -30 -10.5 -54t-28.5 -40.5t-42.5 -25t-53.5 -8.5zM1202 1642q-26 0 -49.5 8t-41 23t-28 37t-10.5 50q0 31 10.5 54t28 38.5t41 23.5t49.5 8q30 0 55 -7t43 -21t27.5 -35.5
t9.5 -50.5q0 -30 -10.5 -54t-28.5 -40.5t-42.5 -25t-53.5 -8.5z" />
    <glyph glyph-name="Amacron" unicode="&#x100;" horiz-adv-x="1515" 
d="M870 1197l-336 -560h445l-74 425l-15 135h-20zM390 0h-479l18 83l107 52q17 8 34.5 23.5t26.5 30.5l641 1042l170 242h136l223 -1289q3 -16 11 -31.5t22 -21.5l117 -48l-18 -83h-526l18 83l173 65l-61 352h-554l-206 -345l165 -72zM1325 1702h-715l32 142h715z" />
    <glyph glyph-name="Abreve" unicode="&#x102;" horiz-adv-x="1515" 
d="M870 1197l-336 -560h445l-74 425l-15 135h-20zM390 0h-479l18 83l107 52q17 8 34.5 23.5t26.5 30.5l641 1042l170 242h136l223 -1289q3 -16 11 -31.5t22 -21.5l117 -48l-18 -83h-526l18 83l173 65l-61 352h-554l-206 -345l165 -72zM986 1604q-149 0 -219 96t-66 296
l88 14q8 -54 19 -98.5t34 -77t63 -50.5t106 -18q64 0 110 17t81 49t62.5 77t54.5 101l84 -14q-62 -202 -165 -297t-252 -95z" />
    <glyph glyph-name="uni1EAE" unicode="&#x1eae;" horiz-adv-x="1515" 
d="M870 1197l-336 -560h445l-74 425l-15 135h-20zM390 0h-479l18 83l107 52q17 8 34.5 23.5t26.5 30.5l641 1042l170 242h136l223 -1289q3 -16 11 -31.5t22 -21.5l117 -48l-18 -83h-526l18 83l173 65l-61 352h-554l-206 -345l165 -72zM795 1976q6 -54 15 -98.5t31.5 -77
t61.5 -50.5t105 -18q64 0 110 17t82 49t65 77t59 101l83 -14q-73 -202 -178.5 -297t-254.5 -95t-216 96t-52 296zM959 1860l112 241q21 45 40.5 76.5t39.5 50.5t42 27.5t49 8.5q42 0 60.5 -19t18.5 -53q0 -20 -7 -40t-18.5 -38.5t-25.5 -35.5t-29 -31l-225 -223z" />
    <glyph glyph-name="uni1EB0" unicode="&#x1eb0;" horiz-adv-x="1515" 
d="M870 1197l-336 -560h445l-74 425l-15 135h-20zM390 0h-479l18 83l107 52q17 8 34.5 23.5t26.5 30.5l641 1042l170 242h136l223 -1289q3 -16 11 -31.5t22 -21.5l117 -48l-18 -83h-526l18 83l173 65l-61 352h-554l-206 -345l165 -72zM795 1976q6 -54 15 -98.5t31.5 -77
t61.5 -50.5t105 -18q64 0 110 17t82 49t65 77t59 101l83 -14q-73 -202 -178.5 -297t-254.5 -95t-216 96t-52 296zM1040 1824l-122 215q-22 40 -32 68t-10 58q0 24 10.5 42.5t26.5 31t35.5 19t37.5 6.5q23 0 40.5 -5.5t29.5 -20.5t19.5 -41t11.5 -67l26 -277z" />
    <glyph glyph-name="uni1EB2" unicode="&#x1eb2;" horiz-adv-x="1515" 
d="M870 1197l-336 -560h445l-74 425l-15 135h-20zM390 0h-479l18 83l107 52q17 8 34.5 23.5t26.5 30.5l641 1042l170 242h136l223 -1289q3 -16 11 -31.5t22 -21.5l117 -48l-18 -83h-526l18 83l173 65l-61 352h-554l-206 -345l165 -72zM795 1976q6 -54 15 -98.5t31.5 -77
t61.5 -50.5t105 -18q64 0 110 17t82 49t65 77t59 101l83 -14q-73 -202 -178.5 -297t-254.5 -95t-216 96t-52 296zM1094 2206q31 0 59 -6t49 -18.5t33.5 -31.5t12.5 -44q0 -29 -11.5 -52t-29.5 -42.5t-39.5 -37.5t-41.5 -36.5t-35.5 -39.5t-20.5 -47l-3 -16h-110l5 23
q6 30 20.5 53t32.5 42t37 34.5t34.5 31.5t25.5 33t10 38q0 19 -14.5 30t-39.5 11q-20 0 -38.5 -7t-35 -18t-30.5 -23.5t-26 -22.5h-36l21 105q10 4 27 11t39 13.5t49 11.5t56 5z" />
    <glyph glyph-name="uni1EB4" unicode="&#x1eb4;" horiz-adv-x="1515" 
d="M870 1197l-336 -560h445l-74 425l-15 135h-20zM390 0h-479l18 83l107 52q17 8 34.5 23.5t26.5 30.5l641 1042l170 242h136l223 -1289q3 -16 11 -31.5t22 -21.5l117 -48l-18 -83h-526l18 83l173 65l-61 352h-554l-206 -345l165 -72zM809 1960q6 -51 15 -93t31 -72
t60 -46.5t102 -16.5q62 0 106.5 15.5t79 45t62.5 71.5t57 96l83 -14q-36 -98 -79 -169t-95 -117t-113.5 -68t-134.5 -22t-126 22t-86 68.5t-46 117t-5 168.5zM711 2028q18 49 46 92.5t65.5 76.5t84 52.5t100.5 19.5q39 0 73.5 -11t67.5 -23.5t65.5 -23.5t67.5 -11
q44 0 72.5 24.5t45.5 59.5h99q-16 -48 -43 -91.5t-63.5 -76.5t-82.5 -52.5t-100 -19.5q-39 0 -73 11t-66 24.5t-65 25t-70 11.5q-45 0 -77 -26t-49 -62h-98z" />
    <glyph glyph-name="Aring" unicode="&#xc5;" horiz-adv-x="1515" 
d="M870 1197l-336 -560h445l-74 425l-15 135h-20zM390 0h-479l18 83l107 52q17 8 34.5 23.5t26.5 30.5l641 1042l170 242h136l223 -1289q3 -16 11 -31.5t22 -21.5l117 -48l-18 -83h-526l18 83l173 65l-61 352h-554l-206 -345l165 -72zM1030 1659q33 0 61 15t48 42t31 63
t11 78q0 60 -28 96.5t-79 36.5q-39 0 -68.5 -16.5t-49.5 -43.5t-30 -63t-10 -75q0 -61 31.5 -97t82.5 -36zM1002 1577q-51 0 -93 13t-72.5 38.5t-47 62t-16.5 84.5q0 64 24 118.5t67 94t103 62t131 22.5q51 0 92.5 -13t71 -38t46 -61t16.5 -82q0 -65 -24 -120.5t-67 -95.5
t-102 -62.5t-129 -22.5z" />
    <glyph glyph-name="Aringacute" unicode="&#x1fa;" horiz-adv-x="1515" 
d="M870 1197l-336 -560h445l-74 425l-15 135h-20zM390 0h-479l18 83l107 52q17 8 34.5 23.5t26.5 30.5l641 1042l170 242h136l223 -1289q3 -16 11 -31.5t22 -21.5l117 -48l-18 -83h-526l18 83l173 65l-61 352h-554l-206 -345l165 -72zM924 2064l-50 45q59 78 103 138
t77.5 104.5t59.5 74.5t49 48.5t46 26.5t51 8q43 0 67 -25t24 -59q0 -22 -5.5 -38.5t-16 -31t-26.5 -28t-37 -29.5zM1025 1645q33 0 61 15t48 42t31 63t11 78q0 60 -28 96.5t-79 36.5q-39 0 -68.5 -16.5t-49.5 -43.5t-30 -63t-10 -75q0 -61 31.5 -97t82.5 -36zM997 1563
q-51 0 -93 13t-72.5 38.5t-47 62t-16.5 84.5q0 64 24 118.5t67 94t103 62t131 22.5q51 0 92.5 -13t71 -38t46 -61t16.5 -82q0 -65 -24 -120.5t-67 -95.5t-102 -62.5t-129 -22.5z" />
    <glyph glyph-name="uni1EA2" unicode="&#x1ea2;" horiz-adv-x="1515" 
d="M870 1197l-336 -560h445l-74 425l-15 135h-20zM390 0h-479l18 83l107 52q17 8 34.5 23.5t26.5 30.5l641 1042l170 242h136l223 -1289q3 -16 11 -31.5t22 -21.5l117 -48l-18 -83h-526l18 83l173 65l-61 352h-554l-206 -345l165 -72zM1087 2041q81 0 127.5 -31.5
t46.5 -91.5q0 -35 -12.5 -62.5t-32.5 -52t-44.5 -46.5t-48.5 -45.5t-44.5 -49.5t-32.5 -58l-6 -16h-124l8 24q12 36 31.5 63t41 49.5t44 42t40 40t29 44t11.5 53.5q0 10 -2.5 19t-8.5 16t-16 11t-25 4q-25 0 -49.5 -7.5t-47 -19t-41.5 -24.5t-34 -25h-45l24 112
q12 5 33 13.5t48.5 17t60.5 14.5t69 6z" />
    <glyph glyph-name="uni1EA0" unicode="&#x1ea0;" horiz-adv-x="1515" 
d="M870 1197l-336 -560h445l-74 425l-15 135h-20zM390 0h-479l18 83l107 52q17 8 34.5 23.5t26.5 30.5l641 1042l170 242h136l223 -1289q3 -16 11 -31.5t22 -21.5l117 -48l-18 -83h-526l18 83l173 65l-61 352h-554l-206 -345l165 -72zM585 -425q-26 0 -48 7t-38.5 20.5
t-26 33t-9.5 44.5q0 37 15.5 66t40.5 49t57 30t65 10q30 0 54 -6t41 -18.5t26 -31t9 -42.5q0 -37 -14.5 -67t-40 -51t-59.5 -32.5t-72 -11.5z" />
    <glyph glyph-name="uni1EAC" unicode="&#x1eac;" horiz-adv-x="1515" 
d="M870 1197l-336 -560h445l-74 425l-15 135h-20zM390 0h-479l18 83l107 52q17 8 34.5 23.5t26.5 30.5l641 1042l170 242h136l223 -1289q3 -16 11 -31.5t22 -21.5l117 -48l-18 -83h-526l18 83l173 65l-61 352h-554l-206 -345l165 -72zM1020 1829l-336 -241l-53 30l275 307
q18 20 34.5 37t33.5 29t35.5 18.5t40.5 6.5q44 0 69 -25.5t46 -64.5l164 -308l-67 -30zM585 -425q-26 0 -48 7t-38.5 20.5t-26 33t-9.5 44.5q0 37 15.5 66t40.5 49t57 30t65 10q30 0 54 -6t41 -18.5t26 -31t9 -42.5q0 -37 -14.5 -67t-40 -51t-59.5 -32.5t-72 -11.5z" />
    <glyph glyph-name="uni1EB6" unicode="&#x1eb6;" horiz-adv-x="1515" 
d="M870 1197l-336 -560h445l-74 425l-15 135h-20zM390 0h-479l18 83l107 52q17 8 34.5 23.5t26.5 30.5l641 1042l170 242h136l223 -1289q3 -16 11 -31.5t22 -21.5l117 -48l-18 -83h-526l18 83l173 65l-61 352h-554l-206 -345l165 -72zM986 1604q-149 0 -219 96t-66 296
l88 14q8 -54 19 -98.5t34 -77t63 -50.5t106 -18q64 0 110 17t81 49t62.5 77t54.5 101l84 -14q-62 -202 -165 -297t-252 -95zM585 -425q-26 0 -48 7t-38.5 20.5t-26 33t-9.5 44.5q0 37 15.5 66t40.5 49t57 30t65 10q30 0 54 -6t41 -18.5t26 -31t9 -42.5q0 -37 -14.5 -67
t-40 -51t-59.5 -32.5t-72 -11.5z" />
    <glyph glyph-name="Aogonek" unicode="&#x104;" horiz-adv-x="1515" 
d="M870 1197l-336 -560h445l-74 425l-15 135h-20zM1055 -462q-59 0 -100 15.5t-66.5 40t-37 56t-11.5 64.5q0 46 17.5 86.5t46 75.5t65 66t74.5 58h-170l18 83l173 65l-61 352h-554l-206 -345l165 -72l-18 -83h-479l18 83l107 52q17 8 34.5 23.5t26.5 30.5l641 1042l170 242
h136l223 -1289q3 -16 11 -31.5t22 -21.5l117 -48l-18 -83h-245q-31 -23 -58.5 -48.5t-48.5 -54.5t-33 -61t-12 -68q0 -21 7 -41.5t20.5 -36.5t34 -26t47.5 -10q26 0 55 9.5t54 21.5h17v-112q-48 -18 -97 -26.5t-85 -8.5z" />
    <glyph glyph-name="AE" unicode="&#xc6;" horiz-adv-x="2246" 
d="M1171 1323l-437 -550h405l122 550h-90zM390 0h-500l18 83l115 52q18 8 37.5 23.5t31.5 30.5l813 1009q6 7 13.5 17.5t15 22.5t12.5 23.5t5 21.5q0 11 -7.5 18t-18.5 11l-161 58l18 81h1442l-81 -366h-137l12 192q1 9 -1.5 16.5t-7 12t-11 7t-14.5 2.5h-510l-121 -543h304
q10 0 18 2t14 6.5t11 12t9 17.5l64 156h110l-111 -504h-110l1 145q0 20 -7 29.5t-28 9.5h-303l-112 -510h608q14 0 29 10.5t22 28.5l79 214h136l-87 -389h-1217l18 83l163 56q19 7 29.5 16.5t15.5 31.5l102 460h-481l-385 -492l163 -72z" />
    <glyph glyph-name="AEacute" unicode="&#x1fc;" horiz-adv-x="2246" 
d="M1171 1323l-437 -550h405l122 550h-90zM390 0h-500l18 83l115 52q18 8 37.5 23.5t31.5 30.5l813 1009q6 7 13.5 17.5t15 22.5t12.5 23.5t5 21.5q0 11 -7.5 18t-18.5 11l-161 58l18 81h1442l-81 -366h-137l12 192q1 9 -1.5 16.5t-7 12t-11 7t-14.5 2.5h-510l-121 -543h304
q10 0 18 2t14 6.5t11 12t9 17.5l64 156h110l-111 -504h-110l1 145q0 20 -7 29.5t-28 9.5h-303l-112 -510h608q14 0 29 10.5t22 28.5l79 214h136l-87 -389h-1217l18 83l163 56q19 7 29.5 16.5t15.5 31.5l102 460h-481l-385 -492l163 -72zM1280 1573l-50 45q59 78 103 138
t77.5 104.5t59.5 74.5t49 48.5t46 26.5t51 8q43 0 67 -25t24 -59q0 -22 -5.5 -38.5t-16 -31t-26.5 -28t-37 -29.5z" />
    <glyph glyph-name="Cacute" unicode="&#x106;" horiz-adv-x="1452" 
d="M752 -31q-141 0 -253.5 40t-191.5 116.5t-121 189t-42 256.5q0 129 28 246.5t79.5 219t125.5 184t166.5 140.5t201 90t230.5 32q56 0 124.5 -9t136.5 -22t130 -27t104 -24l-87 -380h-135l28 214q1 7 -3 13.5t-10 12t-13 10t-12 7.5q-32 17 -65 30.5t-68.5 22.5t-74 14
t-80.5 5q-94 0 -173 -27t-142.5 -76t-111 -117t-79.5 -150t-48 -175t-16 -192q0 -235 116 -356t340 -121q69 0 133 23t119 54.5t100 65.5t76 56h60l-34 -148q-48 -36 -108.5 -75t-129.5 -70.5t-145 -52t-155 -20.5zM792 1573l-50 45q59 78 103 138t77.5 104.5t59.5 74.5
t49 48.5t46 26.5t51 8q43 0 67 -25t24 -59q0 -22 -5.5 -38.5t-16 -31t-26.5 -28t-37 -29.5z" />
    <glyph glyph-name="Ccircumflex" unicode="&#x108;" horiz-adv-x="1452" 
d="M752 -31q-141 0 -253.5 40t-191.5 116.5t-121 189t-42 256.5q0 129 28 246.5t79.5 219t125.5 184t166.5 140.5t201 90t230.5 32q56 0 124.5 -9t136.5 -22t130 -27t104 -24l-87 -380h-135l28 214q1 7 -3 13.5t-10 12t-13 10t-12 7.5q-32 17 -65 30.5t-68.5 22.5t-74 14
t-80.5 5q-94 0 -173 -27t-142.5 -76t-111 -117t-79.5 -150t-48 -175t-16 -192q0 -235 116 -356t340 -121q69 0 133 23t119 54.5t100 65.5t76 56h60l-34 -148q-48 -36 -108.5 -75t-129.5 -70.5t-145 -52t-155 -20.5zM1025 1829l-336 -241l-53 30l275 307q18 20 34.5 37
t33.5 29t35.5 18.5t40.5 6.5q44 0 69 -25.5t46 -64.5l164 -308l-67 -30z" />
    <glyph glyph-name="Ccaron" unicode="&#x10c;" horiz-adv-x="1452" 
d="M752 -31q-141 0 -253.5 40t-191.5 116.5t-121 189t-42 256.5q0 129 28 246.5t79.5 219t125.5 184t166.5 140.5t201 90t230.5 32q56 0 124.5 -9t136.5 -22t130 -27t104 -24l-87 -380h-135l28 214q1 7 -3 13.5t-10 12t-13 10t-12 7.5q-32 17 -65 30.5t-68.5 22.5t-74 14
t-80.5 5q-94 0 -173 -27t-142.5 -76t-111 -117t-79.5 -150t-48 -175t-16 -192q0 -235 116 -356t340 -121q69 0 133 23t119 54.5t100 65.5t76 56h60l-34 -148q-48 -36 -108.5 -75t-129.5 -70.5t-145 -52t-155 -20.5zM992 1579q-44 0 -69.5 24.5t-45.5 65.5l-164 308l67 45
l242 -256l336 256l53 -45l-275 -307q-37 -41 -68.5 -66t-75.5 -25z" />
    <glyph glyph-name="Cdotaccent" unicode="&#x10a;" horiz-adv-x="1452" 
d="M752 -31q-141 0 -253.5 40t-191.5 116.5t-121 189t-42 256.5q0 129 28 246.5t79.5 219t125.5 184t166.5 140.5t201 90t230.5 32q56 0 124.5 -9t136.5 -22t130 -27t104 -24l-87 -380h-135l28 214q1 7 -3 13.5t-10 12t-13 10t-12 7.5q-32 17 -65 30.5t-68.5 22.5t-74 14
t-80.5 5q-94 0 -173 -27t-142.5 -76t-111 -117t-79.5 -150t-48 -175t-16 -192q0 -235 116 -356t340 -121q69 0 133 23t119 54.5t100 65.5t76 56h60l-34 -148q-48 -36 -108.5 -75t-129.5 -70.5t-145 -52t-155 -20.5zM986 1642q-29 0 -55.5 9t-46.5 25.5t-32 41t-12 56.5
q0 34 12 59.5t32 43t46.5 26t55.5 8.5q34 0 62 -7.5t48 -23.5t31 -39.5t11 -55.5q0 -34 -11.5 -60.5t-32 -45t-48.5 -28t-60 -9.5z" />
    <glyph glyph-name="Ccedilla" unicode="&#xc7;" horiz-adv-x="1452" 
d="M660 -501q-72 0 -122.5 17t-87.5 36l19 99h28q26 -19 70.5 -37.5t99.5 -18.5q34 0 61 7.5t45 21.5t27.5 33.5t9.5 43.5q0 45 -38.5 63.5t-125.5 18.5l38 188q-126 10 -226 54.5t-170 120.5t-107 183t-37 242q0 129 28 246.5t79.5 219t125.5 184t166.5 140.5t201 90
t230.5 32q56 0 124.5 -9t136.5 -22t130 -27t104 -24l-87 -380h-135l28 214q1 7 -3 13.5t-10 12t-13 10t-12 7.5q-32 17 -65 30.5t-68.5 22.5t-74 14t-80.5 5q-94 0 -173 -27t-142.5 -76t-111 -117t-79.5 -150t-48 -175t-16 -192q0 -235 116 -356t340 -121q69 0 133 23
t119 54.5t100 65.5t76 56h60l-34 -148q-46 -34 -101.5 -70.5t-119.5 -67t-134 -52t-144 -26.5q-4 -1 -7.5 -1h-7.5l-17 -79q39 0 76.5 -8.5t66.5 -26.5t46.5 -46t17.5 -68q0 -59 -23.5 -104t-65 -76t-97.5 -47t-120 -16z" />
    <glyph glyph-name="Dcaron" unicode="&#x10e;" horiz-adv-x="1652" 
d="M716 1317l-262 -1183h314q144 0 254 50.5t184 141t111.5 217.5t37.5 280q0 115 -32 206.5t-92.5 155.5t-147.5 98t-198 34h-169zM24 0l19 83l162 56q15 5 28 15.5t18 32.5l239 1081q4 20 -2.5 28.5t-22.5 15.5l-162 58l19 81h637q66 0 138.5 -11.5t143 -39t134.5 -71.5
t112.5 -109.5t77 -153.5t28.5 -203q0 -138 -29 -256t-83 -214t-130.5 -169.5t-172 -123t-207 -75t-235.5 -25.5h-712zM899 1579q-44 0 -69.5 24.5t-45.5 65.5l-164 308l67 45l242 -256l336 256l53 -45l-275 -307q-37 -41 -68.5 -66t-75.5 -25z" />
    <glyph glyph-name="Dcroat" unicode="&#x110;" horiz-adv-x="1652" 
d="M578 692l-124 -558h314q144 0 254 50.5t184 141t111.5 217.5t37.5 280q0 115 -32 206.5t-92.5 155.5t-147.5 98t-198 34h-169l-111 -501h339l-30 -124h-336zM24 0l19 83l162 56q15 5 28 15.5t18 32.5l112 505h-202l30 124h199l100 452q5 20 -3.5 29.5t-21.5 14.5l-162 58
l19 81h637q66 0 138.5 -11.5t143 -39t134.5 -71.5t112.5 -109.5t77 -153.5t28.5 -203q0 -138 -29 -256t-83 -214t-130.5 -169.5t-172 -123t-207 -75t-235.5 -25.5h-712z" />
    <glyph glyph-name="Egrave" unicode="&#xc8;" horiz-adv-x="1488" 
d="M1242 0h-1218l19 83l162 56q17 6 29 16t17 32l239 1081q4 20 -2.5 28.5t-22.5 15.5l-162 58l19 81h1144l-81 -366h-137l12 192q2 19 -8 28.5t-26 9.5h-510l-110 -493h304q21 0 32.5 9t19.5 29l65 156h110l-117 -524h-110l4 155q1 20 -6.5 29.5t-28.5 9.5h-303l-121 -550
h608q14 0 29 10.5t22 28.5l79 214h136zM1133 1618l-63 -45l-307 234q-10 8 -18.5 15.5t-16 14.5t-13.5 14t-11 14q-10 14 -14 29t-2 36q1 17 9 33t21 28t30.5 19.5t38.5 7.5t38.5 -4t33.5 -14t32 -27.5t35 -45.5z" />
    <glyph glyph-name="Eacute" unicode="&#xc9;" horiz-adv-x="1488" 
d="M1242 0h-1218l19 83l162 56q17 6 29 16t17 32l239 1081q4 20 -2.5 28.5t-22.5 15.5l-162 58l19 81h1144l-81 -366h-137l12 192q2 19 -8 28.5t-26 9.5h-510l-110 -493h304q21 0 32.5 9t19.5 29l65 156h110l-117 -524h-110l4 155q1 20 -6.5 29.5t-28.5 9.5h-303l-121 -550
h608q14 0 29 10.5t22 28.5l79 214h136zM843 1573l-50 45q59 78 103 138t77.5 104.5t59.5 74.5t49 48.5t46 26.5t51 8q43 0 67 -25t24 -59q0 -22 -5.5 -38.5t-16 -31t-26.5 -28t-37 -29.5z" />
    <glyph glyph-name="Ecircumflex" unicode="&#xca;" horiz-adv-x="1488" 
d="M1242 0h-1218l19 83l162 56q17 6 29 16t17 32l239 1081q4 20 -2.5 28.5t-22.5 15.5l-162 58l19 81h1144l-81 -366h-137l12 192q2 19 -8 28.5t-26 9.5h-510l-110 -493h304q21 0 32.5 9t19.5 29l65 156h110l-117 -524h-110l4 155q1 20 -6.5 29.5t-28.5 9.5h-303l-121 -550
h608q14 0 29 10.5t22 28.5l79 214h136zM976 1829l-336 -241l-53 30l275 307q18 20 34.5 37t33.5 29t35.5 18.5t40.5 6.5q44 0 69 -25.5t46 -64.5l164 -308l-67 -30z" />
    <glyph glyph-name="uni1EBE" unicode="&#x1ebe;" horiz-adv-x="1488" 
d="M1242 0h-1218l19 83l162 56q17 6 29 16t17 32l239 1081q4 20 -2.5 28.5t-22.5 15.5l-162 58l19 81h1144l-81 -366h-137l12 192q2 19 -8 28.5t-26 9.5h-510l-110 -493h304q21 0 32.5 9t19.5 29l65 156h110l-117 -524h-110l4 155q1 20 -6.5 29.5t-28.5 9.5h-303l-121 -550
h608q14 0 29 10.5t22 28.5l79 214h136zM976 1829l-336 -241l-53 30l275 307q18 20 34.5 37t33.5 29t35.5 18.5t40.5 6.5q44 0 69 -25.5t46 -64.5l164 -308l-67 -30zM1263 1837l135 255q17 32 34 55.5t35 38.5t38 22.5t43 7.5q45 0 65.5 -21.5t20.5 -51.5q0 -19 -8 -38.5
t-21.5 -38t-30 -36t-32.5 -31.5l-226 -198z" />
    <glyph glyph-name="uni1EC0" unicode="&#x1ec0;" horiz-adv-x="1488" 
d="M1242 0h-1218l19 83l162 56q17 6 29 16t17 32l239 1081q4 20 -2.5 28.5t-22.5 15.5l-162 58l19 81h1144l-81 -366h-137l12 192q2 19 -8 28.5t-26 9.5h-510l-110 -493h304q21 0 32.5 9t19.5 29l65 156h110l-117 -524h-110l4 155q1 20 -6.5 29.5t-28.5 9.5h-303l-121 -550
h608q14 0 29 10.5t22 28.5l79 214h136zM976 1829l-336 -241l-53 30l275 307q18 20 34.5 37t33.5 29t35.5 18.5t40.5 6.5q44 0 69 -25.5t46 -64.5l164 -308l-67 -30zM692 1842l-63 -45l-279 216q-15 12 -29 24t-24 25.5t-16 30t-6 37.5q0 19 7 35t19 27t29 17.5t38 6.5
t38.5 -4t33.5 -14t32 -27.5t35 -45.5z" />
    <glyph glyph-name="uni1EC2" unicode="&#x1ec2;" horiz-adv-x="1488" 
d="M1242 0h-1218l19 83l162 56q17 6 29 16t17 32l239 1081q4 20 -2.5 28.5t-22.5 15.5l-162 58l19 81h1144l-81 -366h-137l12 192q2 19 -8 28.5t-26 9.5h-510l-110 -493h304q21 0 32.5 9t19.5 29l65 156h110l-117 -524h-110l4 155q1 20 -6.5 29.5t-28.5 9.5h-303l-121 -550
h608q14 0 29 10.5t22 28.5l79 214h136zM1446 2156q31 0 59 -6t49 -18.5t33.5 -31.5t12.5 -44q0 -29 -11.5 -51.5t-29.5 -41.5t-39.5 -36.5t-41 -36.5t-35 -40.5t-21.5 -48.5l-3 -16h-110l5 23q10 45 36 74t53.5 53t49 47.5t21.5 57.5q0 19 -14.5 30t-39.5 11q-20 0 -38.5 -7
t-35 -18t-30.5 -23.5t-26 -22.5h-36l21 105q10 4 27 11t39 13.5t49 11.5t56 5zM976 1829l-336 -241l-53 30l275 307q18 20 34.5 37t33.5 29t35.5 18.5t40.5 6.5q44 0 69 -25.5t46 -64.5l164 -308l-67 -30z" />
    <glyph glyph-name="uni1EC4" unicode="&#x1ec4;" horiz-adv-x="1488" 
d="M1242 0h-1218l19 83l162 56q17 6 29 16t17 32l239 1081q4 20 -2.5 28.5t-22.5 15.5l-162 58l19 81h1144l-81 -366h-137l12 192q2 19 -8 28.5t-26 9.5h-510l-110 -493h304q21 0 32.5 9t19.5 29l65 156h110l-117 -524h-110l4 155q1 20 -6.5 29.5t-28.5 9.5h-303l-121 -550
h608q14 0 29 10.5t22 28.5l79 214h136zM663 2008q18 49 46 92.5t65.5 76.5t84 52.5t100.5 19.5q39 0 73.5 -11t67.5 -23.5t65.5 -23.5t67.5 -11q44 0 72.5 24.5t45.5 59.5h99q-16 -48 -43 -91.5t-63.5 -76.5t-82.5 -52.5t-100 -19.5q-39 0 -73 11t-66 24.5t-65 25t-70 11.5
q-45 0 -77 -26t-49 -62h-98zM976 1809l-336 -221l-53 30l275 292q36 38 68 62t76 24t69 -24t46 -61l164 -293l-67 -30z" />
    <glyph glyph-name="Ecaron" unicode="&#x11a;" horiz-adv-x="1488" 
d="M1242 0h-1218l19 83l162 56q17 6 29 16t17 32l239 1081q4 20 -2.5 28.5t-22.5 15.5l-162 58l19 81h1144l-81 -366h-137l12 192q2 19 -8 28.5t-26 9.5h-510l-110 -493h304q21 0 32.5 9t19.5 29l65 156h110l-117 -524h-110l4 155q1 20 -6.5 29.5t-28.5 9.5h-303l-121 -550
h608q14 0 29 10.5t22 28.5l79 214h136zM902 1579q-44 0 -69.5 24.5t-45.5 65.5l-164 308l67 45l242 -256l336 256l53 -45l-275 -307q-37 -41 -68.5 -66t-75.5 -25z" />
    <glyph glyph-name="uni1EBC" unicode="&#x1ebc;" horiz-adv-x="1488" 
d="M1242 0h-1218l19 83l162 56q17 6 29 16t17 32l239 1081q4 20 -2.5 28.5t-22.5 15.5l-162 58l19 81h1144l-81 -366h-137l12 192q2 19 -8 28.5t-26 9.5h-510l-110 -493h304q21 0 32.5 9t19.5 29l65 156h110l-117 -524h-110l4 155q1 20 -6.5 29.5t-28.5 9.5h-303l-121 -550
h608q14 0 29 10.5t22 28.5l79 214h136zM671 1624h-98q11 55 36.5 104t61 86t78.5 59t90 22q40 0 76 -15.5t70 -34t67.5 -34t68.5 -15.5q22 0 39.5 9t30.5 24.5t22.5 36t15.5 44.5h99q-11 -54 -35 -103t-58.5 -86t-77 -59t-90.5 -22q-41 0 -75.5 16t-67.5 35t-66 35t-70 16
q-45 0 -74.5 -35t-42.5 -83z" />
    <glyph glyph-name="Edieresis" unicode="&#xcb;" horiz-adv-x="1488" 
d="M1242 0h-1218l19 83l162 56q17 6 29 16t17 32l239 1081q4 20 -2.5 28.5t-22.5 15.5l-162 58l19 81h1144l-81 -366h-137l12 192q2 19 -8 28.5t-26 9.5h-510l-110 -493h304q21 0 32.5 9t19.5 29l65 156h110l-117 -524h-110l4 155q1 20 -6.5 29.5t-28.5 9.5h-303l-121 -550
h608q14 0 29 10.5t22 28.5l79 214h136zM720 1642q-26 0 -49.5 8t-41 23t-28 37t-10.5 50q0 31 10.5 54t28 38.5t41 23.5t49.5 8q30 0 55 -7t43 -21t27.5 -35.5t9.5 -50.5q0 -30 -10.5 -54t-28.5 -40.5t-42.5 -25t-53.5 -8.5zM1182 1642q-26 0 -49.5 8t-41 23t-28 37
t-10.5 50q0 31 10.5 54t28 38.5t41 23.5t49.5 8q30 0 55 -7t43 -21t27.5 -35.5t9.5 -50.5q0 -30 -10.5 -54t-28.5 -40.5t-42.5 -25t-53.5 -8.5z" />
    <glyph glyph-name="Emacron" unicode="&#x112;" horiz-adv-x="1488" 
d="M1242 0h-1218l19 83l162 56q17 6 29 16t17 32l239 1081q4 20 -2.5 28.5t-22.5 15.5l-162 58l19 81h1144l-81 -366h-137l12 192q2 19 -8 28.5t-26 9.5h-510l-110 -493h304q21 0 32.5 9t19.5 29l65 156h110l-117 -524h-110l4 155q1 20 -6.5 29.5t-28.5 9.5h-303l-121 -550
h608q14 0 29 10.5t22 28.5l79 214h136zM1283 1702h-715l32 142h715z" />
    <glyph glyph-name="Ebreve" unicode="&#x114;" horiz-adv-x="1488" 
d="M1242 0h-1218l19 83l162 56q17 6 29 16t17 32l239 1081q4 20 -2.5 28.5t-22.5 15.5l-162 58l19 81h1144l-81 -366h-137l12 192q2 19 -8 28.5t-26 9.5h-510l-110 -493h304q21 0 32.5 9t19.5 29l65 156h110l-117 -524h-110l4 155q1 20 -6.5 29.5t-28.5 9.5h-303l-121 -550
h608q14 0 29 10.5t22 28.5l79 214h136zM901 1604q-149 0 -219 96t-66 296l88 14q8 -54 19 -98.5t34 -77t63 -50.5t106 -18q64 0 110 17t81 49t62.5 77t54.5 101l84 -14q-62 -202 -165 -297t-252 -95z" />
    <glyph glyph-name="Edotaccent" unicode="&#x116;" horiz-adv-x="1488" 
d="M1242 0h-1218l19 83l162 56q17 6 29 16t17 32l239 1081q4 20 -2.5 28.5t-22.5 15.5l-162 58l19 81h1144l-81 -366h-137l12 192q2 19 -8 28.5t-26 9.5h-510l-110 -493h304q21 0 32.5 9t19.5 29l65 156h110l-117 -524h-110l4 155q1 20 -6.5 29.5t-28.5 9.5h-303l-121 -550
h608q14 0 29 10.5t22 28.5l79 214h136zM919 1642q-29 0 -55.5 9t-46.5 25.5t-32 41t-12 56.5q0 34 12 59.5t32 43t46.5 26t55.5 8.5q34 0 62 -7.5t48 -23.5t31 -39.5t11 -55.5q0 -34 -11.5 -60.5t-32 -45t-48.5 -28t-60 -9.5z" />
    <glyph glyph-name="uni1EBA" unicode="&#x1eba;" horiz-adv-x="1488" 
d="M1242 0h-1218l19 83l162 56q17 6 29 16t17 32l239 1081q4 20 -2.5 28.5t-22.5 15.5l-162 58l19 81h1144l-81 -366h-137l12 192q2 19 -8 28.5t-26 9.5h-510l-110 -493h304q21 0 32.5 9t19.5 29l65 156h110l-117 -524h-110l4 155q1 20 -6.5 29.5t-28.5 9.5h-303l-121 -550
h608q14 0 29 10.5t22 28.5l79 214h136zM1002 2041q81 0 127.5 -31.5t46.5 -91.5q0 -35 -12.5 -62.5t-32.5 -52t-44.5 -46.5t-48.5 -45.5t-44.5 -49.5t-32.5 -58l-6 -16h-124l8 24q12 36 31.5 63t41 49.5t44 42t40 40t29 44t11.5 53.5q0 10 -2.5 19t-8.5 16t-16 11t-25 4
q-25 0 -49.5 -7.5t-47 -19t-41.5 -24.5t-34 -25h-45l24 112q12 5 33 13.5t48.5 17t60.5 14.5t69 6z" />
    <glyph glyph-name="uni1EB8" unicode="&#x1eb8;" horiz-adv-x="1488" 
d="M1242 0h-1218l19 83l162 56q17 6 29 16t17 32l239 1081q4 20 -2.5 28.5t-22.5 15.5l-162 58l19 81h1144l-81 -366h-137l12 192q2 19 -8 28.5t-26 9.5h-510l-110 -493h304q21 0 32.5 9t19.5 29l65 156h110l-117 -524h-110l4 155q1 20 -6.5 29.5t-28.5 9.5h-303l-121 -550
h608q14 0 29 10.5t22 28.5l79 214h136zM693 -425q-26 0 -48 7t-38.5 20.5t-26 33t-9.5 44.5q0 37 15.5 66t40.5 49t57 30t65 10q30 0 54 -6t41 -18.5t26 -31t9 -42.5q0 -37 -14.5 -67t-40 -51t-59.5 -32.5t-72 -11.5z" />
    <glyph glyph-name="uni1EC6" unicode="&#x1ec6;" horiz-adv-x="1488" 
d="M623 -425q-26 0 -48 7t-38.5 20.5t-26 33t-9.5 44.5q0 37 15.5 66t40.5 49t57 30t65 10q30 0 54 -6t41 -18.5t26 -31t9 -42.5q0 -37 -14.5 -67t-40 -51t-59.5 -32.5t-72 -11.5zM1242 0h-1218l19 83l162 56q17 6 29 16t17 32l239 1081q4 20 -2.5 28.5t-22.5 15.5l-162 58
l19 81h1144l-81 -366h-137l12 192q2 19 -8 28.5t-26 9.5h-510l-110 -493h304q21 0 32.5 9t19.5 29l65 156h110l-117 -524h-110l4 155q1 20 -6.5 29.5t-28.5 9.5h-303l-121 -550h608q14 0 29 10.5t22 28.5l79 214h136zM976 1829l-336 -241l-53 30l275 307q18 20 34.5 37
t33.5 29t35.5 18.5t40.5 6.5q44 0 69 -25.5t46 -64.5l164 -308l-67 -30z" />
    <glyph glyph-name="Eogonek" unicode="&#x118;" horiz-adv-x="1488" 
d="M919 -462q-59 0 -100 15.5t-66.5 40t-37 56t-11.5 64.5q0 46 17.5 86.5t46 75.5t65 66t74.5 58h-883l19 83l162 56q17 6 29 16t17 32l239 1081q5 20 -3.5 29.5t-21.5 14.5l-162 58l19 81h1144l-81 -366h-137l12 192q2 19 -8 28.5t-26 9.5h-510l-110 -493h304q21 0 32.5 9
t19.5 29l65 156h110l-117 -524h-110l4 155q1 20 -6.5 29.5t-28.5 9.5h-303l-121 -550h608q14 0 29 10.5t22 28.5l79 214h136l-87 -389h-224q-31 -23 -58.5 -48.5t-48.5 -54.5t-33 -61t-12 -68q0 -21 7 -41.5t20.5 -36.5t34 -26t47.5 -10q26 0 55 9.5t54 21.5h17v-112
q-48 -18 -97 -26.5t-85 -8.5z" />
    <glyph glyph-name="Gcircumflex" unicode="&#x11c;" horiz-adv-x="1634" 
d="M742 -33q-129 0 -238.5 38t-189.5 113.5t-125 187.5t-45 259q0 128 28.5 246t81.5 220t128.5 185.5t170 142.5t206 91.5t235.5 32.5q75 0 139.5 -5t119 -12.5t101 -17.5t85.5 -20l92 -24l-86 -380h-137l31 215q0 15 -19 29t-50.5 26.5t-71 22.5t-81 17.5t-81 11.5
t-69.5 4q-90 0 -168.5 -24.5t-143.5 -70.5t-116 -112.5t-86 -149t-53.5 -180.5t-18.5 -208q0 -114 28.5 -207.5t85 -160t139.5 -102.5t191 -36q49 0 88.5 6.5t71 15.5t55.5 19t43 18l76 351q5 20 -3 29t-23 14l-202 59l17 81h626l-17 -81l-141 -59q-12 -5 -26 -14t-19 -29
l-37 -167q-11 -49 -19.5 -90.5t-15 -75t-10.5 -60.5t-7 -46q-60 -20 -123.5 -39t-131 -33t-138.5 -22.5t-147 -8.5zM1054 1829l-336 -241l-53 30l275 307q18 20 34.5 37t33.5 29t35.5 18.5t40.5 6.5q44 0 69 -25.5t46 -64.5l164 -308l-67 -30z" />
    <glyph glyph-name="Gbreve" unicode="&#x11e;" horiz-adv-x="1634" 
d="M742 -33q-129 0 -238.5 38t-189.5 113.5t-125 187.5t-45 259q0 128 28.5 246t81.5 220t128.5 185.5t170 142.5t206 91.5t235.5 32.5q75 0 139.5 -5t119 -12.5t101 -17.5t85.5 -20l92 -24l-86 -380h-137l31 215q0 15 -19 29t-50.5 26.5t-71 22.5t-81 17.5t-81 11.5
t-69.5 4q-90 0 -168.5 -24.5t-143.5 -70.5t-116 -112.5t-86 -149t-53.5 -180.5t-18.5 -208q0 -114 28.5 -207.5t85 -160t139.5 -102.5t191 -36q49 0 88.5 6.5t71 15.5t55.5 19t43 18l76 351q5 20 -3 29t-23 14l-202 59l17 81h626l-17 -81l-141 -59q-12 -5 -26 -14t-19 -29
l-37 -167q-11 -49 -19.5 -90.5t-15 -75t-10.5 -60.5t-7 -46q-60 -20 -123.5 -39t-131 -33t-138.5 -22.5t-147 -8.5zM1020 1604q-149 0 -219 96t-66 296l88 14q8 -54 19 -98.5t34 -77t63 -50.5t106 -18q64 0 110 17t81 49t62.5 77t54.5 101l84 -14q-62 -202 -165 -297
t-252 -95z" />
    <glyph glyph-name="Gdotaccent" unicode="&#x120;" horiz-adv-x="1634" 
d="M742 -33q-129 0 -238.5 38t-189.5 113.5t-125 187.5t-45 259q0 128 28.5 246t81.5 220t128.5 185.5t170 142.5t206 91.5t235.5 32.5q75 0 139.5 -5t119 -12.5t101 -17.5t85.5 -20l92 -24l-86 -380h-137l31 215q0 15 -19 29t-50.5 26.5t-71 22.5t-81 17.5t-81 11.5
t-69.5 4q-90 0 -168.5 -24.5t-143.5 -70.5t-116 -112.5t-86 -149t-53.5 -180.5t-18.5 -208q0 -114 28.5 -207.5t85 -160t139.5 -102.5t191 -36q49 0 88.5 6.5t71 15.5t55.5 19t43 18l76 351q5 20 -3 29t-23 14l-202 59l17 81h626l-17 -81l-141 -59q-12 -5 -26 -14t-19 -29
l-37 -167q-11 -49 -19.5 -90.5t-15 -75t-10.5 -60.5t-7 -46q-60 -20 -123.5 -39t-131 -33t-138.5 -22.5t-147 -8.5zM1015 1642q-29 0 -55.5 9t-46.5 25.5t-32 41t-12 56.5q0 34 12 59.5t32 43t46.5 26t55.5 8.5q34 0 62 -7.5t48 -23.5t31 -39.5t11 -55.5q0 -34 -11.5 -60.5
t-32 -45t-48.5 -28t-60 -9.5z" />
    <glyph glyph-name="uni0122" unicode="&#x122;" horiz-adv-x="1634" 
d="M742 -33q-129 0 -238.5 38t-189.5 113.5t-125 187.5t-45 259q0 128 28.5 246t81.5 220t128.5 185.5t170 142.5t206 91.5t235.5 32.5q75 0 139.5 -5t119 -12.5t101 -17.5t85.5 -20l92 -24l-86 -380h-137l31 215q0 15 -19 29t-50.5 26.5t-71 22.5t-81 17.5t-81 11.5
t-69.5 4q-90 0 -168.5 -24.5t-143.5 -70.5t-116 -112.5t-86 -149t-53.5 -180.5t-18.5 -208q0 -114 28.5 -207.5t85 -160t139.5 -102.5t191 -36q49 0 88.5 6.5t71 15.5t55.5 19t43 18l76 351q5 20 -3 29t-23 14l-202 59l17 81h626l-17 -81l-141 -59q-12 -5 -26 -14t-19 -29
l-37 -167q-11 -49 -19.5 -90.5t-15 -75t-10.5 -60.5t-7 -46q-60 -20 -123.5 -39t-131 -33t-138.5 -22.5t-147 -8.5zM543 -547q37 26 62.5 46t43.5 38t30.5 36t22.5 41q-27 19 -46.5 34t-32 29.5t-18.5 30t-6 35.5q0 25 11 49t31 43.5t48.5 31.5t63.5 12q31 0 54 -9.5
t38.5 -27t23.5 -42t8 -55.5q0 -73 -27.5 -129.5t-69.5 -100.5t-92 -77t-94 -60z" />
    <glyph glyph-name="Hcircumflex" unicode="&#x124;" horiz-adv-x="1801" 
d="M634 0h-610l19 83l162 56q14 5 27.5 15.5t18.5 32.5l239 1081q4 20 -2.5 28.5t-21.5 15.5l-162 58l19 81h610l-19 -81l-161 -58q-17 -7 -30 -15.5t-18 -28.5l-99 -446h717l99 446q4 20 -3 28.5t-24 15.5l-160 58l19 81h611l-19 -81l-160 -58q-18 -7 -31 -15.5t-18 -28.5
l-239 -1081q-4 -21 1.5 -31t25.5 -17l160 -56l-19 -83h-611l19 83l160 56q17 6 30.5 16t18.5 32l110 499h-717l-110 -499q-4 -17 0.5 -28.5t25.5 -19.5l161 -56zM1137 1829l-336 -241l-53 30l275 307q18 20 34.5 37t33.5 29t35.5 18.5t40.5 6.5q44 0 69 -25.5t46 -64.5
l164 -308l-67 -30z" />
    <glyph glyph-name="Hbar" unicode="&#x126;" horiz-adv-x="1801" 
d="M634 0h-610l19 83l162 56q14 5 27.5 15.5t18.5 32.5l180 814h-180l29 136h181l29 131q4 20 -2.5 28.5t-21.5 15.5l-162 58l19 81h610l-19 -81l-161 -58q-17 -7 -30 -15.5t-18 -28.5l-29 -131h717l29 131q4 20 -3 28.5t-24 15.5l-160 58l19 81h611l-19 -81l-160 -58
q-18 -7 -31 -15.5t-18 -28.5l-29 -131h196l-29 -136h-197l-180 -814q-4 -21 1.5 -31t25.5 -17l160 -56l-19 -83h-611l19 83l160 56q17 6 30.5 16t18.5 32l108 489h-717l-108 -489q-4 -17 0.5 -28.5t25.5 -19.5l161 -56zM1321 812l41 189h-717l-41 -189h717z" />
    <glyph glyph-name="Igrave" unicode="&#xcc;" horiz-adv-x="899" 
d="M653 0h-630l20 83l171 56q18 6 30 16t17 32l239 1081q4 20 -2.5 28.5t-22.5 15.5l-171 58l18 81h630l-18 -81l-115 -39q-15 -5 -31.5 -9t-31 -10.5t-26 -17t-15.5 -26.5l-239 -1081q-4 -21 1.5 -31t23.5 -17l172 -56zM864 1618l-63 -45l-307 234q-10 8 -18.5 15.5
t-16 14.5t-13.5 14t-11 14q-10 14 -14 29t-2 36q1 17 9 33t21 28t30.5 19.5t38.5 7.5t38.5 -4t33.5 -14t32 -27.5t35 -45.5z" />
    <glyph glyph-name="Iacute" unicode="&#xcd;" horiz-adv-x="899" 
d="M653 0h-630l20 83l171 56q18 6 30 16t17 32l239 1081q4 20 -2.5 28.5t-22.5 15.5l-171 58l18 81h630l-18 -81l-115 -39q-15 -5 -31.5 -9t-31 -10.5t-26 -17t-15.5 -26.5l-239 -1081q-4 -21 1.5 -31t23.5 -17l172 -56zM504 1573l-50 45q59 78 103 138t77.5 104.5
t59.5 74.5t49 48.5t46 26.5t51 8q43 0 67 -25t24 -59q0 -22 -5.5 -38.5t-16 -31t-26.5 -28t-37 -29.5z" />
    <glyph glyph-name="Icircumflex" unicode="&#xce;" horiz-adv-x="899" 
d="M653 0h-630l20 83l171 56q18 6 30 16t17 32l239 1081q4 20 -2.5 28.5t-22.5 15.5l-171 58l18 81h630l-18 -81l-115 -39q-15 -5 -31.5 -9t-31 -10.5t-26 -17t-15.5 -26.5l-239 -1081q-4 -21 1.5 -31t23.5 -17l172 -56zM686 1829l-336 -241l-53 30l275 307q18 20 34.5 37
t33.5 29t35.5 18.5t40.5 6.5q44 0 69 -25.5t46 -64.5l164 -308l-67 -30z" />
    <glyph glyph-name="Itilde" unicode="&#x128;" horiz-adv-x="899" 
d="M653 0h-630l20 83l171 56q18 6 30 16t17 32l239 1081q4 20 -2.5 28.5t-22.5 15.5l-171 58l18 81h630l-18 -81l-115 -39q-15 -5 -31.5 -9t-31 -10.5t-26 -17t-15.5 -26.5l-239 -1081q-4 -21 1.5 -31t23.5 -17l172 -56zM371 1624h-98q11 55 36.5 104t61 86t78.5 59t90 22
q40 0 76 -15.5t70 -34t67.5 -34t68.5 -15.5q22 0 39.5 9t30.5 24.5t22.5 36t15.5 44.5h99q-11 -54 -35 -103t-58.5 -86t-77 -59t-90.5 -22q-41 0 -75.5 16t-67.5 35t-66 35t-70 16q-45 0 -74.5 -35t-42.5 -83z" />
    <glyph glyph-name="Idieresis" unicode="&#xcf;" horiz-adv-x="899" 
d="M653 0h-630l20 83l171 56q18 6 30 16t17 32l239 1081q4 20 -2.5 28.5t-22.5 15.5l-171 58l18 81h630l-18 -81l-115 -39q-15 -5 -31.5 -9t-31 -10.5t-26 -17t-15.5 -26.5l-239 -1081q-4 -21 1.5 -31t23.5 -17l172 -56zM443 1642q-26 0 -49.5 8t-41 23t-28 37t-10.5 50
q0 31 10.5 54t28 38.5t41 23.5t49.5 8q30 0 55 -7t43 -21t27.5 -35.5t9.5 -50.5q0 -30 -10.5 -54t-28.5 -40.5t-42.5 -25t-53.5 -8.5zM905 1642q-26 0 -49.5 8t-41 23t-28 37t-10.5 50q0 31 10.5 54t28 38.5t41 23.5t49.5 8q30 0 55 -7t43 -21t27.5 -35.5t9.5 -50.5
q0 -30 -10.5 -54t-28.5 -40.5t-42.5 -25t-53.5 -8.5z" />
    <glyph glyph-name="Imacron" unicode="&#x12a;" horiz-adv-x="899" 
d="M653 0h-630l20 83l171 56q18 6 30 16t17 32l239 1081q4 20 -2.5 28.5t-22.5 15.5l-171 58l18 81h630l-18 -81l-115 -39q-15 -5 -31.5 -9t-31 -10.5t-26 -17t-15.5 -26.5l-239 -1081q-4 -21 1.5 -31t23.5 -17l172 -56zM1022 1702h-715l32 142h715z" />
    <glyph glyph-name="Ibreve" unicode="&#x12c;" horiz-adv-x="899" 
d="M653 0h-630l20 83l171 56q18 6 30 16t17 32l239 1081q4 20 -2.5 28.5t-22.5 15.5l-171 58l18 81h630l-18 -81l-115 -39q-15 -5 -31.5 -9t-31 -10.5t-26 -17t-15.5 -26.5l-239 -1081q-4 -21 1.5 -31t23.5 -17l172 -56zM652 1604q-149 0 -219 96t-66 296l88 14
q8 -54 19 -98.5t34 -77t63 -50.5t106 -18q64 0 110 17t81 49t62.5 77t54.5 101l84 -14q-62 -202 -165 -297t-252 -95z" />
    <glyph glyph-name="Idotaccent" unicode="&#x130;" horiz-adv-x="899" 
d="M653 0h-630l20 83l171 56q18 6 30 16t17 32l239 1081q4 20 -2.5 28.5t-22.5 15.5l-171 58l18 81h630l-18 -81l-115 -39q-15 -5 -31.5 -9t-31 -10.5t-26 -17t-15.5 -26.5l-239 -1081q-4 -21 1.5 -31t23.5 -17l172 -56zM678 1642q-29 0 -55.5 9t-46.5 25.5t-32 41t-12 56.5
q0 34 12 59.5t32 43t46.5 26t55.5 8.5q34 0 62 -7.5t48 -23.5t31 -39.5t11 -55.5q0 -34 -11.5 -60.5t-32 -45t-48.5 -28t-60 -9.5z" />
    <glyph glyph-name="uni1EC8" unicode="&#x1ec8;" horiz-adv-x="899" 
d="M653 0h-630l20 83l171 56q18 6 30 16t17 32l239 1081q4 20 -2.5 28.5t-22.5 15.5l-171 58l18 81h630l-18 -81l-115 -39q-15 -5 -31.5 -9t-31 -10.5t-26 -17t-15.5 -26.5l-239 -1081q-4 -21 1.5 -31t23.5 -17l172 -56zM753 2041q81 0 127.5 -31.5t46.5 -91.5
q0 -35 -12.5 -62.5t-32.5 -52t-44.5 -46.5t-48.5 -45.5t-44.5 -49.5t-32.5 -58l-6 -16h-124l8 24q12 36 31.5 63t41 49.5t44 42t40 40t29 44t11.5 53.5q0 10 -2.5 19t-8.5 16t-16 11t-25 4q-25 0 -49.5 -7.5t-47 -19t-41.5 -24.5t-34 -25h-45l24 112q12 5 33 13.5t48.5 17
t60.5 14.5t69 6z" />
    <glyph glyph-name="Iogonek" unicode="&#x12e;" horiz-adv-x="899" 
d="M309 -462q-59 0 -100 15.5t-66.5 40t-37 56t-11.5 64.5q0 46 17.5 86.5t46 75.5t65 66t74.5 58h-274l20 83l171 56q18 6 30 16t17 32l239 1081q5 20 -3.5 29.5t-21.5 14.5l-171 58l18 81h630l-18 -81l-115 -39q-15 -5 -31.5 -9t-31 -10.5t-26 -17t-15.5 -26.5l-239 -1081
q-5 -22 3 -32.5t22 -15.5l172 -56l-20 -83h-245q-31 -23 -58.5 -48.5t-48.5 -54.5t-33 -61t-12 -68q0 -21 7 -41.5t20.5 -36.5t34 -26t47.5 -10q26 0 55 9.5t54 21.5h17v-112q-48 -18 -97 -26.5t-85 -8.5z" />
    <glyph glyph-name="uni1ECA" unicode="&#x1eca;" horiz-adv-x="899" 
d="M653 0h-630l20 83l171 56q18 6 30 16t17 32l239 1081q4 20 -2.5 28.5t-22.5 15.5l-171 58l18 81h630l-18 -81l-115 -39q-15 -5 -31.5 -9t-31 -10.5t-26 -17t-15.5 -26.5l-239 -1081q-4 -21 1.5 -31t23.5 -17l172 -56zM298 -425q-26 0 -48 7t-38.5 20.5t-26 33t-9.5 44.5
q0 37 15.5 66t40.5 49t57 30t65 10q30 0 54 -6t41 -18.5t26 -31t9 -42.5q0 -37 -14.5 -67t-40 -51t-59.5 -32.5t-72 -11.5z" />
    <glyph glyph-name="IJ" unicode="&#x132;" horiz-adv-x="1792" 
d="M653 0h-630l20 83l171 56q18 6 30 16t17 32l239 1081q4 20 -2.5 28.5t-22.5 15.5l-171 58l18 81h630l-18 -81l-115 -39q-15 -5 -31.5 -9t-31 -10.5t-26 -17t-15.5 -26.5l-239 -1081q-4 -21 1.5 -31t23.5 -17l172 -56zM800 -418q-19 0 -46.5 2.5t-57 6t-57.5 8.5t-47 10
l42 210h59q21 -8 50 -17.5t59.5 -18t58.5 -14.5t48 -6q74 0 115 15.5t64 43.5q12 15 25.5 52t27.5 88.5t28 114.5t29 129l215 1062q3 10 -2 23.5t-25 20.5l-192 58l18 81h636l-18 -81l-159 -58q-17 -6 -28 -15t-15 -29l-211 -1049q-34 -165 -92 -285.5t-137 -198.5
t-177 -115.5t-211 -37.5z" />
    <glyph glyph-name="Jcircumflex" unicode="&#x134;" horiz-adv-x="893" 
d="M-99 -418q-19 0 -46.5 2.5t-57 6t-57.5 8.5t-47 10l42 210h59q21 -8 50 -17.5t59.5 -18t58.5 -14.5t48 -6q74 0 115 15.5t64 43.5q12 15 25.5 52t27.5 88.5t28 114.5t29 129l215 1062q3 10 -2 23.5t-25 20.5l-192 58l18 81h636l-18 -81l-159 -58q-17 -6 -28 -15t-15 -29
l-211 -1049q-34 -165 -92 -285.5t-137 -198.5t-177 -115.5t-211 -37.5zM666 1829l-336 -241l-53 30l275 307q18 20 34.5 37t33.5 29t35.5 18.5t40.5 6.5q44 0 69 -25.5t46 -64.5l164 -308l-67 -30z" />
    <glyph glyph-name="uni0136" unicode="&#x136;" horiz-adv-x="1571" 
d="M634 0h-610l19 83l162 56q17 6 29 16t17 32l239 1081q3 16 -1.5 26.5t-23.5 17.5l-162 58l19 81h610l-19 -81l-161 -58q-18 -7 -30 -15.5t-17 -28.5l-125 -564l690 604l-66 62l19 81h486l-19 -81q-43 -15 -85.5 -28.5t-85.5 -27.5q-19 -6 -43 -17t-47 -31l-523 -445
l341 -631q4 -7 9.5 -16t12.5 -17t14.5 -15t15.5 -10l146 -54l-18 -78h-473l18 78l70 52l-302 561l-181 -82l-93 -422q-4 -21 1.5 -31t24.5 -17l161 -56zM582 -547q37 26 62.5 46t43.5 38t30.5 36t22.5 41q-27 19 -46.5 34t-32 29.5t-18.5 30t-6 35.5q0 25 11 49t31 43.5
t48.5 31.5t63.5 12q31 0 54 -9.5t38.5 -27t23.5 -42t8 -55.5q0 -73 -27.5 -129.5t-69.5 -100.5t-92 -77t-94 -60z" />
    <glyph glyph-name="Lacute" unicode="&#x139;" horiz-adv-x="1374" 
d="M1182 0h-1158l19 83l162 56q14 5 27.5 15.5t18.5 32.5l239 1081q3 16 -2 26.5t-23 17.5l-161 58l17 81h610l-17 -81l-162 -58q-15 -6 -28.5 -15t-18.5 -29l-251 -1132h539q7 0 15 2.5t15.5 7t13.5 12t9 17.5l102 303h141zM439 1573l-50 45q59 78 103 138t77.5 104.5
t59.5 74.5t49 48.5t46 26.5t51 8q43 0 67 -25t24 -59q0 -22 -5.5 -38.5t-16 -31t-26.5 -28t-37 -29.5z" />
    <glyph glyph-name="Lcaron" unicode="&#x13d;" horiz-adv-x="1374" 
d="M1182 0h-1158l19 83l162 56q14 5 27.5 15.5t18.5 32.5l239 1081q3 16 -2 26.5t-23 17.5l-161 58l17 81h610l-17 -81l-162 -58q-15 -6 -28.5 -15t-18.5 -29l-251 -1132h539q7 0 15 2.5t15.5 7t13.5 12t9 17.5l102 303h141zM973 991q25 16 53 40t55 52t50 57t37 56
q-30 19 -51 33.5t-35 30t-20.5 34t-6.5 45.5q0 26 12 50.5t32 44t47 31.5t57 12q40 0 65.5 -18t40.5 -43.5t20.5 -55t5.5 -51.5q0 -51 -15.5 -95.5t-41 -83t-58.5 -71t-68 -59t-69 -47.5t-62 -37z" />
    <glyph glyph-name="uni013B" unicode="&#x13b;" horiz-adv-x="1374" 
d="M1182 0h-1158l19 83l162 56q14 5 27.5 15.5t18.5 32.5l239 1081q3 16 -2 26.5t-23 17.5l-161 58l17 81h610l-17 -81l-162 -58q-15 -6 -28.5 -15t-18.5 -29l-251 -1132h539q7 0 15 2.5t15.5 7t13.5 12t9 17.5l102 303h141zM520 -547q37 26 62.5 46t43.5 38t30.5 36
t22.5 41q-27 19 -46.5 34t-32 29.5t-18.5 30t-6 35.5q0 25 11 49t31 43.5t48.5 31.5t63.5 12q31 0 54 -9.5t38.5 -27t23.5 -42t8 -55.5q0 -73 -27.5 -129.5t-69.5 -100.5t-92 -77t-94 -60z" />
    <glyph glyph-name="Lslash" unicode="&#x141;" horiz-adv-x="1374" 
d="M1182 0h-1158l19 83l162 56q14 5 27.5 15.5t18.5 32.5l121 547l-217 -73l28 131l218 73l89 403q3 16 -2 26.5t-23 17.5l-161 58l17 81h610l-17 -81l-162 -58q-15 -6 -28.5 -15t-18.5 -29l-72 -325l487 165l-28 -132l-488 -165l-150 -675h539q7 0 15 2.5t15.5 7t13.5 12
t9 17.5l102 303h141z" />
    <glyph glyph-name="Ldot" unicode="&#x13f;" horiz-adv-x="1374" 
d="M1182 0h-1158l19 83l162 56q14 5 27.5 15.5t18.5 32.5l239 1081q3 16 -2 26.5t-23 17.5l-161 58l17 81h610l-17 -81l-162 -58q-15 -6 -28.5 -15t-18.5 -29l-251 -1132h539q7 0 15 2.5t15.5 7t13.5 12t9 17.5l102 303h141zM1082 735q-29 0 -55.5 9t-46.5 25.5t-32 41
t-12 56.5q0 34 12 59.5t32 43t46.5 26t55.5 8.5q34 0 62 -7.5t48 -23.5t31 -39.5t11 -55.5q0 -34 -11.5 -60.5t-32 -45t-48.5 -28t-60 -9.5z" />
    <glyph glyph-name="Nacute" unicode="&#x143;" horiz-adv-x="1796" 
d="M1338 -10h-120l-531 1095l-43 125h-21l-223 -1017q-2 -14 -1 -21.5t4 -12t8.5 -7t12.5 -5.5l157 -64l-18 -83h-538l18 83l164 64q17 7 29 15.5t17 30.5l237 1075q4 20 -2.5 29t-23.5 15l-166 58l19 81h421l489 -1011l43 -126h21l208 948q5 14 -4 25.5t-24 17.5l-157 65
l17 81h541l-17 -81l-164 -65q-14 -6 -27 -14.5t-18 -28.5l-230 -1042zM860 1573l-50 45q59 78 103 138t77.5 104.5t59.5 74.5t49 48.5t46 26.5t51 8q43 0 67 -25t24 -59q0 -22 -5.5 -38.5t-16 -31t-26.5 -28t-37 -29.5z" />
    <glyph glyph-name="Ncaron" unicode="&#x147;" horiz-adv-x="1796" 
d="M1338 -10h-120l-531 1095l-43 125h-21l-223 -1017q-2 -14 -1 -21.5t4 -12t8.5 -7t12.5 -5.5l157 -64l-18 -83h-538l18 83l164 64q17 7 29 15.5t17 30.5l237 1075q4 20 -2.5 29t-23.5 15l-166 58l19 81h421l489 -1011l43 -126h21l208 948q5 14 -4 25.5t-24 17.5l-157 65
l17 81h541l-17 -81l-164 -65q-14 -6 -27 -14.5t-18 -28.5l-230 -1042zM1060 1579q-44 0 -69.5 24.5t-45.5 65.5l-164 308l67 45l242 -256l336 256l53 -45l-275 -307q-37 -41 -68.5 -66t-75.5 -25z" />
    <glyph glyph-name="Ntilde" unicode="&#xd1;" horiz-adv-x="1796" 
d="M1338 -10h-120l-531 1095l-43 125h-21l-223 -1017q-2 -14 -1 -21.5t4 -12t8.5 -7t12.5 -5.5l157 -64l-18 -83h-538l18 83l164 64q17 7 29 15.5t17 30.5l237 1075q4 20 -2.5 29t-23.5 15l-166 58l19 81h421l489 -1011l43 -126h21l208 948q5 14 -4 25.5t-24 17.5l-157 65
l17 81h541l-17 -81l-164 -65q-14 -6 -27 -14.5t-18 -28.5l-230 -1042zM882 1624h-98q11 55 36.5 104t61 86t78.5 59t90 22q40 0 76 -15.5t70 -34t67.5 -34t68.5 -15.5q22 0 39.5 9t30.5 24.5t22.5 36t15.5 44.5h99q-11 -54 -35 -103t-58.5 -86t-77 -59t-90.5 -22
q-41 0 -75.5 16t-67.5 35t-66 35t-70 16q-45 0 -74.5 -35t-42.5 -83z" />
    <glyph glyph-name="uni0145" unicode="&#x145;" horiz-adv-x="1796" 
d="M1338 -10h-120l-531 1095l-43 125h-21l-223 -1017q-2 -14 -1 -21.5t4 -12t8.5 -7t12.5 -5.5l157 -64l-18 -83h-538l18 83l164 64q17 7 29 15.5t17 30.5l237 1075q4 20 -2.5 29t-23.5 15l-166 58l19 81h421l489 -1011l43 -126h21l208 948q5 14 -4 25.5t-24 17.5l-157 65
l17 81h541l-17 -81l-164 -65q-14 -6 -27 -14.5t-18 -28.5l-230 -1042zM644 -547q37 26 62.5 46t43.5 38t30.5 36t22.5 41q-27 19 -46.5 34t-32 29.5t-18.5 30t-6 35.5q0 25 11 49t31 43.5t48.5 31.5t63.5 12q31 0 54 -9.5t38.5 -27t23.5 -42t8 -55.5q0 -73 -27.5 -129.5
t-69.5 -100.5t-92 -77t-94 -60z" />
    <glyph glyph-name="Ograve" unicode="&#xd2;" horiz-adv-x="1647" 
d="M752 -34q-149 0 -262.5 40t-190 115t-116 184t-39.5 247q0 125 26.5 243t76.5 221.5t123 190t166 148t205 96t241 34.5q159 0 273.5 -43t189 -120.5t110 -184t35.5 -233.5q0 -108 -22.5 -219.5t-68 -215.5t-114.5 -196t-162.5 -160t-211 -107.5t-259.5 -39.5zM782 98
q94 0 173 33t142.5 90.5t111 135.5t79.5 168.5t48 189t16 196.5q0 104 -24.5 186t-74.5 139t-125.5 87t-178.5 30q-101 0 -182 -35t-144 -95.5t-108.5 -140.5t-75.5 -170t-44 -185t-14 -185q0 -105 25 -187.5t75 -139.5t125 -87t176 -30zM1217 1618l-63 -45l-307 234
q-10 8 -18.5 15.5t-16 14.5t-13.5 14t-11 14q-10 14 -14 29t-2 36q1 17 9 33t21 28t30.5 19.5t38.5 7.5t38.5 -4t33.5 -14t32 -27.5t35 -45.5z" />
    <glyph glyph-name="Oacute" unicode="&#xd3;" horiz-adv-x="1647" 
d="M752 -34q-149 0 -262.5 40t-190 115t-116 184t-39.5 247q0 125 26.5 243t76.5 221.5t123 190t166 148t205 96t241 34.5q159 0 273.5 -43t189 -120.5t110 -184t35.5 -233.5q0 -108 -22.5 -219.5t-68 -215.5t-114.5 -196t-162.5 -160t-211 -107.5t-259.5 -39.5zM782 98
q94 0 173 33t142.5 90.5t111 135.5t79.5 168.5t48 189t16 196.5q0 104 -24.5 186t-74.5 139t-125.5 87t-178.5 30q-101 0 -182 -35t-144 -95.5t-108.5 -140.5t-75.5 -170t-44 -185t-14 -185q0 -105 25 -187.5t75 -139.5t125 -87t176 -30zM837 1573l-50 45q59 78 103 138
t77.5 104.5t59.5 74.5t49 48.5t46 26.5t51 8q43 0 67 -25t24 -59q0 -22 -5.5 -38.5t-16 -31t-26.5 -28t-37 -29.5z" />
    <glyph glyph-name="Ocircumflex" unicode="&#xd4;" horiz-adv-x="1647" 
d="M752 -34q-149 0 -262.5 40t-190 115t-116 184t-39.5 247q0 125 26.5 243t76.5 221.5t123 190t166 148t205 96t241 34.5q159 0 273.5 -43t189 -120.5t110 -184t35.5 -233.5q0 -108 -22.5 -219.5t-68 -215.5t-114.5 -196t-162.5 -160t-211 -107.5t-259.5 -39.5zM782 98
q94 0 173 33t142.5 90.5t111 135.5t79.5 168.5t48 189t16 196.5q0 104 -24.5 186t-74.5 139t-125.5 87t-178.5 30q-101 0 -182 -35t-144 -95.5t-108.5 -140.5t-75.5 -170t-44 -185t-14 -185q0 -105 25 -187.5t75 -139.5t125 -87t176 -30zM1025 1829l-336 -241l-53 30
l275 307q18 20 34.5 37t33.5 29t35.5 18.5t40.5 6.5q44 0 69 -25.5t46 -64.5l164 -308l-67 -30z" />
    <glyph glyph-name="uni1ED0" unicode="&#x1ed0;" horiz-adv-x="1647" 
d="M752 -34q-149 0 -262.5 40t-190 115t-116 184t-39.5 247q0 125 26.5 243t76.5 221.5t123 190t166 148t205 96t241 34.5q159 0 273.5 -43t189 -120.5t110 -184t35.5 -233.5q0 -108 -22.5 -219.5t-68 -215.5t-114.5 -196t-162.5 -160t-211 -107.5t-259.5 -39.5zM782 98
q94 0 173 33t142.5 90.5t111 135.5t79.5 168.5t48 189t16 196.5q0 104 -24.5 186t-74.5 139t-125.5 87t-178.5 30q-101 0 -182 -35t-144 -95.5t-108.5 -140.5t-75.5 -170t-44 -185t-14 -185q0 -105 25 -187.5t75 -139.5t125 -87t176 -30zM1025 1829l-336 -241l-53 30
l275 307q18 20 34.5 37t33.5 29t35.5 18.5t40.5 6.5q44 0 69 -25.5t46 -64.5l164 -308l-67 -30zM1312 1837l135 255q17 32 34 55.5t35 38.5t38 22.5t43 7.5q45 0 65.5 -21.5t20.5 -51.5q0 -19 -8 -38.5t-21.5 -38t-30 -36t-32.5 -31.5l-226 -198z" />
    <glyph glyph-name="uni1ED2" unicode="&#x1ed2;" horiz-adv-x="1647" 
d="M752 -34q-149 0 -262.5 40t-190 115t-116 184t-39.5 247q0 125 26.5 243t76.5 221.5t123 190t166 148t205 96t241 34.5q159 0 273.5 -43t189 -120.5t110 -184t35.5 -233.5q0 -108 -22.5 -219.5t-68 -215.5t-114.5 -196t-162.5 -160t-211 -107.5t-259.5 -39.5zM782 98
q94 0 173 33t142.5 90.5t111 135.5t79.5 168.5t48 189t16 196.5q0 104 -24.5 186t-74.5 139t-125.5 87t-178.5 30q-101 0 -182 -35t-144 -95.5t-108.5 -140.5t-75.5 -170t-44 -185t-14 -185q0 -105 25 -187.5t75 -139.5t125 -87t176 -30zM1025 1829l-336 -241l-53 30
l275 307q18 20 34.5 37t33.5 29t35.5 18.5t40.5 6.5q44 0 69 -25.5t46 -64.5l164 -308l-67 -30zM741 1842l-63 -45l-279 216q-15 12 -29 24t-24 25.5t-16 30t-6 37.5q0 19 7 35t19 27t29 17.5t38 6.5t38.5 -4t33.5 -14t32 -27.5t35 -45.5z" />
    <glyph glyph-name="uni1ED4" unicode="&#x1ed4;" horiz-adv-x="1647" 
d="M752 -34q-149 0 -262.5 40t-190 115t-116 184t-39.5 247q0 125 26.5 243t76.5 221.5t123 190t166 148t205 96t241 34.5q159 0 273.5 -43t189 -120.5t110 -184t35.5 -233.5q0 -108 -22.5 -219.5t-68 -215.5t-114.5 -196t-162.5 -160t-211 -107.5t-259.5 -39.5zM782 98
q94 0 173 33t142.5 90.5t111 135.5t79.5 168.5t48 189t16 196.5q0 104 -24.5 186t-74.5 139t-125.5 87t-178.5 30q-101 0 -182 -35t-144 -95.5t-108.5 -140.5t-75.5 -170t-44 -185t-14 -185q0 -105 25 -187.5t75 -139.5t125 -87t176 -30zM1495 2156q31 0 59 -6t49 -18.5
t33.5 -31.5t12.5 -44q0 -29 -11.5 -51.5t-29.5 -41.5t-39.5 -36.5t-41 -36.5t-35 -40.5t-21.5 -48.5l-3 -16h-110l5 23q10 45 36 74t53.5 53t49 47.5t21.5 57.5q0 19 -14.5 30t-39.5 11q-20 0 -38.5 -7t-35 -18t-30.5 -23.5t-26 -22.5h-36l21 105q10 4 27 11t39 13.5
t49 11.5t56 5zM1025 1829l-336 -241l-53 30l275 307q18 20 34.5 37t33.5 29t35.5 18.5t40.5 6.5q44 0 69 -25.5t46 -64.5l164 -308l-67 -30z" />
    <glyph glyph-name="uni1ED6" unicode="&#x1ed6;" horiz-adv-x="1647" 
d="M752 -34q-149 0 -262.5 40t-190 115t-116 184t-39.5 247q0 125 26.5 243t76.5 221.5t123 190t166 148t205 96t241 34.5q159 0 273.5 -43t189 -120.5t110 -184t35.5 -233.5q0 -108 -22.5 -219.5t-68 -215.5t-114.5 -196t-162.5 -160t-211 -107.5t-259.5 -39.5zM782 98
q94 0 173 33t142.5 90.5t111 135.5t79.5 168.5t48 189t16 196.5q0 104 -24.5 186t-74.5 139t-125.5 87t-178.5 30q-101 0 -182 -35t-144 -95.5t-108.5 -140.5t-75.5 -170t-44 -185t-14 -185q0 -105 25 -187.5t75 -139.5t125 -87t176 -30zM711 2008q18 49 46 92.5t65.5 76.5
t84 52.5t100.5 19.5q39 0 73.5 -11t67.5 -23.5t65.5 -23.5t67.5 -11q44 0 72.5 24.5t45.5 59.5h99q-16 -48 -43 -91.5t-63.5 -76.5t-82.5 -52.5t-100 -19.5q-39 0 -73 11t-66 24.5t-65 25t-70 11.5q-45 0 -77 -26t-49 -62h-98zM1024 1809l-336 -221l-53 30l275 292
q36 38 68 62t76 24t69 -24t46 -61l164 -293l-67 -30z" />
    <glyph glyph-name="Otilde" unicode="&#xd5;" horiz-adv-x="1647" 
d="M752 -34q-149 0 -262.5 40t-190 115t-116 184t-39.5 247q0 125 26.5 243t76.5 221.5t123 190t166 148t205 96t241 34.5q159 0 273.5 -43t189 -120.5t110 -184t35.5 -233.5q0 -108 -22.5 -219.5t-68 -215.5t-114.5 -196t-162.5 -160t-211 -107.5t-259.5 -39.5zM782 98
q94 0 173 33t142.5 90.5t111 135.5t79.5 168.5t48 189t16 196.5q0 104 -24.5 186t-74.5 139t-125.5 87t-178.5 30q-101 0 -182 -35t-144 -95.5t-108.5 -140.5t-75.5 -170t-44 -185t-14 -185q0 -105 25 -187.5t75 -139.5t125 -87t176 -30zM750 1624h-98q11 55 36.5 104t61 86
t78.5 59t90 22q40 0 76 -15.5t70 -34t67.5 -34t68.5 -15.5q22 0 39.5 9t30.5 24.5t22.5 36t15.5 44.5h99q-11 -54 -35 -103t-58.5 -86t-77 -59t-90.5 -22q-41 0 -75.5 16t-67.5 35t-66 35t-70 16q-45 0 -74.5 -35t-42.5 -83z" />
    <glyph glyph-name="Odieresis" unicode="&#xd6;" horiz-adv-x="1647" 
d="M752 -34q-149 0 -262.5 40t-190 115t-116 184t-39.5 247q0 125 26.5 243t76.5 221.5t123 190t166 148t205 96t241 34.5q159 0 273.5 -43t189 -120.5t110 -184t35.5 -233.5q0 -108 -22.5 -219.5t-68 -215.5t-114.5 -196t-162.5 -160t-211 -107.5t-259.5 -39.5zM782 98
q94 0 173 33t142.5 90.5t111 135.5t79.5 168.5t48 189t16 196.5q0 104 -24.5 186t-74.5 139t-125.5 87t-178.5 30q-101 0 -182 -35t-144 -95.5t-108.5 -140.5t-75.5 -170t-44 -185t-14 -185q0 -105 25 -187.5t75 -139.5t125 -87t176 -30zM780 1642q-26 0 -49.5 8t-41 23
t-28 37t-10.5 50q0 31 10.5 54t28 38.5t41 23.5t49.5 8q30 0 55 -7t43 -21t27.5 -35.5t9.5 -50.5q0 -30 -10.5 -54t-28.5 -40.5t-42.5 -25t-53.5 -8.5zM1242 1642q-26 0 -49.5 8t-41 23t-28 37t-10.5 50q0 31 10.5 54t28 38.5t41 23.5t49.5 8q30 0 55 -7t43 -21t27.5 -35.5
t9.5 -50.5q0 -30 -10.5 -54t-28.5 -40.5t-42.5 -25t-53.5 -8.5z" />
    <glyph glyph-name="Omacron" unicode="&#x14c;" horiz-adv-x="1647" 
d="M752 -34q-149 0 -262.5 40t-190 115t-116 184t-39.5 247q0 125 26.5 243t76.5 221.5t123 190t166 148t205 96t241 34.5q159 0 273.5 -43t189 -120.5t110 -184t35.5 -233.5q0 -108 -22.5 -219.5t-68 -215.5t-114.5 -196t-162.5 -160t-211 -107.5t-259.5 -39.5zM782 98
q94 0 173 33t142.5 90.5t111 135.5t79.5 168.5t48 189t16 196.5q0 104 -24.5 186t-74.5 139t-125.5 87t-178.5 30q-101 0 -182 -35t-144 -95.5t-108.5 -140.5t-75.5 -170t-44 -185t-14 -185q0 -105 25 -187.5t75 -139.5t125 -87t176 -30zM1354 1702h-715l32 142h715z" />
    <glyph glyph-name="Obreve" unicode="&#x14e;" horiz-adv-x="1647" 
d="M752 -34q-149 0 -262.5 40t-190 115t-116 184t-39.5 247q0 125 26.5 243t76.5 221.5t123 190t166 148t205 96t241 34.5q159 0 273.5 -43t189 -120.5t110 -184t35.5 -233.5q0 -108 -22.5 -219.5t-68 -215.5t-114.5 -196t-162.5 -160t-211 -107.5t-259.5 -39.5zM782 98
q94 0 173 33t142.5 90.5t111 135.5t79.5 168.5t48 189t16 196.5q0 104 -24.5 186t-74.5 139t-125.5 87t-178.5 30q-101 0 -182 -35t-144 -95.5t-108.5 -140.5t-75.5 -170t-44 -185t-14 -185q0 -105 25 -187.5t75 -139.5t125 -87t176 -30zM996 1604q-149 0 -219 96t-66 296
l88 14q8 -54 19 -98.5t34 -77t63 -50.5t106 -18q64 0 110 17t81 49t62.5 77t54.5 101l84 -14q-62 -202 -165 -297t-252 -95z" />
    <glyph glyph-name="Ohungarumlaut" unicode="&#x150;" horiz-adv-x="1647" 
d="M752 -34q-149 0 -262.5 40t-190 115t-116 184t-39.5 247q0 125 26.5 243t76.5 221.5t123 190t166 148t205 96t241 34.5q159 0 273.5 -43t189 -120.5t110 -184t35.5 -233.5q0 -108 -22.5 -219.5t-68 -215.5t-114.5 -196t-162.5 -160t-211 -107.5t-259.5 -39.5zM782 98
q94 0 173 33t142.5 90.5t111 135.5t79.5 168.5t48 189t16 196.5q0 104 -24.5 186t-74.5 139t-125.5 87t-178.5 30q-101 0 -182 -35t-144 -95.5t-108.5 -140.5t-75.5 -170t-44 -185t-14 -185q0 -105 25 -187.5t75 -139.5t125 -87t176 -30zM737 1618q47 76 81 135.5t60 104
t46.5 75t39.5 49.5t40 27.5t49 8.5q18 0 34 -7t28.5 -18.5t19.5 -27t7 -32.5q0 -22 -4.5 -38.5t-13.5 -30.5t-22.5 -28t-30.5 -30q-35 -33 -69.5 -60.5t-68.5 -53l-68 -51t-69 -53.5zM1112 1618q65 92 108 166t77 126t66 80t77 28q18 0 34 -7t28.5 -18.5t19.5 -27t7 -32.5
q0 -22 -4.5 -39t-13.5 -32t-22.5 -29t-31.5 -29q-37 -31 -73 -58t-72 -52.5t-71 -51.5t-70 -54z" />
    <glyph glyph-name="uni1ECE" unicode="&#x1ece;" horiz-adv-x="1647" 
d="M752 -34q-149 0 -262.5 40t-190 115t-116 184t-39.5 247q0 125 26.5 243t76.5 221.5t123 190t166 148t205 96t241 34.5q159 0 273.5 -43t189 -120.5t110 -184t35.5 -233.5q0 -108 -22.5 -219.5t-68 -215.5t-114.5 -196t-162.5 -160t-211 -107.5t-259.5 -39.5zM782 98
q94 0 173 33t142.5 90.5t111 135.5t79.5 168.5t48 189t16 196.5q0 104 -24.5 186t-74.5 139t-125.5 87t-178.5 30q-101 0 -182 -35t-144 -95.5t-108.5 -140.5t-75.5 -170t-44 -185t-14 -185q0 -105 25 -187.5t75 -139.5t125 -87t176 -30zM1097 2041q81 0 127.5 -31.5
t46.5 -91.5q0 -35 -12.5 -62.5t-32.5 -52t-44.5 -46.5t-48.5 -45.5t-44.5 -49.5t-32.5 -58l-6 -16h-124l8 24q12 36 31.5 63t41 49.5t44 42t40 40t29 44t11.5 53.5q0 10 -2.5 19t-8.5 16t-16 11t-25 4q-25 0 -49.5 -7.5t-47 -19t-41.5 -24.5t-34 -25h-45l24 112
q12 5 33 13.5t48.5 17t60.5 14.5t69 6z" />
    <glyph glyph-name="uni1ECC" unicode="&#x1ecc;" horiz-adv-x="1647" 
d="M752 -34q-149 0 -262.5 40t-190 115t-116 184t-39.5 247q0 125 26.5 243t76.5 221.5t123 190t166 148t205 96t241 34.5q159 0 273.5 -43t189 -120.5t110 -184t35.5 -233.5q0 -108 -22.5 -219.5t-68 -215.5t-114.5 -196t-162.5 -160t-211 -107.5t-259.5 -39.5zM782 98
q94 0 173 33t142.5 90.5t111 135.5t79.5 168.5t48 189t16 196.5q0 104 -24.5 186t-74.5 139t-125.5 87t-178.5 30q-101 0 -182 -35t-144 -95.5t-108.5 -140.5t-75.5 -170t-44 -185t-14 -185q0 -105 25 -187.5t75 -139.5t125 -87t176 -30zM668 -425q-26 0 -48 7t-38.5 20.5
t-26 33t-9.5 44.5q0 37 15.5 66t40.5 49t57 30t65 10q30 0 54 -6t41 -18.5t26 -31t9 -42.5q0 -37 -14.5 -67t-40 -51t-59.5 -32.5t-72 -11.5z" />
    <glyph glyph-name="uni1ED8" unicode="&#x1ed8;" horiz-adv-x="1647" 
d="M752 -34q-149 0 -262.5 40t-190 115t-116 184t-39.5 247q0 125 26.5 243t76.5 221.5t123 190t166 148t205 96t241 34.5q159 0 273.5 -43t189 -120.5t110 -184t35.5 -233.5q0 -108 -22.5 -219.5t-68 -215.5t-114.5 -196t-162.5 -160t-211 -107.5t-259.5 -39.5zM782 98
q94 0 173 33t142.5 90.5t111 135.5t79.5 168.5t48 189t16 196.5q0 104 -24.5 186t-74.5 139t-125.5 87t-178.5 30q-101 0 -182 -35t-144 -95.5t-108.5 -140.5t-75.5 -170t-44 -185t-14 -185q0 -105 25 -187.5t75 -139.5t125 -87t176 -30zM668 -425q-26 0 -48 7t-38.5 20.5
t-26 33t-9.5 44.5q0 37 15.5 66t40.5 49t57 30t65 10q30 0 54 -6t41 -18.5t26 -31t9 -42.5q0 -37 -14.5 -67t-40 -51t-59.5 -32.5t-72 -11.5zM1025 1829l-336 -241l-53 30l275 307q18 20 34.5 37t33.5 29t35.5 18.5t40.5 6.5q44 0 69 -25.5t46 -64.5l164 -308l-67 -30z" />
    <glyph glyph-name="Ohorn" unicode="&#x1a0;" horiz-adv-x="1831" 
d="M1727 1451h211q2 -11 3.5 -23.5t2.5 -24.5t1.5 -23.5t0.5 -21.5q0 -78 -32 -133.5t-84 -92.5t-118 -59.5t-133 -34.5q5 -32 8 -65.5t3 -68.5q0 -108 -22.5 -219.5t-68 -215.5t-114.5 -196t-162.5 -160t-211 -107.5t-259.5 -39.5q-149 0 -262.5 40t-190 115t-116 184
t-39.5 247q0 125 26.5 243t76.5 221.5t123 190t166 148t205 96t241 34.5q117 0 210 -24t163.5 -68t119 -106.5t76.5 -139.5q67 16 105 35.5t57 42t23 47.5t4 52q0 31 -7.5 56.5t-12.5 41.5zM782 98q94 0 173 33t142.5 90.5t111 135.5t79.5 168.5t48 189t16 196.5
q0 104 -24.5 186t-74.5 139t-125.5 87t-178.5 30q-101 0 -182 -35t-144 -95.5t-108.5 -140.5t-75.5 -170t-44 -185t-14 -185q0 -105 25 -187.5t75 -139.5t125 -87t176 -30z" />
    <glyph glyph-name="uni1EDA" unicode="&#x1eda;" horiz-adv-x="1831" 
d="M837 1573l-50 45q59 78 103 138t77.5 104.5t59.5 74.5t49 48.5t46 26.5t51 8q43 0 67 -25t24 -59q0 -22 -5.5 -38.5t-16 -31t-26.5 -28t-37 -29.5zM1727 1451h211q2 -11 3.5 -23.5t2.5 -24.5t1.5 -23.5t0.5 -21.5q0 -78 -32 -133.5t-84 -92.5t-118 -59.5t-133 -34.5
q5 -32 8 -65.5t3 -68.5q0 -108 -22.5 -219.5t-68 -215.5t-114.5 -196t-162.5 -160t-211 -107.5t-259.5 -39.5q-149 0 -262.5 40t-190 115t-116 184t-39.5 247q0 125 26.5 243t76.5 221.5t123 190t166 148t205 96t241 34.5q117 0 210 -24t163.5 -68t119 -106.5t76.5 -139.5
q67 16 105 35.5t57 42t23 47.5t4 52q0 31 -7.5 56.5t-12.5 41.5zM782 98q94 0 173 33t142.5 90.5t111 135.5t79.5 168.5t48 189t16 196.5q0 104 -24.5 186t-74.5 139t-125.5 87t-178.5 30q-101 0 -182 -35t-144 -95.5t-108.5 -140.5t-75.5 -170t-44 -185t-14 -185
q0 -105 25 -187.5t75 -139.5t125 -87t176 -30z" />
    <glyph glyph-name="uni1EDC" unicode="&#x1edc;" horiz-adv-x="1831" 
d="M1217 1618l-63 -45l-307 234q-10 8 -18.5 15.5t-16 14.5t-13.5 14t-11 14q-10 14 -14 29t-2 36q1 17 9 33t21 28t30.5 19.5t38.5 7.5t38.5 -4t33.5 -14t32 -27.5t35 -45.5zM1727 1451h211q2 -11 3.5 -23.5t2.5 -24.5t1.5 -23.5t0.5 -21.5q0 -78 -32 -133.5t-84 -92.5
t-118 -59.5t-133 -34.5q5 -32 8 -65.5t3 -68.5q0 -108 -22.5 -219.5t-68 -215.5t-114.5 -196t-162.5 -160t-211 -107.5t-259.5 -39.5q-149 0 -262.5 40t-190 115t-116 184t-39.5 247q0 125 26.5 243t76.5 221.5t123 190t166 148t205 96t241 34.5q117 0 210 -24t163.5 -68
t119 -106.5t76.5 -139.5q67 16 105 35.5t57 42t23 47.5t4 52q0 31 -7.5 56.5t-12.5 41.5zM782 98q94 0 173 33t142.5 90.5t111 135.5t79.5 168.5t48 189t16 196.5q0 104 -24.5 186t-74.5 139t-125.5 87t-178.5 30q-101 0 -182 -35t-144 -95.5t-108.5 -140.5t-75.5 -170
t-44 -185t-14 -185q0 -105 25 -187.5t75 -139.5t125 -87t176 -30z" />
    <glyph glyph-name="uni1EDE" unicode="&#x1ede;" horiz-adv-x="1831" 
d="M1097 2041q81 0 127.5 -31.5t46.5 -91.5q0 -35 -12.5 -62.5t-32.5 -52t-44.5 -46.5t-48.5 -45.5t-44.5 -49.5t-32.5 -58l-6 -16h-124l8 24q12 36 31.5 63t41 49.5t44 42t40 40t29 44t11.5 53.5q0 10 -2.5 19t-8.5 16t-16 11t-25 4q-25 0 -49.5 -7.5t-47 -19t-41.5 -24.5
t-34 -25h-45l24 112q12 5 33 13.5t48.5 17t60.5 14.5t69 6zM1727 1451h211q2 -11 3.5 -23.5t2.5 -24.5t1.5 -23.5t0.5 -21.5q0 -78 -32 -133.5t-84 -92.5t-118 -59.5t-133 -34.5q5 -32 8 -65.5t3 -68.5q0 -108 -22.5 -219.5t-68 -215.5t-114.5 -196t-162.5 -160t-211 -107.5
t-259.5 -39.5q-149 0 -262.5 40t-190 115t-116 184t-39.5 247q0 125 26.5 243t76.5 221.5t123 190t166 148t205 96t241 34.5q117 0 210 -24t163.5 -68t119 -106.5t76.5 -139.5q67 16 105 35.5t57 42t23 47.5t4 52q0 31 -7.5 56.5t-12.5 41.5zM782 98q94 0 173 33t142.5 90.5
t111 135.5t79.5 168.5t48 189t16 196.5q0 104 -24.5 186t-74.5 139t-125.5 87t-178.5 30q-101 0 -182 -35t-144 -95.5t-108.5 -140.5t-75.5 -170t-44 -185t-14 -185q0 -105 25 -187.5t75 -139.5t125 -87t176 -30z" />
    <glyph glyph-name="uni1EE0" unicode="&#x1ee0;" horiz-adv-x="1831" 
d="M750 1624h-98q11 55 36.5 104t61 86t78.5 59t90 22q40 0 76 -15.5t70 -34t67.5 -34t68.5 -15.5q22 0 39.5 9t30.5 24.5t22.5 36t15.5 44.5h99q-11 -54 -35 -103t-58.5 -86t-77 -59t-90.5 -22q-41 0 -75.5 16t-67.5 35t-66 35t-70 16q-45 0 -74.5 -35t-42.5 -83z
M1727 1451h211q2 -11 3.5 -23.5t2.5 -24.5t1.5 -23.5t0.5 -21.5q0 -78 -32 -133.5t-84 -92.5t-118 -59.5t-133 -34.5q5 -32 8 -65.5t3 -68.5q0 -108 -22.5 -219.5t-68 -215.5t-114.5 -196t-162.5 -160t-211 -107.5t-259.5 -39.5q-149 0 -262.5 40t-190 115t-116 184
t-39.5 247q0 125 26.5 243t76.5 221.5t123 190t166 148t205 96t241 34.5q117 0 210 -24t163.5 -68t119 -106.5t76.5 -139.5q67 16 105 35.5t57 42t23 47.5t4 52q0 31 -7.5 56.5t-12.5 41.5zM782 98q94 0 173 33t142.5 90.5t111 135.5t79.5 168.5t48 189t16 196.5
q0 104 -24.5 186t-74.5 139t-125.5 87t-178.5 30q-101 0 -182 -35t-144 -95.5t-108.5 -140.5t-75.5 -170t-44 -185t-14 -185q0 -105 25 -187.5t75 -139.5t125 -87t176 -30z" />
    <glyph glyph-name="uni1EE2" unicode="&#x1ee2;" horiz-adv-x="1831" 
d="M668 -425q-26 0 -48 7t-38.5 20.5t-26 33t-9.5 44.5q0 37 15.5 66t40.5 49t57 30t65 10q30 0 54 -6t41 -18.5t26 -31t9 -42.5q0 -37 -14.5 -67t-40 -51t-59.5 -32.5t-72 -11.5zM1727 1451h211q2 -11 3.5 -23.5t2.5 -24.5t1.5 -23.5t0.5 -21.5q0 -78 -32 -133.5t-84 -92.5
t-118 -59.5t-133 -34.5q5 -32 8 -65.5t3 -68.5q0 -108 -22.5 -219.5t-68 -215.5t-114.5 -196t-162.5 -160t-211 -107.5t-259.5 -39.5q-149 0 -262.5 40t-190 115t-116 184t-39.5 247q0 125 26.5 243t76.5 221.5t123 190t166 148t205 96t241 34.5q117 0 210 -24t163.5 -68
t119 -106.5t76.5 -139.5q67 16 105 35.5t57 42t23 47.5t4 52q0 31 -7.5 56.5t-12.5 41.5zM782 98q94 0 173 33t142.5 90.5t111 135.5t79.5 168.5t48 189t16 196.5q0 104 -24.5 186t-74.5 139t-125.5 87t-178.5 30q-101 0 -182 -35t-144 -95.5t-108.5 -140.5t-75.5 -170
t-44 -185t-14 -185q0 -105 25 -187.5t75 -139.5t125 -87t176 -30z" />
    <glyph glyph-name="Oslash" unicode="&#xd8;" horiz-adv-x="1647" 
d="M782 98q95 0 174 31.5t143 88t112 133t80 167t48.5 190.5t16.5 203q0 79 -12.5 146.5t-40.5 121.5l-818 -973q51 -54 124 -81t173 -27zM1246 1247q-51 52 -123 79t-174 27q-100 0 -181.5 -34t-145.5 -92.5t-110 -137.5t-76 -169t-44.5 -187t-14.5 -191q0 -79 12.5 -146
t39.5 -121zM217 -114h-122l205 241q-78 78 -117 185t-39 240q0 125 26.5 243t76.5 221.5t123 190t166 148t205 96t241 34.5q121 0 213.5 -27t164.5 -75l126 151h122l-176 -206q81 -81 119.5 -189t38.5 -235q0 -108 -22.5 -219.5t-68 -215.5t-114.5 -196t-162.5 -160
t-211 -107.5t-259.5 -39.5q-118 0 -212 27.5t-169 78.5z" />
    <glyph glyph-name="Oslashacute" unicode="&#x1fe;" horiz-adv-x="1647" 
d="M782 98q95 0 174 31.5t143 88t112 133t80 167t48.5 190.5t16.5 203q0 79 -12.5 146.5t-40.5 121.5l-818 -973q51 -54 124 -81t173 -27zM1246 1247q-51 52 -123 79t-174 27q-100 0 -181.5 -34t-145.5 -92.5t-110 -137.5t-76 -169t-44.5 -187t-14.5 -191q0 -79 12.5 -146
t39.5 -121zM217 -114h-122l205 241q-78 78 -117 185t-39 240q0 125 26.5 243t76.5 221.5t123 190t166 148t205 96t241 34.5q121 0 213.5 -27t164.5 -75l126 151h122l-176 -206q81 -81 119.5 -189t38.5 -235q0 -108 -22.5 -219.5t-68 -215.5t-114.5 -196t-162.5 -160
t-211 -107.5t-259.5 -39.5q-118 0 -212 27.5t-169 78.5zM835 1573l-50 45q59 78 103 138t77.5 104.5t59.5 74.5t49 48.5t46 26.5t51 8q43 0 67 -25t24 -59q0 -22 -5.5 -38.5t-16 -31t-26.5 -28t-37 -29.5z" />
    <glyph glyph-name="OE" unicode="&#x152;" horiz-adv-x="2264" 
d="M1014 134l264 1183h-276q-158 0 -275.5 -50.5t-195.5 -141t-117 -217.5t-39 -280q0 -115 32 -206.5t92.5 -155.5t147.5 -98t198 -34h169zM2018 0h-1247q-66 0 -138.5 11.5t-143 39t-134.5 71.5t-112.5 109.5t-77 153.5t-28.5 203q0 138 30 256t85.5 214t134.5 169.5
t177.5 123t214.5 75t245 25.5h1218l-81 -366h-137l12 192q2 19 -8 28.5t-26 9.5h-510l-110 -493h304q21 0 32.5 9t19.5 29l65 156h110l-117 -524h-110l4 155q1 20 -6.5 29.5t-28.5 9.5h-303l-121 -550h608q14 0 29 10.5t22 28.5l79 214h136z" />
    <glyph glyph-name="Racute" unicode="&#x154;" horiz-adv-x="1557" 
d="M793 759q94 0 163 29.5t114.5 77.5t67.5 109t22 124q0 49 -16 89t-51.5 68.5t-93 44.5t-141.5 16h-141l-122 -544q11 -2 37 -4.5t56.5 -4.5t59.5 -3.5t45 -1.5zM634 0h-610l19 83l163 56q17 6 28.5 16t16.5 32l239 1081q4 20 -2.5 28.5t-22.5 15.5l-161 58l17 81h591
q145 0 239.5 -26.5t149 -70.5t76 -100t21.5 -115q0 -70 -19.5 -129t-52.5 -108t-75.5 -87t-89.5 -66t-94 -47t-88 -28l256 -477q8 -16 24.5 -36t37.5 -26l174 -52l-19 -83h-232q-47 0 -74 5t-44 17t-28 31t-26 47q-15 29 -41.5 79t-57 108t-62 117.5t-57.5 108t-42 79
l-16 30.5l-202 40l-104 -475q-4 -21 2 -31t25 -17l160 -56zM662 1573l-50 45q59 78 103 138t77.5 104.5t59.5 74.5t49 48.5t46 26.5t51 8q43 0 67 -25t24 -59q0 -22 -5.5 -38.5t-16 -31t-26.5 -28t-37 -29.5z" />
    <glyph glyph-name="Rcaron" unicode="&#x158;" horiz-adv-x="1557" 
d="M793 759q94 0 163 29.5t114.5 77.5t67.5 109t22 124q0 49 -16 89t-51.5 68.5t-93 44.5t-141.5 16h-141l-122 -544q11 -2 37 -4.5t56.5 -4.5t59.5 -3.5t45 -1.5zM634 0h-610l19 83l163 56q17 6 28.5 16t16.5 32l239 1081q4 20 -2.5 28.5t-22.5 15.5l-161 58l17 81h591
q145 0 239.5 -26.5t149 -70.5t76 -100t21.5 -115q0 -70 -19.5 -129t-52.5 -108t-75.5 -87t-89.5 -66t-94 -47t-88 -28l256 -477q8 -16 24.5 -36t37.5 -26l174 -52l-19 -83h-232q-47 0 -74 5t-44 17t-28 31t-26 47q-15 29 -41.5 79t-57 108t-62 117.5t-57.5 108t-42 79
l-16 30.5l-202 40l-104 -475q-4 -21 2 -31t25 -17l160 -56zM862 1579q-44 0 -69.5 24.5t-45.5 65.5l-164 308l67 45l242 -256l336 256l53 -45l-275 -307q-37 -41 -68.5 -66t-75.5 -25z" />
    <glyph glyph-name="uni0156" unicode="&#x156;" horiz-adv-x="1557" 
d="M793 759q94 0 163 29.5t114.5 77.5t67.5 109t22 124q0 49 -16 89t-51.5 68.5t-93 44.5t-141.5 16h-141l-122 -544q11 -2 37 -4.5t56.5 -4.5t59.5 -3.5t45 -1.5zM634 0h-610l19 83l163 56q17 6 28.5 16t16.5 32l239 1081q4 20 -2.5 28.5t-22.5 15.5l-161 58l17 81h591
q145 0 239.5 -26.5t149 -70.5t76 -100t21.5 -115q0 -70 -19.5 -129t-52.5 -108t-75.5 -87t-89.5 -66t-94 -47t-88 -28l256 -477q8 -16 24.5 -36t37.5 -26l174 -52l-19 -83h-232q-47 0 -74 5t-44 17t-28 31t-26 47q-15 29 -41.5 79t-57 108t-62 117.5t-57.5 108t-42 79
l-16 30.5l-202 40l-104 -475q-4 -21 2 -31t25 -17l160 -56zM611 -547q37 26 62.5 46t43.5 38t30.5 36t22.5 41q-27 19 -46.5 34t-32 29.5t-18.5 30t-6 35.5q0 25 11 49t31 43.5t48.5 31.5t63.5 12q31 0 54 -9.5t38.5 -27t23.5 -42t8 -55.5q0 -73 -27.5 -129.5t-69.5 -100.5
t-92 -77t-94 -60z" />
    <glyph glyph-name="Sacute" unicode="&#x15a;" horiz-adv-x="1322" 
d="M543 -35q-54 0 -115 8.5t-124.5 23t-126.5 33t-120 38.5l86 390h138l-22 -222q-1 -14 11.5 -29.5t35 -30.5t53 -29.5t66 -25.5t73.5 -17.5t76 -6.5q91 0 163 19.5t122 56.5t77 91t27 123t-40 119.5t-112 85.5q-42 20 -83 36.5t-80.5 31.5t-78 30t-75.5 33
q-50 24 -91.5 55.5t-71.5 70.5t-47 85.5t-17 100.5q0 97 45.5 179.5t123 142.5t180.5 94t219 34q64 0 125.5 -7t119.5 -18t110.5 -24t98.5 -25l-85 -379h-137l21 209q1 9 -7 21t-23.5 24.5t-38 24t-52 21t-65.5 15t-77 5.5q-86 0 -150.5 -20t-108.5 -55.5t-66 -82.5
t-22 -101q0 -30 9 -59t29 -55t52.5 -50t80.5 -45q77 -35 154 -64t151 -65q41 -21 83 -48.5t76 -65t55.5 -85.5t21.5 -110q0 -87 -37 -173.5t-115.5 -154.5t-201 -110.5t-293.5 -42.5zM672 1573l-50 45q59 78 103 138t77.5 104.5t59.5 74.5t49 48.5t46 26.5t51 8q43 0 67 -25
t24 -59q0 -22 -5.5 -38.5t-16 -31t-26.5 -28t-37 -29.5z" />
    <glyph glyph-name="Scircumflex" unicode="&#x15c;" horiz-adv-x="1322" 
d="M543 -35q-54 0 -115 8.5t-124.5 23t-126.5 33t-120 38.5l86 390h138l-22 -222q-1 -14 11.5 -29.5t35 -30.5t53 -29.5t66 -25.5t73.5 -17.5t76 -6.5q91 0 163 19.5t122 56.5t77 91t27 123t-40 119.5t-112 85.5q-42 20 -83 36.5t-80.5 31.5t-78 30t-75.5 33
q-50 24 -91.5 55.5t-71.5 70.5t-47 85.5t-17 100.5q0 97 45.5 179.5t123 142.5t180.5 94t219 34q64 0 125.5 -7t119.5 -18t110.5 -24t98.5 -25l-85 -379h-137l21 209q1 9 -7 21t-23.5 24.5t-38 24t-52 21t-65.5 15t-77 5.5q-86 0 -150.5 -20t-108.5 -55.5t-66 -82.5
t-22 -101q0 -30 9 -59t29 -55t52.5 -50t80.5 -45q77 -35 154 -64t151 -65q41 -21 83 -48.5t76 -65t55.5 -85.5t21.5 -110q0 -87 -37 -173.5t-115.5 -154.5t-201 -110.5t-293.5 -42.5zM877 1829l-336 -241l-53 30l275 307q18 20 34.5 37t33.5 29t35.5 18.5t40.5 6.5
q44 0 69 -25.5t46 -64.5l164 -308l-67 -30z" />
    <glyph glyph-name="Scaron" unicode="&#x160;" horiz-adv-x="1322" 
d="M543 -35q-54 0 -115 8.5t-124.5 23t-126.5 33t-120 38.5l86 390h138l-22 -222q-1 -14 11.5 -29.5t35 -30.5t53 -29.5t66 -25.5t73.5 -17.5t76 -6.5q91 0 163 19.5t122 56.5t77 91t27 123t-40 119.5t-112 85.5q-42 20 -83 36.5t-80.5 31.5t-78 30t-75.5 33
q-50 24 -91.5 55.5t-71.5 70.5t-47 85.5t-17 100.5q0 97 45.5 179.5t123 142.5t180.5 94t219 34q64 0 125.5 -7t119.5 -18t110.5 -24t98.5 -25l-85 -379h-137l21 209q1 9 -7 21t-23.5 24.5t-38 24t-52 21t-65.5 15t-77 5.5q-86 0 -150.5 -20t-108.5 -55.5t-66 -82.5
t-22 -101q0 -30 9 -59t29 -55t52.5 -50t80.5 -45q77 -35 154 -64t151 -65q41 -21 83 -48.5t76 -65t55.5 -85.5t21.5 -110q0 -87 -37 -173.5t-115.5 -154.5t-201 -110.5t-293.5 -42.5zM838 1579q-44 0 -69.5 24.5t-45.5 65.5l-164 308l67 45l242 -256l336 256l53 -45
l-275 -307q-37 -41 -68.5 -66t-75.5 -25z" />
    <glyph glyph-name="Scedilla" unicode="&#x15e;" horiz-adv-x="1322" 
d="M485 -501q-72 0 -122.5 17t-87.5 36l19 99h28q26 -19 70.5 -37.5t99.5 -18.5q69 0 106 29t37 77q0 45 -38.5 63.5t-125.5 18.5l37 183q-52 3 -109 12t-115.5 23t-116.5 31.5t-110 35.5l86 390h138l-22 -222q-2 -20 26 -44.5t73.5 -45.5t102 -35t113.5 -14q91 0 163 19.5
t122 56.5t77 91t27 123t-40 119.5t-112 85.5q-42 20 -83 36.5t-80.5 31.5t-78 30t-75.5 33q-50 24 -91.5 55.5t-71.5 70.5t-47 85.5t-17 100.5q0 97 45.5 179.5t123 142.5t180.5 94t219 34q64 0 125.5 -7t119.5 -18t110.5 -24t98.5 -25l-85 -379h-137l21 209q1 14 -16.5 33
t-52 36.5t-84 29.5t-110.5 12q-86 0 -150.5 -20t-108.5 -55.5t-66 -82.5t-22 -101q0 -61 38 -114t133 -95q78 -35 154 -64t151 -65q41 -21 83 -48.5t76 -65t55.5 -85.5t21.5 -110q0 -84 -34 -166.5t-105.5 -149.5t-183 -111.5t-266.5 -51.5l-17 -76q39 0 76.5 -8.5
t66.5 -26.5t46.5 -46t17.5 -68q0 -59 -23.5 -104t-65 -76t-97.5 -47t-120 -16z" />
    <glyph glyph-name="uni0218" unicode="&#x218;" horiz-adv-x="1322" 
d="M543 -35q-54 0 -115 8.5t-124.5 23t-126.5 33t-120 38.5l86 390h138l-22 -222q-1 -14 11.5 -29.5t35 -30.5t53 -29.5t66 -25.5t73.5 -17.5t76 -6.5q91 0 163 19.5t122 56.5t77 91t27 123t-40 119.5t-112 85.5q-42 20 -83 36.5t-80.5 31.5t-78 30t-75.5 33
q-50 24 -91.5 55.5t-71.5 70.5t-47 85.5t-17 100.5q0 97 45.5 179.5t123 142.5t180.5 94t219 34q64 0 125.5 -7t119.5 -18t110.5 -24t98.5 -25l-85 -379h-137l21 209q1 9 -7 21t-23.5 24.5t-38 24t-52 21t-65.5 15t-77 5.5q-86 0 -150.5 -20t-108.5 -55.5t-66 -82.5
t-22 -101q0 -30 9 -59t29 -55t52.5 -50t80.5 -45q77 -35 154 -64t151 -65q41 -21 83 -48.5t76 -65t55.5 -85.5t21.5 -110q0 -87 -37 -173.5t-115.5 -154.5t-201 -110.5t-293.5 -42.5zM354 -547q37 26 62.5 46t43.5 38t30.5 36t22.5 41q-27 19 -46.5 34t-32 29.5t-18.5 30
t-6 35.5q0 25 11 49t31 43.5t48.5 31.5t63.5 12q31 0 54 -9.5t38.5 -27t23.5 -42t8 -55.5q0 -73 -27.5 -129.5t-69.5 -100.5t-92 -77t-94 -60z" />
    <glyph glyph-name="Tcaron" unicode="&#x164;" horiz-adv-x="1463" 
d="M936 0h-627l18 83l171 56q18 6 29.5 16t16.5 32l250 1130h-336q-16 0 -30 -10t-21 -28l-78 -214h-136l86 386h1304l-86 -386h-137l18 214q2 20 -9 29t-25 9h-335l-250 -1130q-4 -20 2 -31t24 -17l169 -56zM922 1579q-44 0 -69.5 24.5t-45.5 65.5l-164 308l67 45l242 -256
l336 256l53 -45l-275 -307q-37 -41 -68.5 -66t-75.5 -25z" />
    <glyph glyph-name="uni0162" unicode="&#x162;" horiz-adv-x="1463" 
d="M544 -501q-72 0 -122.5 17t-87.5 36l19 99h28q26 -19 70.5 -37.5t99.5 -18.5q69 0 106 29t37 77q0 45 -38.5 63.5t-125.5 18.5l43 217h-264l18 83l171 56q18 6 29.5 16t16.5 32l250 1130h-336q-16 0 -30 -10t-21 -28l-78 -214h-136l86 386h1304l-86 -386h-137l18 214
q2 20 -9 29t-25 9h-335l-250 -1130q-4 -20 2 -31t24 -17l169 -56l-18 -83h-269l-24 -109q39 0 76.5 -8.5t66.5 -26.5t46.5 -46t17.5 -68q0 -59 -23.5 -104t-65 -76t-97.5 -47t-120 -16z" />
    <glyph glyph-name="uni021A" unicode="&#x21a;" horiz-adv-x="1463" 
d="M936 0h-627l18 83l171 56q18 6 29.5 16t16.5 32l250 1130h-336q-16 0 -30 -10t-21 -28l-78 -214h-136l86 386h1304l-86 -386h-137l18 214q2 20 -9 29t-25 9h-335l-250 -1130q-4 -20 2 -31t24 -17l169 -56zM403 -547q37 26 62.5 46t43.5 38t30.5 36t22.5 41
q-27 19 -46.5 34t-32 29.5t-18.5 30t-6 35.5q0 25 11 49t31 43.5t48.5 31.5t63.5 12q31 0 54 -9.5t38.5 -27t23.5 -42t8 -55.5q0 -73 -27.5 -129.5t-69.5 -100.5t-92 -77t-94 -60z" />
    <glyph glyph-name="Tbar" unicode="&#x166;" horiz-adv-x="1463" 
d="M936 0h-627l18 83l171 56q18 6 29.5 16t16.5 32l110 499h-334l30 136h334l110 495h-336q-16 0 -30 -10t-21 -28l-78 -214h-136l86 386h1304l-86 -386h-137l18 214q2 20 -9 29t-25 9h-335l-110 -495h333l-30 -136h-333l-110 -499q-4 -20 2 -31t24 -17l169 -56z" />
    <glyph glyph-name="Ugrave" unicode="&#xd9;" horiz-adv-x="1732" 
d="M774 -35q-126 0 -221 31t-158.5 82.5t-95.5 118t-32 137.5q0 19 2 40.5t5.5 43t7.5 41.5t8 37l171 772q4 20 -2.5 28.5t-25.5 15.5l-158 58l18 81h609l-18 -81l-162 -58q-14 -5 -27 -14.5t-18 -29.5q-39 -173 -76 -343t-76 -343q-3 -13 -6.5 -33t-7 -42t-5.5 -43.5
t-2 -38.5q0 -52 13.5 -105.5t49 -97t97 -71t157.5 -27.5q78 0 139.5 18.5t109 50t82 71.5t58.5 83t39 85.5t23 78.5l165 751q4 10 -3 23.5t-22 19.5l-158 65l18 81h539l-18 -81l-163 -65q-16 -6 -28 -14.5t-17 -28.5l-181 -820q-19 -85 -57.5 -153t-90 -121t-112 -91.5
t-124.5 -63t-127 -36.5t-119 -12zM1229 1618l-63 -45l-307 234q-10 8 -18.5 15.5t-16 14.5t-13.5 14t-11 14q-10 14 -14 29t-2 36q1 17 9 33t21 28t30.5 19.5t38.5 7.5t38.5 -4t33.5 -14t32 -27.5t35 -45.5z" />
    <glyph glyph-name="Uacute" unicode="&#xda;" horiz-adv-x="1732" 
d="M774 -35q-126 0 -221 31t-158.5 82.5t-95.5 118t-32 137.5q0 19 2 40.5t5.5 43t7.5 41.5t8 37l171 772q4 20 -2.5 28.5t-25.5 15.5l-158 58l18 81h609l-18 -81l-162 -58q-14 -5 -27 -14.5t-18 -29.5q-39 -173 -76 -343t-76 -343q-3 -13 -6.5 -33t-7 -42t-5.5 -43.5
t-2 -38.5q0 -52 13.5 -105.5t49 -97t97 -71t157.5 -27.5q78 0 139.5 18.5t109 50t82 71.5t58.5 83t39 85.5t23 78.5l165 751q4 10 -3 23.5t-22 19.5l-158 65l18 81h539l-18 -81l-163 -65q-16 -6 -28 -14.5t-17 -28.5l-181 -820q-19 -85 -57.5 -153t-90 -121t-112 -91.5
t-124.5 -63t-127 -36.5t-119 -12zM928 1573l-50 45q59 78 103 138t77.5 104.5t59.5 74.5t49 48.5t46 26.5t51 8q43 0 67 -25t24 -59q0 -22 -5.5 -38.5t-16 -31t-26.5 -28t-37 -29.5z" />
    <glyph glyph-name="Ucircumflex" unicode="&#xdb;" horiz-adv-x="1732" 
d="M774 -35q-126 0 -221 31t-158.5 82.5t-95.5 118t-32 137.5q0 19 2 40.5t5.5 43t7.5 41.5t8 37l171 772q4 20 -2.5 28.5t-25.5 15.5l-158 58l18 81h609l-18 -81l-162 -58q-14 -5 -27 -14.5t-18 -29.5q-39 -173 -76 -343t-76 -343q-3 -13 -6.5 -33t-7 -42t-5.5 -43.5
t-2 -38.5q0 -52 13.5 -105.5t49 -97t97 -71t157.5 -27.5q78 0 139.5 18.5t109 50t82 71.5t58.5 83t39 85.5t23 78.5l165 751q4 10 -3 23.5t-22 19.5l-158 65l18 81h539l-18 -81l-163 -65q-16 -6 -28 -14.5t-17 -28.5l-181 -820q-19 -85 -57.5 -153t-90 -121t-112 -91.5
t-124.5 -63t-127 -36.5t-119 -12zM1101 1829l-336 -241l-53 30l275 307q18 20 34.5 37t33.5 29t35.5 18.5t40.5 6.5q44 0 69 -25.5t46 -64.5l164 -308l-67 -30z" />
    <glyph glyph-name="Utilde" unicode="&#x168;" horiz-adv-x="1732" 
d="M774 -35q-126 0 -221 31t-158.5 82.5t-95.5 118t-32 137.5q0 19 2 40.5t5.5 43t7.5 41.5t8 37l171 772q4 20 -2.5 28.5t-25.5 15.5l-158 58l18 81h609l-18 -81l-162 -58q-14 -5 -27 -14.5t-18 -29.5q-39 -173 -76 -343t-76 -343q-3 -13 -6.5 -33t-7 -42t-5.5 -43.5
t-2 -38.5q0 -52 13.5 -105.5t49 -97t97 -71t157.5 -27.5q78 0 139.5 18.5t109 50t82 71.5t58.5 83t39 85.5t23 78.5l165 751q4 10 -3 23.5t-22 19.5l-158 65l18 81h539l-18 -81l-163 -65q-16 -6 -28 -14.5t-17 -28.5l-181 -820q-19 -85 -57.5 -153t-90 -121t-112 -91.5
t-124.5 -63t-127 -36.5t-119 -12zM816 1624h-98q11 55 36.5 104t61 86t78.5 59t90 22q40 0 76 -15.5t70 -34t67.5 -34t68.5 -15.5q22 0 39.5 9t30.5 24.5t22.5 36t15.5 44.5h99q-11 -54 -35 -103t-58.5 -86t-77 -59t-90.5 -22q-41 0 -75.5 16t-67.5 35t-66 35t-70 16
q-45 0 -74.5 -35t-42.5 -83z" />
    <glyph glyph-name="Udieresis" unicode="&#xdc;" horiz-adv-x="1732" 
d="M774 -35q-126 0 -221 31t-158.5 82.5t-95.5 118t-32 137.5q0 19 2 40.5t5.5 43t7.5 41.5t8 37l171 772q4 20 -2.5 28.5t-25.5 15.5l-158 58l18 81h609l-18 -81l-162 -58q-14 -5 -27 -14.5t-18 -29.5q-39 -173 -76 -343t-76 -343q-3 -13 -6.5 -33t-7 -42t-5.5 -43.5
t-2 -38.5q0 -52 13.5 -105.5t49 -97t97 -71t157.5 -27.5q78 0 139.5 18.5t109 50t82 71.5t58.5 83t39 85.5t23 78.5l165 751q4 10 -3 23.5t-22 19.5l-158 65l18 81h539l-18 -81l-163 -65q-16 -6 -28 -14.5t-17 -28.5l-181 -820q-19 -85 -57.5 -153t-90 -121t-112 -91.5
t-124.5 -63t-127 -36.5t-119 -12zM858 1642q-26 0 -49.5 8t-41 23t-28 37t-10.5 50q0 31 10.5 54t28 38.5t41 23.5t49.5 8q30 0 55 -7t43 -21t27.5 -35.5t9.5 -50.5q0 -30 -10.5 -54t-28.5 -40.5t-42.5 -25t-53.5 -8.5zM1320 1642q-26 0 -49.5 8t-41 23t-28 37t-10.5 50
q0 31 10.5 54t28 38.5t41 23.5t49.5 8q30 0 55 -7t43 -21t27.5 -35.5t9.5 -50.5q0 -30 -10.5 -54t-28.5 -40.5t-42.5 -25t-53.5 -8.5z" />
    <glyph glyph-name="Umacron" unicode="&#x16a;" horiz-adv-x="1732" 
d="M774 -35q-126 0 -221 31t-158.5 82.5t-95.5 118t-32 137.5q0 19 2 40.5t5.5 43t7.5 41.5t8 37l171 772q4 20 -2.5 28.5t-25.5 15.5l-158 58l18 81h609l-18 -81l-162 -58q-14 -5 -27 -14.5t-18 -29.5q-39 -173 -76 -343t-76 -343q-3 -13 -6.5 -33t-7 -42t-5.5 -43.5
t-2 -38.5q0 -52 13.5 -105.5t49 -97t97 -71t157.5 -27.5q78 0 139.5 18.5t109 50t82 71.5t58.5 83t39 85.5t23 78.5l165 751q4 10 -3 23.5t-22 19.5l-158 65l18 81h539l-18 -81l-163 -65q-16 -6 -28 -14.5t-17 -28.5l-181 -820q-19 -85 -57.5 -153t-90 -121t-112 -91.5
t-124.5 -63t-127 -36.5t-119 -12zM1437 1702h-715l32 142h715z" />
    <glyph glyph-name="Ubreve" unicode="&#x16c;" horiz-adv-x="1732" 
d="M774 -35q-126 0 -221 31t-158.5 82.5t-95.5 118t-32 137.5q0 19 2 40.5t5.5 43t7.5 41.5t8 37l171 772q4 20 -2.5 28.5t-25.5 15.5l-158 58l18 81h609l-18 -81l-162 -58q-14 -5 -27 -14.5t-18 -29.5q-39 -173 -76 -343t-76 -343q-3 -13 -6.5 -33t-7 -42t-5.5 -43.5
t-2 -38.5q0 -52 13.5 -105.5t49 -97t97 -71t157.5 -27.5q78 0 139.5 18.5t109 50t82 71.5t58.5 83t39 85.5t23 78.5l165 751q4 10 -3 23.5t-22 19.5l-158 65l18 81h539l-18 -81l-163 -65q-16 -6 -28 -14.5t-17 -28.5l-181 -820q-19 -85 -57.5 -153t-90 -121t-112 -91.5
t-124.5 -63t-127 -36.5t-119 -12zM1098 1604q-149 0 -219 96t-66 296l88 14q8 -54 19 -98.5t34 -77t63 -50.5t106 -18q64 0 110 17t81 49t62.5 77t54.5 101l84 -14q-62 -202 -165 -297t-252 -95z" />
    <glyph glyph-name="Uring" unicode="&#x16e;" horiz-adv-x="1732" 
d="M774 -35q-126 0 -221 31t-158.5 82.5t-95.5 118t-32 137.5q0 19 2 40.5t5.5 43t7.5 41.5t8 37l171 772q4 20 -2.5 28.5t-25.5 15.5l-158 58l18 81h609l-18 -81l-162 -58q-14 -5 -27 -14.5t-18 -29.5q-39 -173 -76 -343t-76 -343q-3 -13 -6.5 -33t-7 -42t-5.5 -43.5
t-2 -38.5q0 -52 13.5 -105.5t49 -97t97 -71t157.5 -27.5q78 0 139.5 18.5t109 50t82 71.5t58.5 83t39 85.5t23 78.5l165 751q4 10 -3 23.5t-22 19.5l-158 65l18 81h539l-18 -81l-163 -65q-16 -6 -28 -14.5t-17 -28.5l-181 -820q-19 -85 -57.5 -153t-90 -121t-112 -91.5
t-124.5 -63t-127 -36.5t-119 -12zM1125 1659q33 0 61 15t48 42t31 63t11 78q0 60 -28 96.5t-79 36.5q-39 0 -68.5 -16.5t-49.5 -43.5t-30 -63t-10 -75q0 -61 31.5 -97t82.5 -36zM1097 1577q-51 0 -93 13t-72.5 38.5t-47 62t-16.5 84.5q0 64 24 118.5t67 94t103 62t131 22.5
q51 0 92.5 -13t71 -38t46 -61t16.5 -82q0 -65 -24 -120.5t-67 -95.5t-102 -62.5t-129 -22.5z" />
    <glyph glyph-name="Uhungarumlaut" unicode="&#x170;" horiz-adv-x="1732" 
d="M774 -35q-126 0 -221 31t-158.5 82.5t-95.5 118t-32 137.5q0 19 2 40.5t5.5 43t7.5 41.5t8 37l171 772q4 20 -2.5 28.5t-25.5 15.5l-158 58l18 81h609l-18 -81l-162 -58q-14 -5 -27 -14.5t-18 -29.5q-39 -173 -76 -343t-76 -343q-3 -13 -6.5 -33t-7 -42t-5.5 -43.5
t-2 -38.5q0 -52 13.5 -105.5t49 -97t97 -71t157.5 -27.5q78 0 139.5 18.5t109 50t82 71.5t58.5 83t39 85.5t23 78.5l165 751q4 10 -3 23.5t-22 19.5l-158 65l18 81h539l-18 -81l-163 -65q-16 -6 -28 -14.5t-17 -28.5l-181 -820q-19 -85 -57.5 -153t-90 -121t-112 -91.5
t-124.5 -63t-127 -36.5t-119 -12zM831 1618q47 76 81 135.5t60 104t46.5 75t39.5 49.5t40 27.5t49 8.5q18 0 34 -7t28.5 -18.5t19.5 -27t7 -32.5q0 -22 -4.5 -38.5t-13.5 -30.5t-22.5 -28t-30.5 -30q-35 -33 -69.5 -60.5t-68.5 -53l-68 -51t-69 -53.5zM1206 1618
q65 92 108 166t77 126t66 80t77 28q18 0 34 -7t28.5 -18.5t19.5 -27t7 -32.5q0 -22 -4.5 -39t-13.5 -32t-22.5 -29t-31.5 -29q-37 -31 -73 -58t-72 -52.5t-71 -51.5t-70 -54z" />
    <glyph glyph-name="uni1EE6" unicode="&#x1ee6;" horiz-adv-x="1732" 
d="M774 -35q-126 0 -221 31t-158.5 82.5t-95.5 118t-32 137.5q0 19 2 40.5t5.5 43t7.5 41.5t8 37l171 772q4 20 -2.5 28.5t-25.5 15.5l-158 58l18 81h609l-18 -81l-162 -58q-14 -5 -27 -14.5t-18 -29.5q-39 -173 -76 -343t-76 -343q-3 -13 -6.5 -33t-7 -42t-5.5 -43.5
t-2 -38.5q0 -52 13.5 -105.5t49 -97t97 -71t157.5 -27.5q78 0 139.5 18.5t109 50t82 71.5t58.5 83t39 85.5t23 78.5l165 751q4 10 -3 23.5t-22 19.5l-158 65l18 81h539l-18 -81l-163 -65q-16 -6 -28 -14.5t-17 -28.5l-181 -820q-19 -85 -57.5 -153t-90 -121t-112 -91.5
t-124.5 -63t-127 -36.5t-119 -12zM1199 2041q81 0 127.5 -31.5t46.5 -91.5q0 -35 -12.5 -62.5t-32.5 -52t-44.5 -46.5t-48.5 -45.5t-44.5 -49.5t-32.5 -58l-6 -16h-124l8 24q12 36 31.5 63t41 49.5t44 42t40 40t29 44t11.5 53.5q0 10 -2.5 19t-8.5 16t-16 11t-25 4
q-25 0 -49.5 -7.5t-47 -19t-41.5 -24.5t-34 -25h-45l24 112q12 5 33 13.5t48.5 17t60.5 14.5t69 6z" />
    <glyph glyph-name="Uogonek" unicode="&#x172;" horiz-adv-x="1732" 
d="M927 -462q-59 0 -100 15.5t-66.5 40t-37 56t-11.5 64.5q0 41 13.5 77.5t37 68.5t54 60.5t64.5 54.5q-27 -5 -54 -7.5t-53 -2.5q-126 0 -221 31t-158.5 82.5t-95.5 118t-32 137.5q0 19 2 40.5t5.5 43t7.5 41.5t8 37q43 194 85 386t86 386q5 20 -3.5 29t-24.5 15l-158 58
l18 81h609l-18 -81l-162 -58q-14 -5 -27 -14.5t-18 -29.5l-152 -686q-3 -13 -7 -32.5t-7 -41.5t-5 -44t-2 -39t1.5 -35t4.5 -36q7 -44 27 -85.5t56.5 -73.5t92 -51.5t135.5 -19.5q78 0 139.5 18.5t109 50t82 71.5t58.5 83t39 85.5t23 78.5l165 751q4 18 -4.5 28t-20.5 15
l-158 65l18 81h539l-18 -81l-163 -65q-16 -6 -28 -14.5t-17 -28.5l-181 -820q-21 -93 -61 -159.5t-84 -112t-85 -73t-63 -41.5q-47 -29 -89.5 -60.5t-75.5 -66.5t-52.5 -75t-19.5 -86q0 -21 7 -41.5t20.5 -36.5t34 -26t47.5 -10q26 0 55 9.5t54 21.5h17v-112
q-48 -18 -97 -26.5t-85 -8.5z" />
    <glyph glyph-name="uni1EE4" unicode="&#x1ee4;" horiz-adv-x="1732" 
d="M774 -35q-126 0 -221 31t-158.5 82.5t-95.5 118t-32 137.5q0 19 2 40.5t5.5 43t7.5 41.5t8 37l171 772q4 20 -2.5 28.5t-25.5 15.5l-158 58l18 81h609l-18 -81l-162 -58q-14 -5 -27 -14.5t-18 -29.5q-39 -173 -76 -343t-76 -343q-3 -13 -6.5 -33t-7 -42t-5.5 -43.5
t-2 -38.5q0 -52 13.5 -105.5t49 -97t97 -71t157.5 -27.5q78 0 139.5 18.5t109 50t82 71.5t58.5 83t39 85.5t23 78.5l165 751q4 10 -3 23.5t-22 19.5l-158 65l18 81h539l-18 -81l-163 -65q-16 -6 -28 -14.5t-17 -28.5l-181 -820q-19 -85 -57.5 -153t-90 -121t-112 -91.5
t-124.5 -63t-127 -36.5t-119 -12zM706 -425q-26 0 -48 7t-38.5 20.5t-26 33t-9.5 44.5q0 37 15.5 66t40.5 49t57 30t65 10q30 0 54 -6t41 -18.5t26 -31t9 -42.5q0 -37 -14.5 -67t-40 -51t-59.5 -32.5t-72 -11.5z" />
    <glyph glyph-name="Uhorn" unicode="&#x1af;" horiz-adv-x="1915" 
d="M1846 1451h211q2 -11 3.5 -23.5t2.5 -24.5t1.5 -23.5t0.5 -21.5q0 -69 -25.5 -120t-68 -87.5t-97.5 -60t-114.5 -38.5t-119 -23t-109.5 -12l-127 -575q-19 -85 -57.5 -153t-90 -121t-112 -91.5t-124.5 -63t-127 -36.5t-119 -12q-126 0 -221 31t-158.5 82.5t-95.5 118
t-32 137.5q0 19 2 40.5t5.5 43t7.5 41.5t8 37l171 772q4 20 -2.5 28.5t-25.5 15.5l-158 58l18 81h609l-18 -81l-162 -58q-14 -5 -27 -14.5t-18 -29.5q-39 -173 -76 -343t-76 -343q-3 -13 -6.5 -33t-7 -42t-5.5 -43.5t-2 -38.5q0 -52 13.5 -105.5t49 -97t97 -71t157.5 -27.5
q78 0 139.5 18.5t109 50t82 71.5t58.5 83t39 85.5t23 78.5l165 751q4 10 -3 23.5t-22 19.5l-158 65l18 81h489l-18 -81l-113 -53q-15 -7 -27.5 -21t-17.5 -34l-30 -134q108 15 169 35.5t91 45.5t37 54t7 61q0 31 -7.5 56.5t-12.5 41.5z" />
    <glyph glyph-name="uni1EE8" unicode="&#x1ee8;" horiz-adv-x="1915" 
d="M1846 1451h211q2 -11 3.5 -23.5t2.5 -24.5t1.5 -23.5t0.5 -21.5q0 -69 -25.5 -120t-68 -87.5t-97.5 -60t-114.5 -38.5t-119 -23t-109.5 -12l-127 -575q-19 -85 -57.5 -153t-90 -121t-112 -91.5t-124.5 -63t-127 -36.5t-119 -12q-126 0 -221 31t-158.5 82.5t-95.5 118
t-32 137.5q0 19 2 40.5t5.5 43t7.5 41.5t8 37l171 772q4 20 -2.5 28.5t-25.5 15.5l-158 58l18 81h609l-18 -81l-162 -58q-14 -5 -27 -14.5t-18 -29.5q-39 -173 -76 -343t-76 -343q-3 -13 -6.5 -33t-7 -42t-5.5 -43.5t-2 -38.5q0 -52 13.5 -105.5t49 -97t97 -71t157.5 -27.5
q78 0 139.5 18.5t109 50t82 71.5t58.5 83t39 85.5t23 78.5l165 751q4 10 -3 23.5t-22 19.5l-158 65l18 81h489l-18 -81l-113 -53q-15 -7 -27.5 -21t-17.5 -34l-30 -134q108 15 169 35.5t91 45.5t37 54t7 61q0 31 -7.5 56.5t-12.5 41.5zM899 1573l-50 45q59 78 103 138
t77.5 104.5t59.5 74.5t49 48.5t46 26.5t51 8q43 0 67 -25t24 -59q0 -22 -5.5 -38.5t-16 -31t-26.5 -28t-37 -29.5z" />
    <glyph glyph-name="uni1EEA" unicode="&#x1eea;" horiz-adv-x="1915" 
d="M1846 1451h211q2 -11 3.5 -23.5t2.5 -24.5t1.5 -23.5t0.5 -21.5q0 -69 -25.5 -120t-68 -87.5t-97.5 -60t-114.5 -38.5t-119 -23t-109.5 -12l-127 -575q-19 -85 -57.5 -153t-90 -121t-112 -91.5t-124.5 -63t-127 -36.5t-119 -12q-126 0 -221 31t-158.5 82.5t-95.5 118
t-32 137.5q0 19 2 40.5t5.5 43t7.5 41.5t8 37l171 772q4 20 -2.5 28.5t-25.5 15.5l-158 58l18 81h609l-18 -81l-162 -58q-14 -5 -27 -14.5t-18 -29.5q-39 -173 -76 -343t-76 -343q-3 -13 -6.5 -33t-7 -42t-5.5 -43.5t-2 -38.5q0 -52 13.5 -105.5t49 -97t97 -71t157.5 -27.5
q78 0 139.5 18.5t109 50t82 71.5t58.5 83t39 85.5t23 78.5l165 751q4 10 -3 23.5t-22 19.5l-158 65l18 81h489l-18 -81l-113 -53q-15 -7 -27.5 -21t-17.5 -34l-30 -134q108 15 169 35.5t91 45.5t37 54t7 61q0 31 -7.5 56.5t-12.5 41.5zM1318 1618l-63 -45l-307 234
q-10 8 -18.5 15.5t-16 14.5t-13.5 14t-11 14q-10 14 -14 29t-2 36q1 17 9 33t21 28t30.5 19.5t38.5 7.5t38.5 -4t33.5 -14t32 -27.5t35 -45.5z" />
    <glyph glyph-name="uni1EEC" unicode="&#x1eec;" horiz-adv-x="1915" 
d="M1846 1451h211q2 -11 3.5 -23.5t2.5 -24.5t1.5 -23.5t0.5 -21.5q0 -69 -25.5 -120t-68 -87.5t-97.5 -60t-114.5 -38.5t-119 -23t-109.5 -12l-127 -575q-19 -85 -57.5 -153t-90 -121t-112 -91.5t-124.5 -63t-127 -36.5t-119 -12q-126 0 -221 31t-158.5 82.5t-95.5 118
t-32 137.5q0 19 2 40.5t5.5 43t7.5 41.5t8 37l171 772q4 20 -2.5 28.5t-25.5 15.5l-158 58l18 81h609l-18 -81l-162 -58q-14 -5 -27 -14.5t-18 -29.5q-39 -173 -76 -343t-76 -343q-3 -13 -6.5 -33t-7 -42t-5.5 -43.5t-2 -38.5q0 -52 13.5 -105.5t49 -97t97 -71t157.5 -27.5
q78 0 139.5 18.5t109 50t82 71.5t58.5 83t39 85.5t23 78.5l165 751q4 10 -3 23.5t-22 19.5l-158 65l18 81h489l-18 -81l-113 -53q-15 -7 -27.5 -21t-17.5 -34l-30 -134q108 15 169 35.5t91 45.5t37 54t7 61q0 31 -7.5 56.5t-12.5 41.5zM1199 2041q81 0 127.5 -31.5
t46.5 -91.5q0 -35 -12.5 -62.5t-32.5 -52t-44.5 -46.5t-48.5 -45.5t-44.5 -49.5t-32.5 -58l-6 -16h-124l8 24q12 36 31.5 63t41 49.5t44 42t40 40t29 44t11.5 53.5q0 10 -2.5 19t-8.5 16t-16 11t-25 4q-25 0 -49.5 -7.5t-47 -19t-41.5 -24.5t-34 -25h-45l24 112
q12 5 33 13.5t48.5 17t60.5 14.5t69 6z" />
    <glyph glyph-name="uni1EEE" unicode="&#x1eee;" horiz-adv-x="1915" 
d="M1846 1451h211q2 -11 3.5 -23.5t2.5 -24.5t1.5 -23.5t0.5 -21.5q0 -69 -25.5 -120t-68 -87.5t-97.5 -60t-114.5 -38.5t-119 -23t-109.5 -12l-127 -575q-19 -85 -57.5 -153t-90 -121t-112 -91.5t-124.5 -63t-127 -36.5t-119 -12q-126 0 -221 31t-158.5 82.5t-95.5 118
t-32 137.5q0 19 2 40.5t5.5 43t7.5 41.5t8 37l171 772q4 20 -2.5 28.5t-25.5 15.5l-158 58l18 81h609l-18 -81l-162 -58q-14 -5 -27 -14.5t-18 -29.5q-39 -173 -76 -343t-76 -343q-3 -13 -6.5 -33t-7 -42t-5.5 -43.5t-2 -38.5q0 -52 13.5 -105.5t49 -97t97 -71t157.5 -27.5
q78 0 139.5 18.5t109 50t82 71.5t58.5 83t39 85.5t23 78.5l165 751q4 10 -3 23.5t-22 19.5l-158 65l18 81h489l-18 -81l-113 -53q-15 -7 -27.5 -21t-17.5 -34l-30 -134q108 15 169 35.5t91 45.5t37 54t7 61q0 31 -7.5 56.5t-12.5 41.5zM816 1624h-98q11 55 36.5 104t61 86
t78.5 59t90 22q40 0 76 -15.5t70 -34t67.5 -34t68.5 -15.5q22 0 39.5 9t30.5 24.5t22.5 36t15.5 44.5h99q-11 -54 -35 -103t-58.5 -86t-77 -59t-90.5 -22q-41 0 -75.5 16t-67.5 35t-66 35t-70 16q-45 0 -74.5 -35t-42.5 -83z" />
    <glyph glyph-name="uni1EF0" unicode="&#x1ef0;" horiz-adv-x="1915" 
d="M1846 1451h211q2 -11 3.5 -23.5t2.5 -24.5t1.5 -23.5t0.5 -21.5q0 -69 -25.5 -120t-68 -87.5t-97.5 -60t-114.5 -38.5t-119 -23t-109.5 -12l-127 -575q-19 -85 -57.5 -153t-90 -121t-112 -91.5t-124.5 -63t-127 -36.5t-119 -12q-126 0 -221 31t-158.5 82.5t-95.5 118
t-32 137.5q0 19 2 40.5t5.5 43t7.5 41.5t8 37l171 772q4 20 -2.5 28.5t-25.5 15.5l-158 58l18 81h609l-18 -81l-162 -58q-14 -5 -27 -14.5t-18 -29.5q-39 -173 -76 -343t-76 -343q-3 -13 -6.5 -33t-7 -42t-5.5 -43.5t-2 -38.5q0 -52 13.5 -105.5t49 -97t97 -71t157.5 -27.5
q78 0 139.5 18.5t109 50t82 71.5t58.5 83t39 85.5t23 78.5l165 751q4 10 -3 23.5t-22 19.5l-158 65l18 81h489l-18 -81l-113 -53q-15 -7 -27.5 -21t-17.5 -34l-30 -134q108 15 169 35.5t91 45.5t37 54t7 61q0 31 -7.5 56.5t-12.5 41.5zM706 -425q-26 0 -48 7t-38.5 20.5
t-26 33t-9.5 44.5q0 37 15.5 66t40.5 49t57 30t65 10q30 0 54 -6t41 -18.5t26 -31t9 -42.5q0 -37 -14.5 -67t-40 -51t-59.5 -32.5t-72 -11.5z" />
    <glyph glyph-name="Wgrave" unicode="&#x1e80;" horiz-adv-x="2313" 
d="M621 -14h-169l-115 1284q-2 18 -10 30.5t-23 19.5l-106 50l18 81h518l-18 -81l-174 -67l79 -885l4 -139h23l475 875l165 267h161l106 -1003l10 -137h21l557 1015l-171 74l18 81h484l-18 -81l-103 -54q-16 -8 -33 -21.5t-25 -28.5l-574 -1019l-161 -261h-167l-105 1009
l-3 135h-20l-480 -883zM1601 1618l-63 -45l-307 234q-10 8 -18.5 15.5t-16 14.5t-13.5 14t-11 14q-10 14 -14 29t-2 36q1 17 9 33t21 28t30.5 19.5t38.5 7.5t38.5 -4t33.5 -14t32 -27.5t35 -45.5z" />
    <glyph glyph-name="Wacute" unicode="&#x1e82;" horiz-adv-x="2313" 
d="M621 -14h-169l-115 1284q-2 18 -10 30.5t-23 19.5l-106 50l18 81h518l-18 -81l-174 -67l79 -885l4 -139h23l475 875l165 267h161l106 -1003l10 -137h21l557 1015l-171 74l18 81h484l-18 -81l-103 -54q-16 -8 -33 -21.5t-25 -28.5l-574 -1019l-161 -261h-167l-105 1009
l-3 135h-20l-480 -883zM1182 1573l-50 45q59 78 103 138t77.5 104.5t59.5 74.5t49 48.5t46 26.5t51 8q43 0 67 -25t24 -59q0 -22 -5.5 -38.5t-16 -31t-26.5 -28t-37 -29.5z" />
    <glyph glyph-name="Wcircumflex" unicode="&#x174;" horiz-adv-x="2313" 
d="M621 -14h-169l-115 1284q-2 18 -10 30.5t-23 19.5l-106 50l18 81h518l-18 -81l-174 -67l79 -885l4 -139h23l475 875l165 267h161l106 -1003l10 -137h21l557 1015l-171 74l18 81h484l-18 -81l-103 -54q-16 -8 -33 -21.5t-25 -28.5l-574 -1019l-161 -261h-167l-105 1009
l-3 135h-20l-480 -883zM1415 1829l-336 -241l-53 30l275 307q18 20 34.5 37t33.5 29t35.5 18.5t40.5 6.5q44 0 69 -25.5t46 -64.5l164 -308l-67 -30z" />
    <glyph glyph-name="Wdieresis" unicode="&#x1e84;" horiz-adv-x="2313" 
d="M621 -14h-169l-115 1284q-2 18 -10 30.5t-23 19.5l-106 50l18 81h518l-18 -81l-174 -67l79 -885l4 -139h23l475 875l165 267h161l106 -1003l10 -137h21l557 1015l-171 74l18 81h484l-18 -81l-103 -54q-16 -8 -33 -21.5t-25 -28.5l-574 -1019l-161 -261h-167l-105 1009
l-3 135h-20l-480 -883zM1140 1642q-26 0 -49.5 8t-41 23t-28 37t-10.5 50q0 31 10.5 54t28 38.5t41 23.5t49.5 8q30 0 55 -7t43 -21t27.5 -35.5t9.5 -50.5q0 -30 -10.5 -54t-28.5 -40.5t-42.5 -25t-53.5 -8.5zM1602 1642q-26 0 -49.5 8t-41 23t-28 37t-10.5 50q0 31 10.5 54
t28 38.5t41 23.5t49.5 8q30 0 55 -7t43 -21t27.5 -35.5t9.5 -50.5q0 -30 -10.5 -54t-28.5 -40.5t-42.5 -25t-53.5 -8.5z" />
    <glyph glyph-name="Ygrave" unicode="&#x1ef2;" horiz-adv-x="1458" 
d="M928 0h-627l19 83l169 56q17 6 30 16t18 32l77 345l-258 738q-5 14 -12.5 28.5t-22.5 21.5l-117 50l18 81h523l-18 -81l-163 -65l175 -495l34 -123h21l476 610l-159 73l18 81h480l-18 -81l-113 -54q-16 -8 -32 -22t-28 -28l-589 -729l-77 -350q-3 -18 0.5 -30t22.5 -18
l172 -56zM1172 1618l-63 -45l-307 234q-10 8 -18.5 15.5t-16 14.5t-13.5 14t-11 14q-10 14 -14 29t-2 36q1 17 9 33t21 28t30.5 19.5t38.5 7.5t38.5 -4t33.5 -14t32 -27.5t35 -45.5z" />
    <glyph glyph-name="Yacute" unicode="&#xdd;" horiz-adv-x="1458" 
d="M928 0h-627l19 83l169 56q17 6 30 16t18 32l77 345l-258 738q-5 14 -12.5 28.5t-22.5 21.5l-117 50l18 81h523l-18 -81l-163 -65l175 -495l34 -123h21l476 610l-159 73l18 81h480l-18 -81l-113 -54q-16 -8 -32 -22t-28 -28l-589 -729l-77 -350q-3 -18 0.5 -30t22.5 -18
l172 -56zM818 1573l-50 45q59 78 103 138t77.5 104.5t59.5 74.5t49 48.5t46 26.5t51 8q43 0 67 -25t24 -59q0 -22 -5.5 -38.5t-16 -31t-26.5 -28t-37 -29.5z" />
    <glyph glyph-name="Ycircumflex" unicode="&#x176;" horiz-adv-x="1458" 
d="M928 0h-627l19 83l169 56q17 6 30 16t18 32l77 345l-258 738q-5 14 -12.5 28.5t-22.5 21.5l-117 50l18 81h523l-18 -81l-163 -65l175 -495l34 -123h21l476 610l-159 73l18 81h480l-18 -81l-113 -54q-16 -8 -32 -22t-28 -28l-589 -729l-77 -350q-3 -18 0.5 -30t22.5 -18
l172 -56zM986 1829l-336 -241l-53 30l275 307q18 20 34.5 37t33.5 29t35.5 18.5t40.5 6.5q44 0 69 -25.5t46 -64.5l164 -308l-67 -30z" />
    <glyph glyph-name="uni1EF8" unicode="&#x1ef8;" horiz-adv-x="1458" 
d="M928 0h-627l19 83l169 56q17 6 30 16t18 32l77 345l-258 738q-5 14 -12.5 28.5t-22.5 21.5l-117 50l18 81h523l-18 -81l-163 -65l175 -495l34 -123h21l476 610l-159 73l18 81h480l-18 -81l-113 -54q-16 -8 -32 -22t-28 -28l-589 -729l-77 -350q-3 -18 0.5 -30t22.5 -18
l172 -56zM670 1624h-98q11 55 36.5 104t61 86t78.5 59t90 22q40 0 76 -15.5t70 -34t67.5 -34t68.5 -15.5q22 0 39.5 9t30.5 24.5t22.5 36t15.5 44.5h99q-11 -54 -35 -103t-58.5 -86t-77 -59t-90.5 -22q-41 0 -75.5 16t-67.5 35t-66 35t-70 16q-45 0 -74.5 -35t-42.5 -83z
" />
    <glyph glyph-name="Ydieresis" unicode="&#x178;" horiz-adv-x="1458" 
d="M928 0h-627l19 83l169 56q17 6 30 16t18 32l77 345l-258 738q-5 14 -12.5 28.5t-22.5 21.5l-117 50l18 81h523l-18 -81l-163 -65l175 -495l34 -123h21l476 610l-159 73l18 81h480l-18 -81l-113 -54q-16 -8 -32 -22t-28 -28l-589 -729l-77 -350q-3 -18 0.5 -30t22.5 -18
l172 -56zM721 1642q-26 0 -49.5 8t-41 23t-28 37t-10.5 50q0 31 10.5 54t28 38.5t41 23.5t49.5 8q30 0 55 -7t43 -21t27.5 -35.5t9.5 -50.5q0 -30 -10.5 -54t-28.5 -40.5t-42.5 -25t-53.5 -8.5zM1183 1642q-26 0 -49.5 8t-41 23t-28 37t-10.5 50q0 31 10.5 54t28 38.5
t41 23.5t49.5 8q30 0 55 -7t43 -21t27.5 -35.5t9.5 -50.5q0 -30 -10.5 -54t-28.5 -40.5t-42.5 -25t-53.5 -8.5z" />
    <glyph glyph-name="uni1EF6" unicode="&#x1ef6;" horiz-adv-x="1458" 
d="M928 0h-627l19 83l169 56q17 6 30 16t18 32l77 345l-258 738q-5 14 -12.5 28.5t-22.5 21.5l-117 50l18 81h523l-18 -81l-163 -65l175 -495l34 -123h21l476 610l-159 73l18 81h480l-18 -81l-113 -54q-16 -8 -32 -22t-28 -28l-589 -729l-77 -350q-3 -18 0.5 -30t22.5 -18
l172 -56zM1053 2041q81 0 127.5 -31.5t46.5 -91.5q0 -35 -12.5 -62.5t-32.5 -52t-44.5 -46.5t-48.5 -45.5t-44.5 -49.5t-32.5 -58l-6 -16h-124l8 24q12 36 31.5 63t41 49.5t44 42t40 40t29 44t11.5 53.5q0 10 -2.5 19t-8.5 16t-16 11t-25 4q-25 0 -49.5 -7.5t-47 -19
t-41.5 -24.5t-34 -25h-45l24 112q12 5 33 13.5t48.5 17t60.5 14.5t69 6z" />
    <glyph glyph-name="uni1EF4" unicode="&#x1ef4;" horiz-adv-x="1458" 
d="M928 0h-627l19 83l169 56q17 6 30 16t18 32l77 345l-258 738q-5 14 -12.5 28.5t-22.5 21.5l-117 50l18 81h523l-18 -81l-163 -65l175 -495l34 -123h21l476 610l-159 73l18 81h480l-18 -81l-113 -54q-16 -8 -32 -22t-28 -28l-589 -729l-77 -350q-3 -18 0.5 -30t22.5 -18
l172 -56zM530 -425q-26 0 -48 7t-38.5 20.5t-26 33t-9.5 44.5q0 37 15.5 66t40.5 49t57 30t65 10q30 0 54 -6t41 -18.5t26 -31t9 -42.5q0 -37 -14.5 -67t-40 -51t-59.5 -32.5t-72 -11.5z" />
    <glyph glyph-name="Zacute" unicode="&#x179;" horiz-adv-x="1369" 
d="M1149 0h-1197l24 107l1069 1108l87 78l6 22h-615q-14 0 -28.5 -9.5t-21.5 -28.5l-77 -212h-137l86 386h1117l-23 -104l-1070 -1108l-88 -81l-5 -22h694q14 0 29 8.5t23 30.5l84 241h136zM739 1573l-50 45q59 78 103 138t77.5 104.5t59.5 74.5t49 48.5t46 26.5t51 8
q43 0 67 -25t24 -59q0 -22 -5.5 -38.5t-16 -31t-26.5 -28t-37 -29.5z" />
    <glyph glyph-name="Zcaron" unicode="&#x17d;" horiz-adv-x="1369" 
d="M1149 0h-1197l24 107l1069 1108l87 78l6 22h-615q-14 0 -28.5 -9.5t-21.5 -28.5l-77 -212h-137l86 386h1117l-23 -104l-1070 -1108l-88 -81l-5 -22h694q14 0 29 8.5t23 30.5l84 241h136zM872 1579q-44 0 -69.5 24.5t-45.5 65.5l-164 308l67 45l242 -256l336 256l53 -45
l-275 -307q-37 -41 -68.5 -66t-75.5 -25z" />
    <glyph glyph-name="Zdotaccent" unicode="&#x17b;" horiz-adv-x="1369" 
d="M1149 0h-1197l24 107l1069 1108l87 78l6 22h-615q-14 0 -28.5 -9.5t-21.5 -28.5l-77 -212h-137l86 386h1117l-23 -104l-1070 -1108l-88 -81l-5 -22h694q14 0 29 8.5t23 30.5l84 241h136zM893 1642q-29 0 -55.5 9t-46.5 25.5t-32 41t-12 56.5q0 34 12 59.5t32 43t46.5 26
t55.5 8.5q34 0 62 -7.5t48 -23.5t31 -39.5t11 -55.5q0 -34 -11.5 -60.5t-32 -45t-48.5 -28t-60 -9.5z" />
    <glyph glyph-name="Eng" unicode="&#x14a;" horiz-adv-x="1796" 
d="M802 -501q-19 0 -46.5 2.5t-57 6t-57.5 8.5t-47 10l42 210h59q21 -8 46 -17.5t52.5 -18t57 -14.5t60.5 -6q36 0 69 6t61 16t49 23.5t33 27.5q20 23 42 91t45 162l-523 1079l-43 125h-21l-223 -1017q-5 -22 3.5 -31.5t20.5 -14.5l157 -64l-18 -83h-538l18 83l164 64
q17 7 29 15.5t17 30.5l237 1075q5 19 -3.5 29t-22.5 15l-166 58l19 81h421l489 -1011l43 -126h21l204 948q4 19 -5.5 28.5t-22.5 14.5l-157 65l17 81h541l-17 -81l-164 -65q-14 -6 -27 -14.5t-18 -28.5l-246 -1146q-25 -115 -57.5 -205t-74 -159t-90.5 -117t-107 -78
t-124 -44t-141 -14z" />
    <glyph glyph-name="Eth" unicode="&#xd0;" horiz-adv-x="1652" 
d="M24 0l19 83l162 56q15 5 28 15.5t18 32.5l111 503h-193l27 128h194l100 450q4 20 -2.5 28.5t-22.5 15.5l-162 58l19 81h637q66 0 138.5 -11.5t143 -39t134.5 -71.5t112.5 -109.5t77 -153.5t28.5 -203q0 -138 -29 -256t-83 -214t-130.5 -169.5t-172 -123t-207 -75
t-235.5 -25.5h-712zM716 1317l-111 -499h334l-27 -128h-335l-123 -556h314q144 0 254 50.5t184 141t111.5 217.5t37.5 280q0 115 -32 206.5t-92.5 155.5t-147.5 98t-198 34h-169z" />
    <glyph glyph-name="Thorn" unicode="&#xde;" horiz-adv-x="1373" 
d="M756 439q89 0 153 32t105 83.5t60.5 115t19.5 126.5q0 50 -15.5 94.5t-51.5 77.5t-96 52t-150 19h-126l-129 -580q16 -5 45 -8.5t62 -6t65.5 -4t57.5 -1.5zM642 0h-618l19 83q41 14 81 28t81 28q14 5 27.5 15.5t18.5 32.5l239 1081q5 20 -3.5 29.5t-20.5 14.5l-162 58
l19 81h609l-19 -83l-162 -56q-15 -5 -28 -15.5t-18 -32.5l-20 -91h155q103 0 193 -21t157 -63.5t105.5 -106.5t38.5 -151q0 -116 -43.5 -213.5t-120.5 -168.5t-181.5 -111t-227.5 -40q-25 0 -60.5 5.5t-72 15t-69.5 22t-53 26.5l-40 -180q-5 -22 3 -32.5t23 -15.5l169 -56z
" />
    <glyph glyph-name="a" unicode="a" horiz-adv-x="1280" 
d="M466 133q34 0 73 7t78 21.5t75.5 36.5t66.5 53l69 309q-117 0 -215 -8t-169 -35.5t-111 -79t-40 -138.5q0 -46 15.5 -77.5t40 -51t55.5 -28.5t62 -9zM348 -21q-70 0 -122.5 23.5t-87.5 62t-52.5 89t-17.5 104.5q0 81 27.5 143.5t73 109.5t105 79.5t124 53t129.5 29.5
t121 9q21 0 42.5 -1.5t45.5 -4t52 -5.5t63 -6l15 70q2 9 4 22t3.5 29.5t2 30.5t0.5 35q0 40 -16 69t-43 47t-62.5 26.5t-75.5 8.5q-51 0 -105 -18t-104.5 -43t-94 -52t-73.5 -44h-46v201l106 32q39 12 78.5 22.5t82.5 18.5t91 12.5t102 4.5q66 0 131.5 -13t118 -43t85.5 -80
t33 -125q0 -18 -1.5 -41t-4.5 -46t-6.5 -45.5t-7.5 -38.5l-63 -279q-6 -27 -12.5 -59t-12 -62t-9 -54.5t-3.5 -34.5q0 -16 4 -31.5t15 -28t31 -20t52 -7.5q10 0 22 1.5t26 4.5t30 8t35 12h39v-100q-43 -24 -84.5 -38t-79.5 -21.5t-71.5 -9.5t-60.5 -2q-48 0 -79 17.5
t-49 44.5t-25 59.5t-7 61.5h-16q-56 -62 -110 -99.5t-104.5 -57t-97 -25.5t-86.5 -6z" />
    <glyph glyph-name="b" unicode="b" horiz-adv-x="1322" 
d="M600 123q66 0 121 21t98.5 57.5t76.5 87.5t54.5 110.5t32.5 126t11 134.5q0 70 -14.5 129.5t-46 102.5t-80.5 67.5t-118 24.5q-25 0 -53.5 -6.5t-58.5 -21.5t-60.5 -38.5t-60.5 -56.5l-152 -691q22 -14 56 -23t70.5 -14.5t70 -7.5t53.5 -2zM609 -21q-46 0 -86 9t-73 24
t-58.5 34.5t-41.5 40.5l-54 -107h-222q20 58 40 115t40 115l252 1153q5 14 -5 27t-21 19l-125 64v85h399q-30 -140 -60.5 -277t-60.5 -277l-17 -59q57 67 109.5 105t97.5 57.5t82 24.5t65 5q85 0 150 -32.5t109.5 -90t67 -136t22.5 -170.5q0 -95 -20.5 -185.5t-58.5 -171.5
t-92 -149.5t-122 -118t-148 -77t-169 -27.5z" />
    <glyph glyph-name="c" unicode="c" horiz-adv-x="1099" 
d="M558 -22q-105 0 -188 34.5t-140 96.5t-87 149t-30 191q0 103 26.5 194t73 167.5t109.5 136.5t135.5 102t151 64.5t156.5 22.5q53 0 96 -10t77 -23.5t60.5 -27.5t46.5 -23v-221h-49q-35 21 -78.5 48.5t-89.5 52t-92 41.5t-86 17q-58 0 -103.5 -22.5t-80.5 -61.5
t-59.5 -90.5t-40.5 -109t-23 -118t-7 -116.5q0 -77 18.5 -139t55.5 -105.5t92 -67t127 -23.5q74 0 137.5 27t115.5 62l66 44h47v-138q-41 -29 -90 -56.5t-104.5 -49.5t-116.5 -35t-126 -13z" />
    <glyph glyph-name="d" unicode="d" horiz-adv-x="1359" 
d="M594 131q25 0 54.5 7t60 21.5t60 36.5t55.5 52l154 699q-25 14 -59.5 23t-70 14t-67.5 7t-51 2q-67 0 -122.5 -21.5t-100 -59t-77 -89.5t-54.5 -112.5t-32.5 -127.5t-10.5 -135q0 -71 15 -129t46.5 -100t81 -65t118.5 -23zM456 -21q-84 0 -149.5 31.5t-109.5 87.5
t-67 133t-23 169q0 90 19.5 180t57 171.5t91 152t122 122.5t150 81.5t174.5 29.5q47 0 90 -9t79 -24t63 -34.5t43 -40.5l72 334q5 23 -2 30.5t-24 15.5l-151 64v85h425l-248 -1133q-7 -31 -13.5 -63.5t-12 -61.5t-8.5 -51.5t-3 -32.5q0 -16 4 -31.5t15 -28t31 -20t52 -7.5
q10 0 22 1.5t26 4.5t30 8t35 12h39v-100q-43 -24 -85 -38t-80.5 -21.5t-72 -9.5t-60.5 -2q-48 0 -78.5 18t-48.5 45t-25 59t-7 61h-16q-59 -67 -111.5 -105t-97.5 -56.5t-82 -22.5t-65 -4z" />
    <glyph glyph-name="e" unicode="e" horiz-adv-x="1150" 
d="M503 635q81 0 147.5 14t113.5 44.5t72.5 79t25.5 116.5q0 32 -11.5 56.5t-31.5 41t-46 25t-55 8.5q-63 0 -121 -28t-106 -78t-84.5 -119t-55.5 -151q38 -3 63 -5t41.5 -2.5t27.5 -1t20 -0.5zM532 -22q-34 0 -78.5 8.5t-91 28.5t-92 54t-81 85t-57.5 120.5t-22 161.5
q0 84 20.5 168.5t59.5 162.5t94.5 145.5t125.5 117.5t153.5 78.5t178.5 28.5q58 0 118.5 -13.5t110 -43.5t81 -79t31.5 -119q0 -66 -24.5 -118t-67 -91.5t-100 -67t-122.5 -45t-135 -25.5t-138 -8q-23 0 -47 1.5t-46.5 3.5t-42.5 4t-35 4q-1 -9 -2 -15.5t-1.5 -13t-0.5 -13
v-14.5q0 -75 17 -138.5t54.5 -110.5t96.5 -73.5t143 -26.5q39 0 76.5 8t79 25.5t89.5 44t108 63.5h45v-140q-66 -37 -126.5 -66t-120 -49.5t-121 -31.5t-130.5 -11z" />
    <glyph glyph-name="f" unicode="f" horiz-adv-x="842" 
d="M-172 -501q-18 0 -36.5 2t-38 5.5t-39 7.5t-37.5 8v197h44q21 -8 43 -16t47 -15.5t52.5 -12t60.5 -4.5q43 0 78 10t62 34q9 8 24 37.5t32.5 78t36 114.5t34.5 148l164 829h-196v125h226q40 148 92.5 249t118 163t143.5 89t169 27q18 0 40 -2.5t45 -6t46 -8t41 -8.5v-194
h-43q-20 8 -44.5 17.5t-52 17.5t-58 13.5t-62.5 5.5q-42 0 -72 -6t-50 -16t-31 -23.5t-16 -28.5q-6 -19 -13 -47t-15.5 -64.5t-18 -81t-19.5 -96.5h284v-125h-309l-169 -856q-25 -125 -81.5 -229t-133 -179t-166.5 -117t-182 -42z" />
    <glyph glyph-name="g" unicode="g" horiz-adv-x="1320" 
d="M594 153q25 0 55.5 6.5t62.5 21t64.5 37t61.5 55.5l133 673q-22 13 -55 22t-67.5 14.5t-66.5 8t-52 2.5q-68 0 -124 -21.5t-100 -58.5t-76 -87.5t-53.5 -108.5t-31.5 -120.5t-10 -124.5q0 -70 14.5 -128.5t45.5 -101t80.5 -66t118.5 -23.5zM377 -501q-49 0 -91 3.5t-76 8
t-59.5 10t-40.5 8.5v215h47q24 -10 51.5 -20.5t57.5 -19.5t63 -14.5t69 -5.5q64 0 111 4t83 13.5t62.5 26t48.5 41.5q15 16 26.5 44t22.5 66t22 84.5t23 100.5l28 124l-14 -15q-54 -60 -105.5 -94.5t-97.5 -52t-83.5 -22t-64.5 -4.5q-86 0 -151.5 32t-109.5 89t-67 134.5
t-23 169.5q0 89 20 176t57 166t91 147t122 117.5t148.5 77.5t172.5 28q46 0 84.5 -9t69.5 -24t54.5 -34.5t40.5 -40.5l58 99h222q-10 -29 -20 -57.5t-20 -57.5t-20 -57.5t-20 -57.5l-160 -831q-14 -70 -34.5 -127.5t-48 -105.5t-61 -87t-73.5 -72q-47 -39 -95 -71.5t-99 -56
t-105.5 -36t-115.5 -12.5z" />
    <glyph glyph-name="h" unicode="h" horiz-adv-x="1359" 
d="M996 -16q-48 0 -80.5 16t-53 39.5t-29.5 51t-9 50.5q0 13 1.5 30t4.5 36t7 40.5t10 43.5l92 390q10 42 15.5 80t5.5 65q0 37 -9.5 65t-31 47t-56.5 29t-86 10q-33 0 -68.5 -5.5t-71 -18t-70 -33t-64.5 -50.5l-146 -658v-53.5v-52.5v-52.5v-53.5h-252l303 1363q5 22 -4 30
t-23 16l-124 64v85h399l-121 -546l-13 -57q58 60 109.5 96t98 55t89.5 25t84 6q59 0 109 -15.5t86.5 -47.5t57 -80.5t20.5 -114.5q0 -50 -11.5 -100t-22.5 -97l-79 -340q-5 -21 -8.5 -41t-6 -36.5t-4 -29.5t-1.5 -19q0 -16 4 -31.5t15.5 -28t31.5 -20t52 -7.5q10 0 21.5 1.5
t25 4.5t29 8t34.5 12h40v-100q-43 -24 -85 -38t-81 -21.5t-73 -9.5t-61 -2z" />
    <glyph glyph-name="i" unicode="i" horiz-adv-x="761" 
d="M538 1306q-29 0 -55.5 9t-46.5 25.5t-32 41t-12 56.5q0 34 12 59.5t32 43t46.5 26t55.5 8.5q34 0 62 -7.5t48 -23.5t31 -39.5t11 -55.5q0 -34 -11.5 -60.5t-32 -45t-48.5 -28t-60 -9.5zM363 -16q-48 0 -81 16t-53.5 39.5t-30 51t-9.5 50.5q0 26 7.5 64t17.5 84l129 588
q5 20 -3.5 29.5t-23.5 16.5l-155 70v82l442 53l-154 -703q0 -1 -3 -15t-7.5 -35.5t-9.5 -47t-9.5 -48t-7.5 -39.5t-3 -22q0 -16 4.5 -32t16 -28.5t31.5 -20.5t52 -8q10 0 23.5 2t29 5.5t33 9t36.5 12.5h39v-100q-43 -24 -87 -38.5t-85 -22.5t-76.5 -10.5t-62.5 -2.5z" />
    <glyph glyph-name="j" unicode="j" horiz-adv-x="789" 
d="M-89 -501q-12 0 -30.5 2t-40 5.5t-43.5 7.5t-41 8v198h44q20 -7 43.5 -15.5t48.5 -15.5t51 -11.5t51 -4.5q66 0 105 17.5t60 43.5q34 41 61 153t62 300l131 695q4 11 -3 25t-25 21l-185 65v82l469 53l-197 -1028q-32 -164 -88 -278.5t-130 -186t-161.5 -104t-181.5 -32.5
zM597 1306q-29 0 -55.5 9t-46.5 25.5t-32 41t-12 56.5q0 34 12 59.5t32 43t46.5 26t55.5 8.5q34 0 62 -7.5t47.5 -23.5t30.5 -39.5t11 -55.5q0 -34 -11.5 -60.5t-32 -45t-48 -28t-59.5 -9.5z" />
    <glyph glyph-name="k" unicode="k" horiz-adv-x="1278" 
d="M926 -16q-41 0 -68.5 12t-47 33.5t-34 50t-28.5 61.5l-173 401l-170 -106l-48 -224v-53.5v-52.5v-52.5v-53.5h-252l303 1363q3 14 -5 26t-22 20l-124 64v85h399l-230 -1034q82 90 154 167.5t131 140.5t106 110.5t80 77.5q31 28 56 48t49 33t51 19t62 6q18 0 28.5 -0.5
t20 -1t26.5 -3t28 -4.5v-226h-43q-3 0 -21.5 2t-44 5t-52.5 5t-43 2q-18 0 -47.5 -14.5t-66.5 -43t-79.5 -69.5t-85.5 -94l202 -482q7 -18 18 -31.5t25.5 -23t34 -14t45.5 -4.5q10 0 21.5 1.5t25.5 4.5t30 8t35 12h39v-100q-43 -24 -83 -38t-76 -21.5t-67.5 -9.5t-58.5 -2z
" />
    <glyph glyph-name="l" unicode="l" horiz-adv-x="746" 
d="M356 -16q-48 0 -82.5 16t-57 39.5t-33 51t-10.5 50.5q0 26 7.5 65.5t17.5 82.5l238 1074q5 22 -4.5 31t-23.5 15l-157 64v85h433l-265 -1193l-10 -46t-9 -43t-6 -35.5t-2 -22.5q0 -16 6 -32t19.5 -28.5t35 -20.5t53.5 -8q10 0 23.5 2t29 5.5t33 9t36.5 12.5h39v-100
q-43 -24 -87 -38.5t-85 -22.5t-76.5 -10.5t-62.5 -2.5z" />
    <glyph glyph-name="m" unicode="m" horiz-adv-x="2037" 
d="M1676 -16q-48 0 -81 16t-53 39.5t-29 51t-9 50.5q-1 26 5.5 65.5t17.5 84.5l91 389q9 40 15 77.5t6 68.5q0 36 -9 64t-29.5 47.5t-54 29.5t-82.5 10q-29 0 -63 -5.5t-69 -18t-69.5 -33.5t-64.5 -52l-146 -656v-53.5v-52.5v-52.5v-53.5h-252l151 680q8 39 14.5 79t6.5 71
q0 36 -8.5 63.5t-28.5 46t-53 28t-82 9.5q-32 0 -67 -5.5t-70.5 -18t-69 -33t-61.5 -50.5l-146 -658v-53.5v-52.5v-52.5v-53.5h-252l199 893q4 20 -3.5 29.5t-23.5 16.5l-124 54v82l386 53l-38 -173h15q58 60 110 96t98.5 55t89 25t81.5 6q51 0 96.5 -11.5t80.5 -36
t58.5 -64t30.5 -96.5q70 73 127 114.5t104 62.5t87.5 26t77.5 5q57 0 106.5 -15t86 -46.5t57.5 -79.5t21 -114q0 -26 -4 -55.5t-11 -58.5l-81 -342q-7 -30 -14 -63t-12 -62.5t-8.5 -52t-3.5 -32.5q0 -16 4 -31.5t15 -28t31.5 -20t52.5 -7.5q10 0 21.5 1.5t24.5 4.5t29 8
t35 12h39v-100q-43 -24 -85 -38t-80.5 -21.5t-72.5 -9.5t-61 -2z" />
    <glyph glyph-name="n" unicode="n" horiz-adv-x="1380" 
d="M1021 -16q-48 0 -81 16t-53 39.5t-29 51t-9 50.5q0 26 6 65.5t17 84.5l91 389q4 19 8 38.5t7 38.5t5 36.5t2 32.5q0 37 -9.5 65t-31 47t-56.5 29t-86 10q-32 0 -68 -5.5t-72 -18t-70.5 -33t-63.5 -50.5l-145 -658v-53.5v-52.5v-52.5v-53.5h-253l198 893q4 20 -3 29.5
t-23 16.5l-124 54v82l385 53l-38 -173h15q58 60 110.5 96t100 55t91.5 25t85 6q57 0 107.5 -15t87.5 -45.5t58.5 -78t21.5 -112.5q0 -27 -4 -58.5t-11 -59.5l-81 -342q-7 -30 -14 -63t-12 -62.5t-8.5 -52t-3.5 -32.5q0 -16 4 -31.5t15 -28t31.5 -20t52.5 -7.5q10 0 21.5 1.5
t24.5 4.5t29 8t35 12h39v-100q-43 -24 -85 -38t-80.5 -21.5t-72.5 -9.5t-61 -2z" />
    <glyph glyph-name="o" unicode="o" horiz-adv-x="1291" 
d="M574 -29q-107 0 -192.5 33t-145.5 93.5t-92 146.5t-32 193q0 94 20.5 182.5t58.5 166.5t92 142.5t121.5 111t146.5 72t167 25.5q120 0 207 -37.5t143 -101.5t83 -149.5t27 -181.5q0 -93 -20.5 -180.5t-58 -165t-91.5 -142t-121.5 -110.5t-146 -72t-166.5 -26zM590 91
q61 0 112 26t91.5 70t70.5 103t50 124.5t30 134.5t10 133q0 68 -13.5 129t-43.5 106.5t-78.5 72t-118.5 26.5q-65 0 -117.5 -28t-93 -74.5t-69.5 -107t-47.5 -126.5t-27.5 -132t-9 -124q0 -65 12.5 -125t42.5 -106.5t78.5 -74t120.5 -27.5z" />
    <glyph glyph-name="p" unicode="p" horiz-adv-x="1354" 
d="M628 132q66 0 121.5 21t99.5 58t77 87.5t54.5 110t32.5 125t11 132.5q0 70 -15 128.5t-47 100.5t-81 65.5t-118 23.5q-25 0 -54 -6.5t-59 -21.5t-61 -38.5t-61 -56.5l-149 -681q20 -14 54 -23.5t70.5 -15t70.5 -7.5t54 -2zM419 -501h-561l19 81l138 47q18 6 30.5 15
t17.5 29l267 1222q5 23 -3.5 31.5t-22.5 14.5l-125 54v81l387 54l-40 -183h16q57 66 109.5 104.5t98 58t83 24.5t64.5 5q85 0 150.5 -31.5t110 -87t67.5 -132.5t23 -168q0 -97 -20.5 -188.5t-58.5 -172.5t-92.5 -148.5t-122 -116.5t-147.5 -76t-169 -27q-47 0 -90 9
t-79.5 24t-64.5 34.5t-44 40.5l-89 -415q-5 -14 3.5 -27t22.5 -19l142 -52z" />
    <glyph glyph-name="q" unicode="q" horiz-adv-x="1320" 
d="M594 132q25 0 53 6.5t57 21.5t59.5 38.5t60.5 56.5l153 691q-22 13 -55.5 22t-69 15t-68.5 8.5t-53 2.5q-68 0 -124 -22t-100 -60t-76.5 -90t-53.5 -111.5t-31.5 -124.5t-10.5 -129q0 -71 14.5 -130.5t46 -103t80.5 -67.5t118 -24zM1056 -501h-399l135 613l17 59
q-58 -66 -109.5 -104.5t-95.5 -58t-80.5 -24.5t-64.5 -5q-85 0 -150.5 32.5t-109.5 89.5t-67 135.5t-23 170.5q0 90 19.5 179.5t56.5 170.5t90.5 150.5t121.5 120.5t149.5 80t174.5 29q46 0 85.5 -9t71.5 -24t57 -34.5t42 -40.5l58 99h216q-20 -58 -40 -115t-40 -115
l-269 -1216q-5 -14 3.5 -27t22.5 -19l128 -52v-85z" />
    <glyph glyph-name="r" unicode="r" horiz-adv-x="1044" 
d="M385 0h-250l169 794q5 24 8.5 47.5t5.5 40.5q3 28 -6 39t-24 18l-123 54v85l402 50l-53 -237h13q66 73 117.5 120.5t93 75.5t76 39t67.5 11q22 0 45 -1.5t45 -7t43 -15.5t39 -27v-253h-146l-28 74q-5 13 -16.5 21.5t-25 13.5t-28 7.5t-25.5 2.5q-42 0 -81 -17t-74 -42.5
t-66 -56t-59 -57.5l-119 -567v-53.5v-52.5v-52.5v-53.5z" />
    <glyph glyph-name="s" unicode="s" horiz-adv-x="1121" 
d="M458 -25q-78 0 -151.5 16.5t-139.5 39.5l-84 27v253h138l29 -91q7 -20 17 -32.5t21 -19.5q20 -12 43.5 -23t49 -20t53 -14t56.5 -5q52 0 105 8.5t95.5 30.5t69 59.5t26.5 94.5q0 25 -9.5 45t-28 37t-47 31t-66.5 27q-54 18 -106 36.5t-106 36.5q-53 18 -94 45.5t-69 62
t-42 73.5t-14 80q0 84 43.5 151.5t116.5 114.5t168 72.5t198 25.5q46 0 85 -5.5t75 -13.5t72 -19t75 -21v-256h-136l-30 98q-7 21 -27.5 36.5t-49 26.5t-61.5 16.5t-64 5.5q-59 0 -106.5 -10t-81.5 -31.5t-52.5 -55t-18.5 -79.5q0 -20 5 -36t15.5 -30t27 -26.5t39.5 -24.5
q42 -23 107.5 -47t159.5 -58q58 -21 102 -45.5t73 -54t43.5 -64t14.5 -76.5q0 -62 -22.5 -115.5t-61.5 -97t-91 -77t-112 -56.5t-124.5 -34.5t-127.5 -11.5z" />
    <glyph glyph-name="t" unicode="t" horiz-adv-x="933" 
d="M429 -18q-51 0 -96.5 12t-79 35t-53 56t-19.5 74q0 15 4 40t9.5 53.5t12 56.5t11.5 49l133 626h-175v102q54 6 95 13t71 23.5t50.5 46.5t34.5 83l41 155l189 32l-73 -330h355v-125h-383l-123 -579q-4 -19 -9 -41.5t-9.5 -45.5t-7.5 -41.5t-3 -24.5q0 -30 17.5 -51.5
t43 -35t54.5 -20t52 -6.5q17 0 41 4t48.5 10t45.5 13t32 12h39v-90q-15 -9 -54.5 -26.5t-90 -35.5t-105 -31t-98.5 -13z" />
    <glyph glyph-name="u" unicode="u" horiz-adv-x="1381" 
d="M448 -21q-58 0 -107.5 14.5t-85.5 45.5t-56.5 78t-20.5 113q0 26 3 56t11 62l121 545q5 23 -2 30.5t-24 15.5l-123 54v82l406 53l-153 -692q-9 -39 -15 -77.5t-6 -69.5q0 -37 8.5 -65t29 -47t54.5 -28.5t85 -9.5q32 0 68 5.5t72 17.5t70.5 32.5t63.5 50.5l147 664v50v50
v50v50h249l-151 -683q-7 -30 -13.5 -62.5t-12 -62t-8.5 -52.5t-3 -33q0 -16 4 -31.5t15 -28t31 -20t52 -7.5q10 0 22 1.5t26 4.5t30 8t35 12h39v-100q-43 -24 -85 -38t-80.5 -21.5t-72 -9.5t-60.5 -2q-48 0 -79 17.5t-49 44.5t-25.5 58t-7.5 58h-14q-59 -61 -111 -97
t-100 -55t-91.5 -25t-85.5 -6z" />
    <glyph glyph-name="v" unicode="v" horiz-adv-x="1254" 
d="M560 -10h-132l-162 902q-2 9 -5.5 16.5t-8 13t-10 9t-11.5 6.5l-137 56v82l326 53l139 -723l5 -160h18l281 464q36 60 56.5 116t30 103.5t11.5 84t2 58.5v38h326v-40q-28 -36 -55.5 -72.5t-55 -72.5t-55 -72.5t-55.5 -72.5l-353 -563z" />
    <glyph glyph-name="w" unicode="w" horiz-adv-x="1921" 
d="M539 -10h-143l-126 902q-2 9 -5 16.5t-7.5 13t-10.5 9t-12 6.5l-137 56v82l342 53l96 -717v-166h19l326 638l143 226h133l115 -692l6 -172h19l250 465q31 60 48 115t25.5 102t10 84t1.5 60v38h326v-40q-53 -72 -104.5 -144.5t-104.5 -144.5l-317 -564l-153 -226h-138
l-119 702l-3 142h-15l-314 -618z" />
    <glyph glyph-name="x" unicode="x" horiz-adv-x="1270" 
d="M121 -16q-17 0 -33.5 1.5t-39.5 6.5v236h40q20 -3 40.5 -5.5t34.5 -2.5q19 0 43 2t39 10q24 13 59.5 42t75 70.5t80.5 94t77 112.5l-151 341q-9 19 -18.5 30t-20 17t-21.5 9t-24 8q-25 9 -49.5 18t-49.5 19v82l294 53l154 -346l25 -107h12q18 25 42 57.5t49.5 67t51 68.5
t45.5 61t33.5 44.5t15.5 20.5q30 40 55 65t51.5 39.5t56.5 20t70 5.5q17 0 33.5 -1.5t39.5 -6.5v-236h-40q-20 3 -40.5 5.5t-34.5 2.5q-9 0 -21.5 -1t-24.5 -2.5t-22 -3.5t-14 -5q-24 -14 -58 -40.5t-72 -65t-78 -88.5t-76 -110l157 -356q9 -20 18.5 -36.5t22 -27.5
t29.5 -17t42 -6q10 0 21.5 1.5t25 4.5t29 8t34.5 12h39v-100q-44 -24 -82.5 -38t-72 -21.5t-63.5 -9.5t-57 -2q-41 0 -67 12.5t-44.5 33.5t-31.5 49.5t-27 61.5l-89 206l-24 100h-10q-6 -9 -25.5 -35.5t-45.5 -61.5t-55 -74t-54 -73t-43.5 -58.5t-22.5 -30.5
q-30 -40 -55.5 -65.5t-51.5 -39.5t-56.5 -19.5t-69.5 -5.5z" />
    <glyph glyph-name="y" unicode="y" horiz-adv-x="1358" 
d="M406 -501q-49 0 -91 3.5t-76 8t-59.5 10t-40.5 8.5v215h47q24 -10 51.5 -20.5t57.5 -19.5t63 -14.5t69 -5.5q64 0 111.5 4t83 13.5t61.5 26t49 41.5q11 12 20.5 31.5t18.5 45t17.5 56t17.5 64.5l20 70q7 24 14.5 50t13.5 47.5t10 35.5l4 14h-14q-59 -61 -112 -97
t-102 -55t-93.5 -25t-86.5 -6q-58 0 -108 14.5t-86.5 45.5t-57.5 78t-21 113q0 28 3 58t11 62l118 522q5 23 -2 30.5t-24 15.5l-123 54v82l406 53l-150 -671q-9 -39 -15 -77.5t-6 -69.5q0 -37 9 -65t30 -47t55.5 -28.5t85.5 -9.5q32 0 70 6.5t76.5 20t75.5 35t67 51.5
l125 624v53.5v52.5v52.5v53.5h250l-204 -1042q-27 -137 -86 -231.5t-138 -160.5q-47 -39 -95 -71.5t-99 -56t-105.5 -36t-115.5 -12.5z" />
    <glyph glyph-name="z" unicode="z" horiz-adv-x="1187" 
d="M993 0h-956v94l741 795l86 75v20h-334h-83q-20 0 -29.5 -13t-13.5 -28l-29 -114h-138v280h919v-79l-755 -810l-84 -74v-21h387h77q20 0 29.5 11.5t13.5 28.5l28 136h141v-301z" />
    <glyph glyph-name="agrave" unicode="&#xe0;" horiz-adv-x="1280" 
d="M466 133q34 0 73 7t78 21.5t75.5 36.5t66.5 53l69 309q-117 0 -215 -8t-169 -35.5t-111 -79t-40 -138.5q0 -46 15.5 -77.5t40 -51t55.5 -28.5t62 -9zM348 -21q-70 0 -122.5 23.5t-87.5 62t-52.5 89t-17.5 104.5q0 81 27.5 143.5t73 109.5t105 79.5t124 53t129.5 29.5
t121 9q21 0 42.5 -1.5t45.5 -4t52 -5.5t63 -6l15 70q2 9 4 22t3.5 29.5t2 30.5t0.5 35q0 40 -16 69t-43 47t-62.5 26.5t-75.5 8.5q-51 0 -105 -18t-104.5 -43t-94 -52t-73.5 -44h-46v201l106 32q39 12 78.5 22.5t82.5 18.5t91 12.5t102 4.5q66 0 131.5 -13t118 -43t85.5 -80
t33 -125q0 -18 -1.5 -41t-4.5 -46t-6.5 -45.5t-7.5 -38.5l-63 -279q-6 -27 -12.5 -59t-12 -62t-9 -54.5t-3.5 -34.5q0 -16 4 -31.5t15 -28t31 -20t52 -7.5q10 0 22 1.5t26 4.5t30 8t35 12h39v-100q-43 -24 -84.5 -38t-79.5 -21.5t-71.5 -9.5t-60.5 -2q-48 0 -79 17.5
t-49 44.5t-25 59.5t-7 61.5h-16q-56 -62 -110 -99.5t-104.5 -57t-97 -25.5t-86.5 -6zM906 1270l-63 -45l-307 234q-14 11 -27.5 23t-24 25.5t-17.5 29t-7 33.5q0 21 8 39.5t21.5 32t31.5 21t39 7.5t38.5 -4t33.5 -14t32 -27.5t35 -45.5z" />
    <glyph glyph-name="aacute" unicode="&#xe1;" horiz-adv-x="1280" 
d="M466 133q34 0 73 7t78 21.5t75.5 36.5t66.5 53l69 309q-117 0 -215 -8t-169 -35.5t-111 -79t-40 -138.5q0 -46 15.5 -77.5t40 -51t55.5 -28.5t62 -9zM348 -21q-70 0 -122.5 23.5t-87.5 62t-52.5 89t-17.5 104.5q0 81 27.5 143.5t73 109.5t105 79.5t124 53t129.5 29.5
t121 9q21 0 42.5 -1.5t45.5 -4t52 -5.5t63 -6l15 70q2 9 4 22t3.5 29.5t2 30.5t0.5 35q0 40 -16 69t-43 47t-62.5 26.5t-75.5 8.5q-51 0 -105 -18t-104.5 -43t-94 -52t-73.5 -44h-46v201l106 32q39 12 78.5 22.5t82.5 18.5t91 12.5t102 4.5q66 0 131.5 -13t118 -43t85.5 -80
t33 -125q0 -18 -1.5 -41t-4.5 -46t-6.5 -45.5t-7.5 -38.5l-63 -279q-6 -27 -12.5 -59t-12 -62t-9 -54.5t-3.5 -34.5q0 -16 4 -31.5t15 -28t31 -20t52 -7.5q10 0 22 1.5t26 4.5t30 8t35 12h39v-100q-43 -24 -84.5 -38t-79.5 -21.5t-71.5 -9.5t-60.5 -2q-48 0 -79 17.5
t-49 44.5t-25 59.5t-7 61.5h-16q-56 -62 -110 -99.5t-104.5 -57t-97 -25.5t-86.5 -6zM599 1225l-57 45q59 78 103 138t77.5 104.5t59.5 74.5t49 48.5t46 26.5t51 8q21 0 38 -7t29 -19t18 -26.5t6 -29.5q0 -23 -5.5 -40t-16 -31.5t-26.5 -28t-37 -29.5z" />
    <glyph glyph-name="acircumflex" unicode="&#xe2;" horiz-adv-x="1280" 
d="M466 133q34 0 73 7t78 21.5t75.5 36.5t66.5 53l69 309q-117 0 -215 -8t-169 -35.5t-111 -79t-40 -138.5q0 -46 15.5 -77.5t40 -51t55.5 -28.5t62 -9zM348 -21q-70 0 -122.5 23.5t-87.5 62t-52.5 89t-17.5 104.5q0 81 27.5 143.5t73 109.5t105 79.5t124 53t129.5 29.5
t121 9q21 0 42.5 -1.5t45.5 -4t52 -5.5t63 -6l15 70q2 9 4 22t3.5 29.5t2 30.5t0.5 35q0 40 -16 69t-43 47t-62.5 26.5t-75.5 8.5q-51 0 -105 -18t-104.5 -43t-94 -52t-73.5 -44h-46v201l106 32q39 12 78.5 22.5t82.5 18.5t91 12.5t102 4.5q66 0 131.5 -13t118 -43t85.5 -80
t33 -125q0 -18 -1.5 -41t-4.5 -46t-6.5 -45.5t-7.5 -38.5l-63 -279q-6 -27 -12.5 -59t-12 -62t-9 -54.5t-3.5 -34.5q0 -16 4 -31.5t15 -28t31 -20t52 -7.5q10 0 22 1.5t26 4.5t30 8t35 12h39v-100q-43 -24 -84.5 -38t-79.5 -21.5t-71.5 -9.5t-60.5 -2q-48 0 -79 17.5
t-49 44.5t-25 59.5t-7 61.5h-16q-56 -62 -110 -99.5t-104.5 -57t-97 -25.5t-86.5 -6zM733 1481l-336 -256l-53 45l275 307q18 20 34.5 37t33.5 29t35.5 18.5t40.5 6.5q44 0 69 -25.5t46 -64.5l164 -308l-67 -45z" />
    <glyph glyph-name="uni1EA5" unicode="&#x1ea5;" horiz-adv-x="1280" 
d="M466 133q34 0 73 7t78 21.5t75.5 36.5t66.5 53l69 309q-117 0 -215 -8t-169 -35.5t-111 -79t-40 -138.5q0 -46 15.5 -77.5t40 -51t55.5 -28.5t62 -9zM348 -21q-70 0 -122.5 23.5t-87.5 62t-52.5 89t-17.5 104.5q0 81 27.5 143.5t73 109.5t105 79.5t124 53t129.5 29.5
t121 9q21 0 42.5 -1.5t45.5 -4t52 -5.5t63 -6l15 70q2 9 4 22t3.5 29.5t2 30.5t0.5 35q0 40 -16 69t-43 47t-62.5 26.5t-75.5 8.5q-51 0 -105 -18t-104.5 -43t-94 -52t-73.5 -44h-46v201l106 32q39 12 78.5 22.5t82.5 18.5t91 12.5t102 4.5q66 0 131.5 -13t118 -43t85.5 -80
t33 -125q0 -18 -1.5 -41t-4.5 -46t-6.5 -45.5t-7.5 -38.5l-63 -279q-6 -27 -12.5 -59t-12 -62t-9 -54.5t-3.5 -34.5q0 -16 4 -31.5t15 -28t31 -20t52 -7.5q10 0 22 1.5t26 4.5t30 8t35 12h39v-100q-43 -24 -84.5 -38t-79.5 -21.5t-71.5 -9.5t-60.5 -2q-48 0 -79 17.5
t-49 44.5t-25 59.5t-7 61.5h-16q-56 -62 -110 -99.5t-104.5 -57t-97 -25.5t-86.5 -6zM1020 1489l135 255q17 32 34 55.5t35 38.5t38 22.5t43 7.5q45 0 65.5 -21.5t20.5 -51.5q0 -19 -8 -38.5t-21.5 -38t-30 -36t-32.5 -31.5l-226 -198zM733 1481l-336 -256l-53 45l275 307
q18 20 34.5 37t33.5 29t35.5 18.5t40.5 6.5q44 0 69 -25.5t46 -64.5l164 -308l-67 -45z" />
    <glyph glyph-name="uni1EA7" unicode="&#x1ea7;" horiz-adv-x="1280" 
d="M466 133q34 0 73 7t78 21.5t75.5 36.5t66.5 53l69 309q-117 0 -215 -8t-169 -35.5t-111 -79t-40 -138.5q0 -46 15.5 -77.5t40 -51t55.5 -28.5t62 -9zM348 -21q-70 0 -122.5 23.5t-87.5 62t-52.5 89t-17.5 104.5q0 81 27.5 143.5t73 109.5t105 79.5t124 53t129.5 29.5
t121 9q21 0 42.5 -1.5t45.5 -4t52 -5.5t63 -6l15 70q2 9 4 22t3.5 29.5t2 30.5t0.5 35q0 40 -16 69t-43 47t-62.5 26.5t-75.5 8.5q-51 0 -105 -18t-104.5 -43t-94 -52t-73.5 -44h-46v201l106 32q39 12 78.5 22.5t82.5 18.5t91 12.5t102 4.5q66 0 131.5 -13t118 -43t85.5 -80
t33 -125q0 -18 -1.5 -41t-4.5 -46t-6.5 -45.5t-7.5 -38.5l-63 -279q-6 -27 -12.5 -59t-12 -62t-9 -54.5t-3.5 -34.5q0 -16 4 -31.5t15 -28t31 -20t52 -7.5q10 0 22 1.5t26 4.5t30 8t35 12h39v-100q-43 -24 -84.5 -38t-79.5 -21.5t-71.5 -9.5t-60.5 -2q-48 0 -79 17.5
t-49 44.5t-25 59.5t-7 61.5h-16q-56 -62 -110 -99.5t-104.5 -57t-97 -25.5t-86.5 -6zM733 1481l-336 -256l-53 45l275 307q18 20 34.5 37t33.5 29t35.5 18.5t40.5 6.5q44 0 69 -25.5t46 -64.5l164 -308l-67 -45zM449 1494l-63 -45l-279 216q-15 12 -29 24t-24 25.5t-16 30
t-6 37.5q0 19 7 35t19 27t29 17.5t38 6.5t38.5 -4t33.5 -14t32 -27.5t35 -45.5z" />
    <glyph glyph-name="uni1EA9" unicode="&#x1ea9;" horiz-adv-x="1280" 
d="M466 133q34 0 73 7t78 21.5t75.5 36.5t66.5 53l69 309q-117 0 -215 -8t-169 -35.5t-111 -79t-40 -138.5q0 -46 15.5 -77.5t40 -51t55.5 -28.5t62 -9zM348 -21q-70 0 -122.5 23.5t-87.5 62t-52.5 89t-17.5 104.5q0 81 27.5 143.5t73 109.5t105 79.5t124 53t129.5 29.5
t121 9q21 0 42.5 -1.5t45.5 -4t52 -5.5t63 -6l15 70q2 9 4 22t3.5 29.5t2 30.5t0.5 35q0 40 -16 69t-43 47t-62.5 26.5t-75.5 8.5q-51 0 -105 -18t-104.5 -43t-94 -52t-73.5 -44h-46v201l106 32q39 12 78.5 22.5t82.5 18.5t91 12.5t102 4.5q66 0 131.5 -13t118 -43t85.5 -80
t33 -125q0 -18 -1.5 -41t-4.5 -46t-6.5 -45.5t-7.5 -38.5l-63 -279q-6 -27 -12.5 -59t-12 -62t-9 -54.5t-3.5 -34.5q0 -16 4 -31.5t15 -28t31 -20t52 -7.5q10 0 22 1.5t26 4.5t30 8t35 12h39v-100q-43 -24 -84.5 -38t-79.5 -21.5t-71.5 -9.5t-60.5 -2q-48 0 -79 17.5
t-49 44.5t-25 59.5t-7 61.5h-16q-56 -62 -110 -99.5t-104.5 -57t-97 -25.5t-86.5 -6zM1203 1808q31 0 59 -6t49 -18.5t33.5 -31.5t12.5 -44q0 -29 -11.5 -51.5t-29.5 -41.5t-39.5 -36.5t-41 -36.5t-35 -40.5t-21.5 -48.5l-3 -16h-110l5 23q10 45 36 74t53.5 53t49 47.5
t21.5 57.5q0 19 -14.5 30t-39.5 11q-20 0 -38.5 -7t-35 -18t-30.5 -23.5t-26 -22.5h-36l21 105q10 4 27 11t39 13.5t49 11.5t56 5zM733 1481l-336 -256l-53 45l275 307q18 20 34.5 37t33.5 29t35.5 18.5t40.5 6.5q44 0 69 -25.5t46 -64.5l164 -308l-67 -45z" />
    <glyph glyph-name="uni1EAB" unicode="&#x1eab;" horiz-adv-x="1280" 
d="M466 133q34 0 73 7t78 21.5t75.5 36.5t66.5 53l69 309q-117 0 -215 -8t-169 -35.5t-111 -79t-40 -138.5q0 -46 15.5 -77.5t40 -51t55.5 -28.5t62 -9zM348 -21q-70 0 -122.5 23.5t-87.5 62t-52.5 89t-17.5 104.5q0 81 27.5 143.5t73 109.5t105 79.5t124 53t129.5 29.5
t121 9q21 0 42.5 -1.5t45.5 -4t52 -5.5t63 -6l15 70q2 9 4 22t3.5 29.5t2 30.5t0.5 35q0 40 -16 69t-43 47t-62.5 26.5t-75.5 8.5q-51 0 -105 -18t-104.5 -43t-94 -52t-73.5 -44h-46v201l106 32q39 12 78.5 22.5t82.5 18.5t91 12.5t102 4.5q66 0 131.5 -13t118 -43t85.5 -80
t33 -125q0 -18 -1.5 -41t-4.5 -46t-6.5 -45.5t-7.5 -38.5l-63 -279q-6 -27 -12.5 -59t-12 -62t-9 -54.5t-3.5 -34.5q0 -16 4 -31.5t15 -28t31 -20t52 -7.5q10 0 22 1.5t26 4.5t30 8t35 12h39v-100q-43 -24 -84.5 -38t-79.5 -21.5t-71.5 -9.5t-60.5 -2q-48 0 -79 17.5
t-49 44.5t-25 59.5t-7 61.5h-16q-56 -62 -110 -99.5t-104.5 -57t-97 -25.5t-86.5 -6zM420 1675q18 49 46 92.5t65.5 76.5t84 52.5t100.5 19.5q39 0 73.5 -11t67.5 -23.5t65.5 -23.5t67.5 -11q44 0 72.5 24.5t45.5 59.5h99q-16 -48 -43 -91.5t-63.5 -76.5t-82.5 -52.5
t-100 -19.5q-39 0 -73 11t-66 24.5t-65 25t-70 11.5q-45 0 -77 -26t-49 -62h-98zM733 1461l-336 -236l-53 45l275 292q36 38 68 62t76 24t69 -24t46 -61l164 -293l-67 -45z" />
    <glyph glyph-name="atilde" unicode="&#xe3;" horiz-adv-x="1280" 
d="M466 133q34 0 73 7t78 21.5t75.5 36.5t66.5 53l69 309q-117 0 -215 -8t-169 -35.5t-111 -79t-40 -138.5q0 -46 15.5 -77.5t40 -51t55.5 -28.5t62 -9zM348 -21q-70 0 -122.5 23.5t-87.5 62t-52.5 89t-17.5 104.5q0 81 27.5 143.5t73 109.5t105 79.5t124 53t129.5 29.5
t121 9q21 0 42.5 -1.5t45.5 -4t52 -5.5t63 -6l15 70q2 9 4 22t3.5 29.5t2 30.5t0.5 35q0 40 -16 69t-43 47t-62.5 26.5t-75.5 8.5q-51 0 -105 -18t-104.5 -43t-94 -52t-73.5 -44h-46v201l106 32q39 12 78.5 22.5t82.5 18.5t91 12.5t102 4.5q66 0 131.5 -13t118 -43t85.5 -80
t33 -125q0 -18 -1.5 -41t-4.5 -46t-6.5 -45.5t-7.5 -38.5l-63 -279q-6 -27 -12.5 -59t-12 -62t-9 -54.5t-3.5 -34.5q0 -16 4 -31.5t15 -28t31 -20t52 -7.5q10 0 22 1.5t26 4.5t30 8t35 12h39v-100q-43 -24 -84.5 -38t-79.5 -21.5t-71.5 -9.5t-60.5 -2q-48 0 -79 17.5
t-49 44.5t-25 59.5t-7 61.5h-16q-56 -62 -110 -99.5t-104.5 -57t-97 -25.5t-86.5 -6zM446 1276h-98q11 55 36.5 104t61 86t78.5 59t90 22q43 0 80.5 -15.5t72 -34t67 -34t66.5 -15.5q16 0 31.5 7t29 21t24.5 35.5t19 50.5h99q-11 -54 -35 -103t-58.5 -86t-77 -59t-90.5 -22
q-44 0 -80 16t-69.5 35t-65.5 35t-67 16q-15 0 -32 -7t-32.5 -21t-28.5 -36.5t-21 -53.5z" />
    <glyph glyph-name="adieresis" unicode="&#xe4;" horiz-adv-x="1280" 
d="M466 133q34 0 73 7t78 21.5t75.5 36.5t66.5 53l69 309q-117 0 -215 -8t-169 -35.5t-111 -79t-40 -138.5q0 -46 15.5 -77.5t40 -51t55.5 -28.5t62 -9zM348 -21q-70 0 -122.5 23.5t-87.5 62t-52.5 89t-17.5 104.5q0 81 27.5 143.5t73 109.5t105 79.5t124 53t129.5 29.5
t121 9q21 0 42.5 -1.5t45.5 -4t52 -5.5t63 -6l15 70q2 9 4 22t3.5 29.5t2 30.5t0.5 35q0 40 -16 69t-43 47t-62.5 26.5t-75.5 8.5q-51 0 -105 -18t-104.5 -43t-94 -52t-73.5 -44h-46v201l106 32q39 12 78.5 22.5t82.5 18.5t91 12.5t102 4.5q66 0 131.5 -13t118 -43t85.5 -80
t33 -125q0 -18 -1.5 -41t-4.5 -46t-6.5 -45.5t-7.5 -38.5l-63 -279q-6 -27 -12.5 -59t-12 -62t-9 -54.5t-3.5 -34.5q0 -16 4 -31.5t15 -28t31 -20t52 -7.5q10 0 22 1.5t26 4.5t30 8t35 12h39v-100q-43 -24 -84.5 -38t-79.5 -21.5t-71.5 -9.5t-60.5 -2q-48 0 -79 17.5
t-49 44.5t-25 59.5t-7 61.5h-16q-56 -62 -110 -99.5t-104.5 -57t-97 -25.5t-86.5 -6zM486 1294q-26 0 -49.5 8t-41 23t-28 37t-10.5 50q0 31 10.5 54t28 38.5t41 23.5t49.5 8q30 0 55 -7t43 -21t27.5 -35.5t9.5 -50.5q0 -30 -10.5 -54t-28.5 -40.5t-42.5 -25t-53.5 -8.5z
M948 1294q-26 0 -49.5 8t-41 23t-28 37t-10.5 50q0 31 10.5 54t28 38.5t41 23.5t49.5 8q30 0 55 -7t43 -21t27.5 -35.5t9.5 -50.5q0 -30 -10.5 -54t-28.5 -40.5t-42.5 -25t-53.5 -8.5z" />
    <glyph glyph-name="amacron" unicode="&#x101;" horiz-adv-x="1280" 
d="M466 133q34 0 73 7t78 21.5t75.5 36.5t66.5 53l69 309q-117 0 -215 -8t-169 -35.5t-111 -79t-40 -138.5q0 -46 15.5 -77.5t40 -51t55.5 -28.5t62 -9zM348 -21q-70 0 -122.5 23.5t-87.5 62t-52.5 89t-17.5 104.5q0 81 27.5 143.5t73 109.5t105 79.5t124 53t129.5 29.5
t121 9q21 0 42.5 -1.5t45.5 -4t52 -5.5t63 -6l15 70q2 9 4 22t3.5 29.5t2 30.5t0.5 35q0 40 -16 69t-43 47t-62.5 26.5t-75.5 8.5q-51 0 -105 -18t-104.5 -43t-94 -52t-73.5 -44h-46v201l106 32q39 12 78.5 22.5t82.5 18.5t91 12.5t102 4.5q66 0 131.5 -13t118 -43t85.5 -80
t33 -125q0 -18 -1.5 -41t-4.5 -46t-6.5 -45.5t-7.5 -38.5l-63 -279q-6 -27 -12.5 -59t-12 -62t-9 -54.5t-3.5 -34.5q0 -16 4 -31.5t15 -28t31 -20t52 -7.5q10 0 22 1.5t26 4.5t30 8t35 12h39v-100q-43 -24 -84.5 -38t-79.5 -21.5t-71.5 -9.5t-60.5 -2q-48 0 -79 17.5
t-49 44.5t-25 59.5t-7 61.5h-16q-56 -62 -110 -99.5t-104.5 -57t-97 -25.5t-86.5 -6zM1119 1354h-715l32 142h715z" />
    <glyph glyph-name="abreve" unicode="&#x103;" horiz-adv-x="1280" 
d="M466 133q34 0 73 7t78 21.5t75.5 36.5t66.5 53l69 309q-117 0 -215 -8t-169 -35.5t-111 -79t-40 -138.5q0 -46 15.5 -77.5t40 -51t55.5 -28.5t62 -9zM348 -21q-70 0 -122.5 23.5t-87.5 62t-52.5 89t-17.5 104.5q0 81 27.5 143.5t73 109.5t105 79.5t124 53t129.5 29.5
t121 9q21 0 42.5 -1.5t45.5 -4t52 -5.5t63 -6l15 70q2 9 4 22t3.5 29.5t2 30.5t0.5 35q0 40 -16 69t-43 47t-62.5 26.5t-75.5 8.5q-51 0 -105 -18t-104.5 -43t-94 -52t-73.5 -44h-46v201l106 32q39 12 78.5 22.5t82.5 18.5t91 12.5t102 4.5q66 0 131.5 -13t118 -43t85.5 -80
t33 -125q0 -18 -1.5 -41t-4.5 -46t-6.5 -45.5t-7.5 -38.5l-63 -279q-6 -27 -12.5 -59t-12 -62t-9 -54.5t-3.5 -34.5q0 -16 4 -31.5t15 -28t31 -20t52 -7.5q10 0 22 1.5t26 4.5t30 8t35 12h39v-100q-43 -24 -84.5 -38t-79.5 -21.5t-71.5 -9.5t-60.5 -2q-48 0 -79 17.5
t-49 44.5t-25 59.5t-7 61.5h-16q-56 -62 -110 -99.5t-104.5 -57t-97 -25.5t-86.5 -6zM742 1262q-149 0 -219 96t-66 296l88 14q8 -54 19 -98.5t34 -77t63 -50.5t106 -18q64 0 110 17t81 49t62.5 77t54.5 101l84 -14q-62 -202 -165 -297t-252 -95z" />
    <glyph glyph-name="uni1EAF" unicode="&#x1eaf;" horiz-adv-x="1280" 
d="M466 133q34 0 73 7t78 21.5t75.5 36.5t66.5 53l69 309q-117 0 -215 -8t-169 -35.5t-111 -79t-40 -138.5q0 -46 15.5 -77.5t40 -51t55.5 -28.5t62 -9zM348 -21q-70 0 -122.5 23.5t-87.5 62t-52.5 89t-17.5 104.5q0 81 27.5 143.5t73 109.5t105 79.5t124 53t129.5 29.5
t121 9q21 0 42.5 -1.5t45.5 -4t52 -5.5t63 -6l15 70q2 9 4 22t3.5 29.5t2 30.5t0.5 35q0 40 -16 69t-43 47t-62.5 26.5t-75.5 8.5q-51 0 -105 -18t-104.5 -43t-94 -52t-73.5 -44h-46v201l106 32q39 12 78.5 22.5t82.5 18.5t91 12.5t102 4.5q66 0 131.5 -13t118 -43t85.5 -80
t33 -125q0 -18 -1.5 -41t-4.5 -46t-6.5 -45.5t-7.5 -38.5l-63 -279q-6 -27 -12.5 -59t-12 -62t-9 -54.5t-3.5 -34.5q0 -16 4 -31.5t15 -28t31 -20t52 -7.5q10 0 22 1.5t26 4.5t30 8t35 12h39v-100q-43 -24 -84.5 -38t-79.5 -21.5t-71.5 -9.5t-60.5 -2q-48 0 -79 17.5
t-49 44.5t-25 59.5t-7 61.5h-16q-56 -62 -110 -99.5t-104.5 -57t-97 -25.5t-86.5 -6zM544 1668q6 -54 15 -98.5t31.5 -77t61.5 -50.5t105 -18q64 0 110 17t82 49t65 77t59 101l83 -14q-73 -202 -178.5 -297t-254.5 -95t-216 96t-52 296zM708 1552l112 241q21 45 40.5 76.5
t39.5 50.5t42 27.5t49 8.5q42 0 60.5 -19t18.5 -53q0 -20 -7 -40t-18.5 -38.5t-25.5 -35.5t-29 -31l-225 -223z" />
    <glyph glyph-name="uni1EB1" unicode="&#x1eb1;" horiz-adv-x="1280" 
d="M466 133q34 0 73 7t78 21.5t75.5 36.5t66.5 53l69 309q-117 0 -215 -8t-169 -35.5t-111 -79t-40 -138.5q0 -46 15.5 -77.5t40 -51t55.5 -28.5t62 -9zM348 -21q-70 0 -122.5 23.5t-87.5 62t-52.5 89t-17.5 104.5q0 81 27.5 143.5t73 109.5t105 79.5t124 53t129.5 29.5
t121 9q21 0 42.5 -1.5t45.5 -4t52 -5.5t63 -6l15 70q2 9 4 22t3.5 29.5t2 30.5t0.5 35q0 40 -16 69t-43 47t-62.5 26.5t-75.5 8.5q-51 0 -105 -18t-104.5 -43t-94 -52t-73.5 -44h-46v201l106 32q39 12 78.5 22.5t82.5 18.5t91 12.5t102 4.5q66 0 131.5 -13t118 -43t85.5 -80
t33 -125q0 -18 -1.5 -41t-4.5 -46t-6.5 -45.5t-7.5 -38.5l-63 -279q-6 -27 -12.5 -59t-12 -62t-9 -54.5t-3.5 -34.5q0 -16 4 -31.5t15 -28t31 -20t52 -7.5q10 0 22 1.5t26 4.5t30 8t35 12h39v-100q-43 -24 -84.5 -38t-79.5 -21.5t-71.5 -9.5t-60.5 -2q-48 0 -79 17.5
t-49 44.5t-25 59.5t-7 61.5h-16q-56 -62 -110 -99.5t-104.5 -57t-97 -25.5t-86.5 -6zM544 1668q6 -54 15 -98.5t31.5 -77t61.5 -50.5t105 -18q64 0 110 17t82 49t65 77t59 101l83 -14q-73 -202 -178.5 -297t-254.5 -95t-216 96t-52 296zM789 1516l-122 215q-22 40 -32 68
t-10 58q0 24 10.5 42.5t26.5 31t35.5 19t37.5 6.5q23 0 40.5 -5.5t29.5 -20.5t19.5 -41t11.5 -67l26 -277z" />
    <glyph glyph-name="uni1EB3" unicode="&#x1eb3;" horiz-adv-x="1280" 
d="M466 133q34 0 73 7t78 21.5t75.5 36.5t66.5 53l69 309q-117 0 -215 -8t-169 -35.5t-111 -79t-40 -138.5q0 -46 15.5 -77.5t40 -51t55.5 -28.5t62 -9zM348 -21q-70 0 -122.5 23.5t-87.5 62t-52.5 89t-17.5 104.5q0 81 27.5 143.5t73 109.5t105 79.5t124 53t129.5 29.5
t121 9q21 0 42.5 -1.5t45.5 -4t52 -5.5t63 -6l15 70q2 9 4 22t3.5 29.5t2 30.5t0.5 35q0 40 -16 69t-43 47t-62.5 26.5t-75.5 8.5q-51 0 -105 -18t-104.5 -43t-94 -52t-73.5 -44h-46v201l106 32q39 12 78.5 22.5t82.5 18.5t91 12.5t102 4.5q66 0 131.5 -13t118 -43t85.5 -80
t33 -125q0 -18 -1.5 -41t-4.5 -46t-6.5 -45.5t-7.5 -38.5l-63 -279q-6 -27 -12.5 -59t-12 -62t-9 -54.5t-3.5 -34.5q0 -16 4 -31.5t15 -28t31 -20t52 -7.5q10 0 22 1.5t26 4.5t30 8t35 12h39v-100q-43 -24 -84.5 -38t-79.5 -21.5t-71.5 -9.5t-60.5 -2q-48 0 -79 17.5
t-49 44.5t-25 59.5t-7 61.5h-16q-56 -62 -110 -99.5t-104.5 -57t-97 -25.5t-86.5 -6zM544 1668q6 -54 15 -98.5t31.5 -77t61.5 -50.5t105 -18q64 0 110 17t82 49t65 77t59 101l83 -14q-73 -202 -178.5 -297t-254.5 -95t-216 96t-52 296zM843 1898q31 0 59 -6t49 -18.5
t33.5 -31.5t12.5 -44q0 -29 -11.5 -52t-29.5 -42.5t-39.5 -37.5t-41.5 -36.5t-35.5 -39.5t-20.5 -47l-3 -16h-110l5 23q6 30 20.5 53t32.5 42t37 34.5t34.5 31.5t25.5 33t10 38q0 19 -14.5 30t-39.5 11q-20 0 -38.5 -7t-35 -18t-30.5 -23.5t-26 -22.5h-36l21 105q10 4 27 11
t39 13.5t49 11.5t56 5z" />
    <glyph glyph-name="uni1EB5" unicode="&#x1eb5;" horiz-adv-x="1280" 
d="M466 133q34 0 73 7t78 21.5t75.5 36.5t66.5 53l69 309q-117 0 -215 -8t-169 -35.5t-111 -79t-40 -138.5q0 -46 15.5 -77.5t40 -51t55.5 -28.5t62 -9zM348 -21q-70 0 -122.5 23.5t-87.5 62t-52.5 89t-17.5 104.5q0 81 27.5 143.5t73 109.5t105 79.5t124 53t129.5 29.5
t121 9q21 0 42.5 -1.5t45.5 -4t52 -5.5t63 -6l15 70q2 9 4 22t3.5 29.5t2 30.5t0.5 35q0 40 -16 69t-43 47t-62.5 26.5t-75.5 8.5q-51 0 -105 -18t-104.5 -43t-94 -52t-73.5 -44h-46v201l106 32q39 12 78.5 22.5t82.5 18.5t91 12.5t102 4.5q66 0 131.5 -13t118 -43t85.5 -80
t33 -125q0 -18 -1.5 -41t-4.5 -46t-6.5 -45.5t-7.5 -38.5l-63 -279q-6 -27 -12.5 -59t-12 -62t-9 -54.5t-3.5 -34.5q0 -16 4 -31.5t15 -28t31 -20t52 -7.5q10 0 22 1.5t26 4.5t30 8t35 12h39v-100q-43 -24 -84.5 -38t-79.5 -21.5t-71.5 -9.5t-60.5 -2q-48 0 -79 17.5
t-49 44.5t-25 59.5t-7 61.5h-16q-56 -62 -110 -99.5t-104.5 -57t-97 -25.5t-86.5 -6zM549 1652q6 -51 15 -93t31 -72t60 -46.5t102 -16.5q62 0 106.5 15.5t79 45t62.5 71.5t57 96l83 -14q-36 -98 -79 -169t-95 -117t-113.5 -68t-134.5 -22t-126 22t-86 68.5t-46 117
t-5 168.5zM451 1720q18 49 46 92.5t65.5 76.5t84 52.5t100.5 19.5q39 0 73.5 -11t67.5 -23.5t65.5 -23.5t67.5 -11q44 0 72.5 24.5t45.5 59.5h99q-16 -48 -43 -91.5t-63.5 -76.5t-82.5 -52.5t-100 -19.5q-39 0 -73 11t-66 24.5t-65 25t-70 11.5q-45 0 -77 -26t-49 -62h-98z
" />
    <glyph glyph-name="aring" unicode="&#xe5;" horiz-adv-x="1280" 
d="M466 133q34 0 73 7t78 21.5t75.5 36.5t66.5 53l69 309q-117 0 -215 -8t-169 -35.5t-111 -79t-40 -138.5q0 -46 15.5 -77.5t40 -51t55.5 -28.5t62 -9zM348 -21q-70 0 -122.5 23.5t-87.5 62t-52.5 89t-17.5 104.5q0 81 27.5 143.5t73 109.5t105 79.5t124 53t129.5 29.5
t121 9q21 0 42.5 -1.5t45.5 -4t52 -5.5t63 -6l15 70q2 9 4 22t3.5 29.5t2 30.5t0.5 35q0 40 -16 69t-43 47t-62.5 26.5t-75.5 8.5q-51 0 -105 -18t-104.5 -43t-94 -52t-73.5 -44h-46v201l106 32q39 12 78.5 22.5t82.5 18.5t91 12.5t102 4.5q66 0 131.5 -13t118 -43t85.5 -80
t33 -125q0 -18 -1.5 -41t-4.5 -46t-6.5 -45.5t-7.5 -38.5l-63 -279q-6 -27 -12.5 -59t-12 -62t-9 -54.5t-3.5 -34.5q0 -16 4 -31.5t15 -28t31 -20t52 -7.5q10 0 22 1.5t26 4.5t30 8t35 12h39v-100q-43 -24 -84.5 -38t-79.5 -21.5t-71.5 -9.5t-60.5 -2q-48 0 -79 17.5
t-49 44.5t-25 59.5t-7 61.5h-16q-56 -62 -110 -99.5t-104.5 -57t-97 -25.5t-86.5 -6zM718 1311q33 0 61 15t48 42t31 63t11 78q0 60 -28 96.5t-79 36.5q-39 0 -68.5 -16.5t-49.5 -43.5t-30 -63t-10 -75q0 -61 31.5 -97t82.5 -36zM690 1229q-51 0 -93 13t-72.5 38.5t-47 62
t-16.5 84.5q0 64 24 118.5t67 94t103 62t131 22.5q51 0 92.5 -13t71 -38t46 -61t16.5 -82q0 -65 -24 -120.5t-67 -95.5t-102 -62.5t-129 -22.5z" />
    <glyph glyph-name="aringacute" unicode="&#x1fb;" horiz-adv-x="1280" 
d="M466 133q34 0 73 7t78 21.5t75.5 36.5t66.5 53l69 309q-117 0 -215 -8t-169 -35.5t-111 -79t-40 -138.5q0 -46 15.5 -77.5t40 -51t55.5 -28.5t62 -9zM348 -21q-70 0 -122.5 23.5t-87.5 62t-52.5 89t-17.5 104.5q0 81 27.5 143.5t73 109.5t105 79.5t124 53t129.5 29.5
t121 9q21 0 42.5 -1.5t45.5 -4t52 -5.5t63 -6l15 70q2 9 4 22t3.5 29.5t2 30.5t0.5 35q0 40 -16 69t-43 47t-62.5 26.5t-75.5 8.5q-51 0 -105 -18t-104.5 -43t-94 -52t-73.5 -44h-46v201l106 32q39 12 78.5 22.5t82.5 18.5t91 12.5t102 4.5q66 0 131.5 -13t118 -43t85.5 -80
t33 -125q0 -18 -1.5 -41t-4.5 -46t-6.5 -45.5t-7.5 -38.5l-63 -279q-6 -27 -12.5 -59t-12 -62t-9 -54.5t-3.5 -34.5q0 -16 4 -31.5t15 -28t31 -20t52 -7.5q10 0 22 1.5t26 4.5t30 8t35 12h39v-100q-43 -24 -84.5 -38t-79.5 -21.5t-71.5 -9.5t-60.5 -2q-48 0 -79 17.5
t-49 44.5t-25 59.5t-7 61.5h-16q-56 -62 -110 -99.5t-104.5 -57t-97 -25.5t-86.5 -6zM718 1302q33 0 61 15t48 42t31 63t11 78q0 60 -28 96.5t-79 36.5q-39 0 -68.5 -16.5t-49.5 -43.5t-30 -63t-10 -75q0 -61 31.5 -97t82.5 -36zM690 1220q-51 0 -93 13t-72.5 38.5t-47 62
t-16.5 84.5q0 64 24 118.5t67 94t103 62t131 22.5q51 0 92.5 -13t71 -38t46 -61t16.5 -82q0 -65 -24 -120.5t-67 -95.5t-102 -62.5t-129 -22.5zM561 1729l-57 45q59 78 103 138t77.5 104.5t59.5 74.5t49 48.5t46 26.5t51 8q21 0 38 -7t29 -19t18 -26.5t6 -29.5
q0 -23 -5.5 -40t-16 -31.5t-26.5 -28t-37 -29.5z" />
    <glyph glyph-name="uni1EA3" unicode="&#x1ea3;" horiz-adv-x="1280" 
d="M466 133q34 0 73 7t78 21.5t75.5 36.5t66.5 53l69 309q-117 0 -215 -8t-169 -35.5t-111 -79t-40 -138.5q0 -46 15.5 -77.5t40 -51t55.5 -28.5t62 -9zM348 -21q-70 0 -122.5 23.5t-87.5 62t-52.5 89t-17.5 104.5q0 81 27.5 143.5t73 109.5t105 79.5t124 53t129.5 29.5
t121 9q21 0 42.5 -1.5t45.5 -4t52 -5.5t63 -6l15 70q2 9 4 22t3.5 29.5t2 30.5t0.5 35q0 40 -16 69t-43 47t-62.5 26.5t-75.5 8.5q-51 0 -105 -18t-104.5 -43t-94 -52t-73.5 -44h-46v201l106 32q39 12 78.5 22.5t82.5 18.5t91 12.5t102 4.5q66 0 131.5 -13t118 -43t85.5 -80
t33 -125q0 -18 -1.5 -41t-4.5 -46t-6.5 -45.5t-7.5 -38.5l-63 -279q-6 -27 -12.5 -59t-12 -62t-9 -54.5t-3.5 -34.5q0 -16 4 -31.5t15 -28t31 -20t52 -7.5q10 0 22 1.5t26 4.5t30 8t35 12h39v-100q-43 -24 -84.5 -38t-79.5 -21.5t-71.5 -9.5t-60.5 -2q-48 0 -79 17.5
t-49 44.5t-25 59.5t-7 61.5h-16q-56 -62 -110 -99.5t-104.5 -57t-97 -25.5t-86.5 -6zM828 1696q80 0 127 -24.5t47 -83.5q0 -35 -14 -63t-35.5 -53.5t-47 -49.5t-49.5 -49t-43 -53t-26 -61l-6 -31h-124l8 39q8 37 25.5 64.5t39.5 50t45.5 42t42.5 39.5t31.5 43t12.5 53
q0 10 -2.5 19t-8.5 16t-16 11t-25 4q-25 0 -49.5 -7.5t-47 -19t-41.5 -24.5t-34 -25h-45l24 112q12 5 33 13.5t48.5 17t60.5 14.5t69 6z" />
    <glyph glyph-name="uni1EA1" unicode="&#x1ea1;" horiz-adv-x="1280" 
d="M466 133q34 0 73 7t78 21.5t75.5 36.5t66.5 53l69 309q-117 0 -215 -8t-169 -35.5t-111 -79t-40 -138.5q0 -46 15.5 -77.5t40 -51t55.5 -28.5t62 -9zM348 -21q-70 0 -122.5 23.5t-87.5 62t-52.5 89t-17.5 104.5q0 81 27.5 143.5t73 109.5t105 79.5t124 53t129.5 29.5
t121 9q21 0 42.5 -1.5t45.5 -4t52 -5.5t63 -6l15 70q2 9 4 22t3.5 29.5t2 30.5t0.5 35q0 40 -16 69t-43 47t-62.5 26.5t-75.5 8.5q-51 0 -105 -18t-104.5 -43t-94 -52t-73.5 -44h-46v201l106 32q39 12 78.5 22.5t82.5 18.5t91 12.5t102 4.5q66 0 131.5 -13t118 -43t85.5 -80
t33 -125q0 -18 -1.5 -41t-4.5 -46t-6.5 -45.5t-7.5 -38.5l-63 -279q-6 -27 -12.5 -59t-12 -62t-9 -54.5t-3.5 -34.5q0 -16 4 -31.5t15 -28t31 -20t52 -7.5q10 0 22 1.5t26 4.5t30 8t35 12h39v-100q-43 -24 -84.5 -38t-79.5 -21.5t-71.5 -9.5t-60.5 -2q-48 0 -79 17.5
t-49 44.5t-25 59.5t-7 61.5h-16q-56 -62 -110 -99.5t-104.5 -57t-97 -25.5t-86.5 -6zM445 -425q-26 0 -48 7t-38.5 20.5t-26 33t-9.5 44.5q0 37 15.5 66t40.5 49t57 30t65 10q30 0 54 -6t41 -18.5t26 -31t9 -42.5q0 -37 -14.5 -67t-40 -51t-59.5 -32.5t-72 -11.5z" />
    <glyph glyph-name="uni1EAD" unicode="&#x1ead;" horiz-adv-x="1280" 
d="M466 133q34 0 73 7t78 21.5t75.5 36.5t66.5 53l69 309q-117 0 -215 -8t-169 -35.5t-111 -79t-40 -138.5q0 -46 15.5 -77.5t40 -51t55.5 -28.5t62 -9zM348 -21q-70 0 -122.5 23.5t-87.5 62t-52.5 89t-17.5 104.5q0 81 27.5 143.5t73 109.5t105 79.5t124 53t129.5 29.5
t121 9q21 0 42.5 -1.5t45.5 -4t52 -5.5t63 -6l15 70q2 9 4 22t3.5 29.5t2 30.5t0.5 35q0 40 -16 69t-43 47t-62.5 26.5t-75.5 8.5q-51 0 -105 -18t-104.5 -43t-94 -52t-73.5 -44h-46v201l106 32q39 12 78.5 22.5t82.5 18.5t91 12.5t102 4.5q66 0 131.5 -13t118 -43t85.5 -80
t33 -125q0 -18 -1.5 -41t-4.5 -46t-6.5 -45.5t-7.5 -38.5l-63 -279q-6 -27 -12.5 -59t-12 -62t-9 -54.5t-3.5 -34.5q0 -16 4 -31.5t15 -28t31 -20t52 -7.5q10 0 22 1.5t26 4.5t30 8t35 12h39v-100q-43 -24 -84.5 -38t-79.5 -21.5t-71.5 -9.5t-60.5 -2q-48 0 -79 17.5
t-49 44.5t-25 59.5t-7 61.5h-16q-56 -62 -110 -99.5t-104.5 -57t-97 -25.5t-86.5 -6zM771 1481l-336 -256l-53 45l275 307q18 20 34.5 37t33.5 29t35.5 18.5t40.5 6.5q44 0 69 -25.5t46 -64.5l164 -308l-67 -45zM445 -425q-26 0 -48 7t-38.5 20.5t-26 33t-9.5 44.5
q0 37 15.5 66t40.5 49t57 30t65 10q30 0 54 -6t41 -18.5t26 -31t9 -42.5q0 -37 -14.5 -67t-40 -51t-59.5 -32.5t-72 -11.5z" />
    <glyph glyph-name="uni1EB7" unicode="&#x1eb7;" horiz-adv-x="1280" 
d="M466 133q34 0 73 7t78 21.5t75.5 36.5t66.5 53l69 309q-117 0 -215 -8t-169 -35.5t-111 -79t-40 -138.5q0 -46 15.5 -77.5t40 -51t55.5 -28.5t62 -9zM348 -21q-70 0 -122.5 23.5t-87.5 62t-52.5 89t-17.5 104.5q0 81 27.5 143.5t73 109.5t105 79.5t124 53t129.5 29.5
t121 9q21 0 42.5 -1.5t45.5 -4t52 -5.5t63 -6l15 70q2 9 4 22t3.5 29.5t2 30.5t0.5 35q0 40 -16 69t-43 47t-62.5 26.5t-75.5 8.5q-51 0 -105 -18t-104.5 -43t-94 -52t-73.5 -44h-46v201l106 32q39 12 78.5 22.5t82.5 18.5t91 12.5t102 4.5q66 0 131.5 -13t118 -43t85.5 -80
t33 -125q0 -18 -1.5 -41t-4.5 -46t-6.5 -45.5t-7.5 -38.5l-63 -279q-6 -27 -12.5 -59t-12 -62t-9 -54.5t-3.5 -34.5q0 -16 4 -31.5t15 -28t31 -20t52 -7.5q10 0 22 1.5t26 4.5t30 8t35 12h39v-100q-43 -24 -84.5 -38t-79.5 -21.5t-71.5 -9.5t-60.5 -2q-48 0 -79 17.5
t-49 44.5t-25 59.5t-7 61.5h-16q-56 -62 -110 -99.5t-104.5 -57t-97 -25.5t-86.5 -6zM742 1262q-149 0 -219 96t-66 296l88 14q8 -54 19 -98.5t34 -77t63 -50.5t106 -18q64 0 110 17t81 49t62.5 77t54.5 101l84 -14q-62 -202 -165 -297t-252 -95zM445 -425q-26 0 -48 7
t-38.5 20.5t-26 33t-9.5 44.5q0 37 15.5 66t40.5 49t57 30t65 10q30 0 54 -6t41 -18.5t26 -31t9 -42.5q0 -37 -14.5 -67t-40 -51t-59.5 -32.5t-72 -11.5z" />
    <glyph glyph-name="aogonek" unicode="&#x105;" horiz-adv-x="1280" 
d="M466 133q34 0 73 7t78 21.5t75.5 36.5t66.5 53l69 309q-117 0 -215 -8t-169 -35.5t-111 -79t-40 -138.5q0 -46 15.5 -77.5t40 -51t55.5 -28.5t62 -9zM829 -462q-59 0 -100 15.5t-66.5 40t-37 56t-11.5 64.5q0 48 19 90t49.5 78t69.5 67.5t79 59.5q-20 13 -33 31.5t-21 40
t-11.5 44t-3.5 42.5h-16q-56 -62 -110.5 -99t-105 -57t-96.5 -26t-86 -6q-70 0 -122.5 23.5t-87.5 62t-52.5 89t-17.5 104.5q0 81 27.5 143.5t73 109.5t105 79.5t124 53t129.5 29.5t121 9q11 0 40.5 -2t62 -5t61.5 -6t39 -4l15 70q3 12 4.5 27.5l3 31t2 31t0.5 27.5
q0 40 -16 69t-43 47t-62.5 26.5t-75.5 8.5q-51 0 -105 -18t-104 -43t-93.5 -51.5t-74.5 -44.5h-46v201q54 16 105.5 32t106 29t115.5 21t133 8q66 0 131.5 -13t118 -43t85.5 -80t33 -125q0 -18 -1.5 -41t-4.5 -46t-6.5 -45.5t-7.5 -38.5l-63 -279q-6 -27 -12.5 -59t-12 -62
t-9 -54.5t-3.5 -34.5q0 -16 4 -31.5t15 -28t31 -20t52 -7.5q10 0 22 1.5t26 4.5t30 8t35 12h39v-100q-43 -24 -84.5 -38t-79.5 -21.5t-71.5 -9.5t-60.5 -2h-7h-7q-27 -22 -51 -46t-42 -51t-28.5 -56.5t-10.5 -62.5q0 -21 7 -41.5t20.5 -36.5t34 -26t47.5 -10q26 0 55 9.5
t54 21.5h17v-112q-48 -18 -97 -26.5t-85 -8.5z" />
    <glyph glyph-name="ae" unicode="&#xe6;" horiz-adv-x="1831" 
d="M464 133q34 0 73 7t78 21.5t75.5 36.5t66.5 53l69 309q-117 0 -215 -8t-169 -35.5t-111 -79t-40 -138.5q0 -46 15.5 -77.5t40 -51t55.5 -28.5t62 -9zM1184 635q81 0 147.5 14t113.5 44.5t72.5 79t25.5 116.5q0 32 -11.5 56.5t-31.5 41t-46 25t-55 8.5q-63 0 -121 -28
t-106 -78t-84.5 -119t-55.5 -151q35 -2 74.5 -5.5t77.5 -3.5zM1213 -22q-39 0 -90.5 11.5t-104 39.5t-100.5 76t-79 120h-16q-60 -81 -122.5 -130t-122.5 -74.5t-116.5 -33.5t-105.5 -8q-70 0 -124 23.5t-91 62t-56 89t-19 104.5q0 81 27.5 143.5t73 109.5t105 79.5t124 53
t129.5 29.5t121 9q6 0 23 -1.5t39.5 -3t47.5 -4t45.5 -4t34 -3l13.5 -1.5l15 70q3 12 5 27.5t3.5 31t2.5 31t1 27.5q0 40 -16 69t-43.5 47t-63.5 26.5t-76 8.5q-53 0 -107 -18t-103.5 -42.5t-92.5 -51.5t-74 -45h-46v201l102 32t106.5 29t117.5 21t134 8q51 0 101 -8
t94.5 -25.5t81 -45t59.5 -66.5q38 33 80.5 59.5t89.5 45.5t98 29.5t105 10.5q58 0 118.5 -13.5t110 -43.5t81 -79t31.5 -119q0 -66 -24.5 -118t-67 -91.5t-100 -67t-122.5 -45t-135 -25.5t-138 -8q-23 0 -47 1.5t-46.5 3.5t-42.5 4t-35 4q-1 -9 -2 -15.5t-1.5 -13t-0.5 -13
v-14.5q0 -75 17 -138.5t54.5 -110.5t96.5 -73.5t143 -26.5q52 0 98.5 13t90 33t84 45.5t80.5 49.5h45v-140q-66 -37 -126.5 -66t-120 -49.5t-121 -31.5t-130.5 -11z" />
    <glyph glyph-name="aeacute" unicode="&#x1fd;" horiz-adv-x="1831" 
d="M464 133q34 0 73 7t78 21.5t75.5 36.5t66.5 53l69 309q-117 0 -215 -8t-169 -35.5t-111 -79t-40 -138.5q0 -46 15.5 -77.5t40 -51t55.5 -28.5t62 -9zM1184 635q81 0 147.5 14t113.5 44.5t72.5 79t25.5 116.5q0 32 -11.5 56.5t-31.5 41t-46 25t-55 8.5q-63 0 -121 -28
t-106 -78t-84.5 -119t-55.5 -151q35 -2 74.5 -5.5t77.5 -3.5zM1213 -22q-39 0 -90.5 11.5t-104 39.5t-100.5 76t-79 120h-16q-60 -81 -122.5 -130t-122.5 -74.5t-116.5 -33.5t-105.5 -8q-70 0 -124 23.5t-91 62t-56 89t-19 104.5q0 81 27.5 143.5t73 109.5t105 79.5t124 53
t129.5 29.5t121 9q6 0 23 -1.5t39.5 -3t47.5 -4t45.5 -4t34 -3l13.5 -1.5l15 70q3 12 5 27.5t3.5 31t2.5 31t1 27.5q0 40 -16 69t-43.5 47t-63.5 26.5t-76 8.5q-53 0 -107 -18t-103.5 -42.5t-92.5 -51.5t-74 -45h-46v201l102 32t106.5 29t117.5 21t134 8q51 0 101 -8
t94.5 -25.5t81 -45t59.5 -66.5q38 33 80.5 59.5t89.5 45.5t98 29.5t105 10.5q58 0 118.5 -13.5t110 -43.5t81 -79t31.5 -119q0 -66 -24.5 -118t-67 -91.5t-100 -67t-122.5 -45t-135 -25.5t-138 -8q-23 0 -47 1.5t-46.5 3.5t-42.5 4t-35 4q-1 -9 -2 -15.5t-1.5 -13t-0.5 -13
v-14.5q0 -75 17 -138.5t54.5 -110.5t96.5 -73.5t143 -26.5q52 0 98.5 13t90 33t84 45.5t80.5 49.5h45v-140q-66 -37 -126.5 -66t-120 -49.5t-121 -31.5t-130.5 -11zM967 1225l-57 45q59 78 103 138t77.5 104.5t59.5 74.5t49 48.5t46 26.5t51 8q21 0 38 -7t29 -19t18 -26.5
t6 -29.5q0 -23 -5.5 -40t-16 -31.5t-26.5 -28t-37 -29.5z" />
    <glyph glyph-name="cacute" unicode="&#x107;" horiz-adv-x="1099" 
d="M558 -22q-105 0 -188 34.5t-140 96.5t-87 149t-30 191q0 103 26.5 194t73 167.5t109.5 136.5t135.5 102t151 64.5t156.5 22.5q53 0 96 -10t77 -23.5t60.5 -27.5t46.5 -23v-221h-49q-35 21 -78.5 48.5t-89.5 52t-92 41.5t-86 17q-58 0 -103.5 -22.5t-80.5 -61.5
t-59.5 -90.5t-40.5 -109t-23 -118t-7 -116.5q0 -77 18.5 -139t55.5 -105.5t92 -67t127 -23.5q74 0 137.5 27t115.5 62l66 44h47v-138q-41 -29 -90 -56.5t-104.5 -49.5t-116.5 -35t-126 -13zM577 1225l-57 45q59 78 103 138t77.5 104.5t59.5 74.5t49 48.5t46 26.5t51 8
q21 0 38 -7t29 -19t18 -26.5t6 -29.5q0 -23 -5.5 -40t-16 -31.5t-26.5 -28t-37 -29.5z" />
    <glyph glyph-name="ccircumflex" unicode="&#x109;" horiz-adv-x="1099" 
d="M558 -22q-105 0 -188 34.5t-140 96.5t-87 149t-30 191q0 103 26.5 194t73 167.5t109.5 136.5t135.5 102t151 64.5t156.5 22.5q53 0 96 -10t77 -23.5t60.5 -27.5t46.5 -23v-221h-49q-35 21 -78.5 48.5t-89.5 52t-92 41.5t-86 17q-58 0 -103.5 -22.5t-80.5 -61.5
t-59.5 -90.5t-40.5 -109t-23 -118t-7 -116.5q0 -77 18.5 -139t55.5 -105.5t92 -67t127 -23.5q74 0 137.5 27t115.5 62l66 44h47v-138q-41 -29 -90 -56.5t-104.5 -49.5t-116.5 -35t-126 -13zM821 1481l-336 -256l-53 45l275 307q18 20 34.5 37t33.5 29t35.5 18.5t40.5 6.5
q44 0 69 -25.5t46 -64.5l164 -308l-67 -45z" />
    <glyph glyph-name="ccaron" unicode="&#x10d;" horiz-adv-x="1099" 
d="M558 -22q-105 0 -188 34.5t-140 96.5t-87 149t-30 191q0 103 26.5 194t73 167.5t109.5 136.5t135.5 102t151 64.5t156.5 22.5q53 0 96 -10t77 -23.5t60.5 -27.5t46.5 -23v-221h-49q-35 21 -78.5 48.5t-89.5 52t-92 41.5t-86 17q-58 0 -103.5 -22.5t-80.5 -61.5
t-59.5 -90.5t-40.5 -109t-23 -118t-7 -116.5q0 -77 18.5 -139t55.5 -105.5t92 -67t127 -23.5q74 0 137.5 27t115.5 62l66 44h47v-138q-41 -29 -90 -56.5t-104.5 -49.5t-116.5 -35t-126 -13zM779 1231q-44 0 -69.5 24.5t-45.5 65.5l-164 308l67 45l242 -256l336 256l53 -45
l-275 -307q-37 -41 -68.5 -66.5t-75.5 -24.5z" />
    <glyph glyph-name="cdotaccent" unicode="&#x10b;" horiz-adv-x="1099" 
d="M558 -22q-105 0 -188 34.5t-140 96.5t-87 149t-30 191q0 103 26.5 194t73 167.5t109.5 136.5t135.5 102t151 64.5t156.5 22.5q53 0 96 -10t77 -23.5t60.5 -27.5t46.5 -23v-221h-49q-35 21 -78.5 48.5t-89.5 52t-92 41.5t-86 17q-58 0 -103.5 -22.5t-80.5 -61.5
t-59.5 -90.5t-40.5 -109t-23 -118t-7 -116.5q0 -77 18.5 -139t55.5 -105.5t92 -67t127 -23.5q74 0 137.5 27t115.5 62l66 44h47v-138q-41 -29 -90 -56.5t-104.5 -49.5t-116.5 -35t-126 -13zM784 1294q-29 0 -55.5 9t-46.5 25.5t-32 41t-12 56.5q0 34 12 59.5t32 43t46.5 26
t55.5 8.5q34 0 62 -7.5t48 -23.5t31 -39.5t11 -55.5q0 -34 -11.5 -60.5t-32 -45t-48.5 -28t-60 -9.5z" />
    <glyph glyph-name="ccedilla" unicode="&#xe7;" horiz-adv-x="1099" 
d="M491 -501q-72 0 -122.5 17t-87.5 36l19 99h28q26 -19 70.5 -37.5t99.5 -18.5q34 0 61 7.5t45 21.5t27.5 33.5t9.5 43.5q0 45 -38.5 63.5t-125.5 18.5l39 196q-96 7 -170.5 44.5t-126.5 99t-79 144.5t-27 182q0 103 26.5 194t73 167.5t109.5 136.5t135.5 102t151 64.5
t156.5 22.5q53 0 96.5 -10t78 -23.5t61 -27.5t44.5 -23v-221h-49q-32 19 -75.5 46.5t-90.5 52.5t-94 42.5t-86 17.5q-12 0 -26 -1.5t-29 -5.5q-49 -11 -87 -39t-67 -67.5t-49 -88.5t-32.5 -102t-18 -107.5t-5.5 -106.5q0 -77 18.5 -139t55.5 -105.5t92 -67t127 -23.5
q50 0 94.5 13t84.5 32.5t75 43t67 44.5h47v-138q-36 -26 -80 -51t-93 -46t-103 -35.5t-111 -19.5l-20 -89q39 0 76.5 -8.5t66.5 -26.5t46.5 -46t17.5 -68q0 -59 -23.5 -104t-65 -76t-97.5 -47t-120 -16z" />
    <glyph glyph-name="dcaron" unicode="&#x10f;" horiz-adv-x="1658" 
d="M594 131q25 0 54.5 7t60 21.5t60 36.5t55.5 52l154 699q-25 14 -59.5 23t-70 14t-67.5 7t-51 2q-67 0 -122.5 -21.5t-100 -59t-77 -89.5t-54.5 -112.5t-32.5 -127.5t-10.5 -135q0 -71 15 -129t46.5 -100t81 -65t118.5 -23zM456 -21q-84 0 -149.5 31.5t-109.5 87.5
t-67 133t-23 169q0 90 19.5 180t57 171.5t91 152t122 122.5t150 81.5t174.5 29.5q47 0 90 -9t79 -24t63 -34.5t43 -40.5l72 334q5 23 -2 30.5t-24 15.5l-151 64v85h425l-248 -1133q-7 -31 -13.5 -63.5t-12 -61.5t-8.5 -51.5t-3 -32.5q0 -16 4 -31.5t15 -28t31 -20t52 -7.5
q10 0 22 1.5t26 4.5t30 8t35 12h39v-100q-43 -24 -85 -38t-80.5 -21.5t-72 -9.5t-60.5 -2q-48 0 -78.5 18t-48.5 45t-25 59t-7 61h-16q-59 -67 -111.5 -105t-97.5 -56.5t-82 -22.5t-65 -4zM1351 1102q25 16 53 40t55 52t50 57t37 56q-30 19 -51 33.5t-35 30t-20.5 34
t-6.5 45.5q0 26 12 50.5t32 44t47 31.5t57 12q40 0 65.5 -18t40.5 -43.5t20.5 -55t5.5 -51.5q0 -51 -15.5 -95.5t-41 -83t-58.5 -71t-68 -59t-69 -47.5t-62 -37z" />
    <glyph glyph-name="dcroat" unicode="&#x111;" horiz-adv-x="1359" 
d="M456 -21q-84 0 -149.5 31t-109.5 86.5t-67 131.5t-23 166q0 89 19.5 177t56.5 168.5t91 149t122 119t149.5 79.5t174.5 29q47 0 90 -9t79 -24t63 -34.5t43 -40.5l45 211h-396v110h417l14 65q5 23 -2 33t-32 15l-150 31v85h425l-50 -229h146v-110h-171l-173 -794
q-7 -31 -13.5 -63.5t-12 -61.5t-8.5 -51.5t-3 -32.5q0 -16 4 -31.5t15 -28t31 -20t52 -7.5q10 0 22 1.5t26 4.5t30 8t35 12h39v-100q-43 -24 -85 -38t-80.5 -21.5t-72 -9.5t-60.5 -2q-48 0 -78.5 18t-48.5 45t-25 59t-7 61h-16q-59 -67 -111.5 -105t-97.5 -56.5t-82 -22.5
t-65 -4zM594 131q25 0 54.5 7t60 21t60 35.5t55.5 51.5l153 681q-25 13 -59.5 22t-70 14t-67.5 7t-51 2q-67 0 -122.5 -20.5t-99.5 -57t-77 -87t-54.5 -109t-32 -124t-10.5 -132.5q0 -69 15 -126t46.5 -98.5t81 -64t118.5 -22.5z" />
    <glyph glyph-name="egrave" unicode="&#xe8;" horiz-adv-x="1150" 
d="M503 635q81 0 147.5 14t113.5 44.5t72.5 79t25.5 116.5q0 32 -11.5 56.5t-31.5 41t-46 25t-55 8.5q-63 0 -121 -28t-106 -78t-84.5 -119t-55.5 -151q38 -3 63 -5t41.5 -2.5t27.5 -1t20 -0.5zM532 -22q-34 0 -78.5 8.5t-91 28.5t-92 54t-81 85t-57.5 120.5t-22 161.5
q0 84 20.5 168.5t59.5 162.5t94.5 145.5t125.5 117.5t153.5 78.5t178.5 28.5q58 0 118.5 -13.5t110 -43.5t81 -79t31.5 -119q0 -66 -24.5 -118t-67 -91.5t-100 -67t-122.5 -45t-135 -25.5t-138 -8q-23 0 -47 1.5t-46.5 3.5t-42.5 4t-35 4q-1 -9 -2 -15.5t-1.5 -13t-0.5 -13
v-14.5q0 -75 17 -138.5t54.5 -110.5t96.5 -73.5t143 -26.5q39 0 76.5 8t79 25.5t89.5 44t108 63.5h45v-140q-66 -37 -126.5 -66t-120 -49.5t-121 -31.5t-130.5 -11zM934 1270l-63 -45l-307 234q-14 11 -27.5 23t-24 25.5t-17.5 29t-7 33.5q0 21 8 39.5t21.5 32t31.5 21
t39 7.5t38.5 -4t33.5 -14t32 -27.5t35 -45.5z" />
    <glyph glyph-name="eacute" unicode="&#xe9;" horiz-adv-x="1150" 
d="M503 635q81 0 147.5 14t113.5 44.5t72.5 79t25.5 116.5q0 32 -11.5 56.5t-31.5 41t-46 25t-55 8.5q-63 0 -121 -28t-106 -78t-84.5 -119t-55.5 -151q38 -3 63 -5t41.5 -2.5t27.5 -1t20 -0.5zM532 -22q-34 0 -78.5 8.5t-91 28.5t-92 54t-81 85t-57.5 120.5t-22 161.5
q0 84 20.5 168.5t59.5 162.5t94.5 145.5t125.5 117.5t153.5 78.5t178.5 28.5q58 0 118.5 -13.5t110 -43.5t81 -79t31.5 -119q0 -66 -24.5 -118t-67 -91.5t-100 -67t-122.5 -45t-135 -25.5t-138 -8q-23 0 -47 1.5t-46.5 3.5t-42.5 4t-35 4q-1 -9 -2 -15.5t-1.5 -13t-0.5 -13
v-14.5q0 -75 17 -138.5t54.5 -110.5t96.5 -73.5t143 -26.5q39 0 76.5 8t79 25.5t89.5 44t108 63.5h45v-140q-66 -37 -126.5 -66t-120 -49.5t-121 -31.5t-130.5 -11zM616 1225l-57 45q59 78 103 138t77.5 104.5t59.5 74.5t49 48.5t46 26.5t51 8q21 0 38 -7t29 -19t18 -26.5
t6 -29.5q0 -23 -5.5 -40t-16 -31.5t-26.5 -28t-37 -29.5z" />
    <glyph glyph-name="ecircumflex" unicode="&#xea;" horiz-adv-x="1150" 
d="M503 635q81 0 147.5 14t113.5 44.5t72.5 79t25.5 116.5q0 32 -11.5 56.5t-31.5 41t-46 25t-55 8.5q-63 0 -121 -28t-106 -78t-84.5 -119t-55.5 -151q38 -3 63 -5t41.5 -2.5t27.5 -1t20 -0.5zM532 -22q-34 0 -78.5 8.5t-91 28.5t-92 54t-81 85t-57.5 120.5t-22 161.5
q0 84 20.5 168.5t59.5 162.5t94.5 145.5t125.5 117.5t153.5 78.5t178.5 28.5q58 0 118.5 -13.5t110 -43.5t81 -79t31.5 -119q0 -66 -24.5 -118t-67 -91.5t-100 -67t-122.5 -45t-135 -25.5t-138 -8q-23 0 -47 1.5t-46.5 3.5t-42.5 4t-35 4q-1 -9 -2 -15.5t-1.5 -13t-0.5 -13
v-14.5q0 -75 17 -138.5t54.5 -110.5t96.5 -73.5t143 -26.5q39 0 76.5 8t79 25.5t89.5 44t108 63.5h45v-140q-66 -37 -126.5 -66t-120 -49.5t-121 -31.5t-130.5 -11zM756 1481l-336 -256l-53 45l275 307q18 20 34.5 37t33.5 29t35.5 18.5t40.5 6.5q44 0 69 -25.5t46 -64.5
l164 -308l-67 -45z" />
    <glyph glyph-name="uni1EBF" unicode="&#x1ebf;" horiz-adv-x="1150" 
d="M503 635q81 0 147.5 14t113.5 44.5t72.5 79t25.5 116.5q0 32 -11.5 56.5t-31.5 41t-46 25t-55 8.5q-63 0 -121 -28t-106 -78t-84.5 -119t-55.5 -151q38 -3 63 -5t41.5 -2.5t27.5 -1t20 -0.5zM532 -22q-34 0 -78.5 8.5t-91 28.5t-92 54t-81 85t-57.5 120.5t-22 161.5
q0 84 20.5 168.5t59.5 162.5t94.5 145.5t125.5 117.5t153.5 78.5t178.5 28.5q58 0 118.5 -13.5t110 -43.5t81 -79t31.5 -119q0 -66 -24.5 -118t-67 -91.5t-100 -67t-122.5 -45t-135 -25.5t-138 -8q-23 0 -47 1.5t-46.5 3.5t-42.5 4t-35 4q-1 -9 -2 -15.5t-1.5 -13t-0.5 -13
v-14.5q0 -75 17 -138.5t54.5 -110.5t96.5 -73.5t143 -26.5q39 0 76.5 8t79 25.5t89.5 44t108 63.5h45v-140q-66 -37 -126.5 -66t-120 -49.5t-121 -31.5t-130.5 -11zM1043 1489l135 255q17 32 34 55.5t35 38.5t38 22.5t43 7.5q45 0 65.5 -21.5t20.5 -51.5q0 -19 -8 -38.5
t-21.5 -38t-30 -36t-32.5 -31.5l-226 -198zM756 1481l-336 -256l-53 45l275 307q18 20 34.5 37t33.5 29t35.5 18.5t40.5 6.5q44 0 69 -25.5t46 -64.5l164 -308l-67 -45z" />
    <glyph glyph-name="uni1EC1" unicode="&#x1ec1;" horiz-adv-x="1150" 
d="M503 635q81 0 147.5 14t113.5 44.5t72.5 79t25.5 116.5q0 32 -11.5 56.5t-31.5 41t-46 25t-55 8.5q-63 0 -121 -28t-106 -78t-84.5 -119t-55.5 -151q38 -3 63 -5t41.5 -2.5t27.5 -1t20 -0.5zM532 -22q-34 0 -78.5 8.5t-91 28.5t-92 54t-81 85t-57.5 120.5t-22 161.5
q0 84 20.5 168.5t59.5 162.5t94.5 145.5t125.5 117.5t153.5 78.5t178.5 28.5q58 0 118.5 -13.5t110 -43.5t81 -79t31.5 -119q0 -66 -24.5 -118t-67 -91.5t-100 -67t-122.5 -45t-135 -25.5t-138 -8q-23 0 -47 1.5t-46.5 3.5t-42.5 4t-35 4q-1 -9 -2 -15.5t-1.5 -13t-0.5 -13
v-14.5q0 -75 17 -138.5t54.5 -110.5t96.5 -73.5t143 -26.5q39 0 76.5 8t79 25.5t89.5 44t108 63.5h45v-140q-66 -37 -126.5 -66t-120 -49.5t-121 -31.5t-130.5 -11zM756 1481l-336 -256l-53 45l275 307q18 20 34.5 37t33.5 29t35.5 18.5t40.5 6.5q44 0 69 -25.5t46 -64.5
l164 -308l-67 -45zM472 1494l-63 -45l-279 216q-15 12 -29 24t-24 25.5t-16 30t-6 37.5q0 19 7 35t19 27t29 17.5t38 6.5t38.5 -4t33.5 -14t32 -27.5t35 -45.5z" />
    <glyph glyph-name="uni1EC3" unicode="&#x1ec3;" horiz-adv-x="1150" 
d="M503 635q81 0 147.5 14t113.5 44.5t72.5 79t25.5 116.5q0 32 -11.5 56.5t-31.5 41t-46 25t-55 8.5q-63 0 -121 -28t-106 -78t-84.5 -119t-55.5 -151q38 -3 63 -5t41.5 -2.5t27.5 -1t20 -0.5zM532 -22q-34 0 -78.5 8.5t-91 28.5t-92 54t-81 85t-57.5 120.5t-22 161.5
q0 84 20.5 168.5t59.5 162.5t94.5 145.5t125.5 117.5t153.5 78.5t178.5 28.5q58 0 118.5 -13.5t110 -43.5t81 -79t31.5 -119q0 -66 -24.5 -118t-67 -91.5t-100 -67t-122.5 -45t-135 -25.5t-138 -8q-23 0 -47 1.5t-46.5 3.5t-42.5 4t-35 4q-1 -9 -2 -15.5t-1.5 -13t-0.5 -13
v-14.5q0 -75 17 -138.5t54.5 -110.5t96.5 -73.5t143 -26.5q39 0 76.5 8t79 25.5t89.5 44t108 63.5h45v-140q-66 -37 -126.5 -66t-120 -49.5t-121 -31.5t-130.5 -11zM1226 1808q31 0 59 -6t49 -18.5t33.5 -31.5t12.5 -44q0 -29 -11.5 -51.5t-29.5 -41.5t-39.5 -36.5
t-41 -36.5t-35 -40.5t-21.5 -48.5l-3 -16h-110l5 23q10 45 36 74t53.5 53t49 47.5t21.5 57.5q0 19 -14.5 30t-39.5 11q-20 0 -38.5 -7t-35 -18t-30.5 -23.5t-26 -22.5h-36l21 105q10 4 27 11t39 13.5t49 11.5t56 5zM756 1481l-336 -256l-53 45l275 307q18 20 34.5 37
t33.5 29t35.5 18.5t40.5 6.5q44 0 69 -25.5t46 -64.5l164 -308l-67 -45z" />
    <glyph glyph-name="uni1EC5" unicode="&#x1ec5;" horiz-adv-x="1150" 
d="M503 635q81 0 147.5 14t113.5 44.5t72.5 79t25.5 116.5q0 32 -11.5 56.5t-31.5 41t-46 25t-55 8.5q-63 0 -121 -28t-106 -78t-84.5 -119t-55.5 -151q38 -3 63 -5t41.5 -2.5t27.5 -1t20 -0.5zM532 -22q-34 0 -78.5 8.5t-91 28.5t-92 54t-81 85t-57.5 120.5t-22 161.5
q0 84 20.5 168.5t59.5 162.5t94.5 145.5t125.5 117.5t153.5 78.5t178.5 28.5q58 0 118.5 -13.5t110 -43.5t81 -79t31.5 -119q0 -66 -24.5 -118t-67 -91.5t-100 -67t-122.5 -45t-135 -25.5t-138 -8q-23 0 -47 1.5t-46.5 3.5t-42.5 4t-35 4q-1 -9 -2 -15.5t-1.5 -13t-0.5 -13
v-14.5q0 -75 17 -138.5t54.5 -110.5t96.5 -73.5t143 -26.5q39 0 76.5 8t79 25.5t89.5 44t108 63.5h45v-140q-66 -37 -126.5 -66t-120 -49.5t-121 -31.5t-130.5 -11zM443 1675q18 49 46 92.5t65.5 76.5t84 52.5t100.5 19.5q39 0 73.5 -11t67.5 -23.5t65.5 -23.5t67.5 -11
q44 0 72.5 24.5t45.5 59.5h99q-16 -48 -43 -91.5t-63.5 -76.5t-82.5 -52.5t-100 -19.5q-39 0 -73 11t-66 24.5t-65 25t-70 11.5q-45 0 -77 -26t-49 -62h-98zM756 1461l-336 -236l-53 45l275 292q36 38 68 62t76 24t69 -24t46 -61l164 -293l-67 -45z" />
    <glyph glyph-name="ecaron" unicode="&#x11b;" horiz-adv-x="1150" 
d="M503 635q81 0 147.5 14t113.5 44.5t72.5 79t25.5 116.5q0 32 -11.5 56.5t-31.5 41t-46 25t-55 8.5q-63 0 -121 -28t-106 -78t-84.5 -119t-55.5 -151q38 -3 63 -5t41.5 -2.5t27.5 -1t20 -0.5zM532 -22q-34 0 -78.5 8.5t-91 28.5t-92 54t-81 85t-57.5 120.5t-22 161.5
q0 84 20.5 168.5t59.5 162.5t94.5 145.5t125.5 117.5t153.5 78.5t178.5 28.5q58 0 118.5 -13.5t110 -43.5t81 -79t31.5 -119q0 -66 -24.5 -118t-67 -91.5t-100 -67t-122.5 -45t-135 -25.5t-138 -8q-23 0 -47 1.5t-46.5 3.5t-42.5 4t-35 4q-1 -9 -2 -15.5t-1.5 -13t-0.5 -13
v-14.5q0 -75 17 -138.5t54.5 -110.5t96.5 -73.5t143 -26.5q39 0 76.5 8t79 25.5t89.5 44t108 63.5h45v-140q-66 -37 -126.5 -66t-120 -49.5t-121 -31.5t-130.5 -11zM731 1231q-44 0 -69.5 24.5t-45.5 65.5l-164 308l67 45l242 -256l336 256l53 -45l-275 -307
q-37 -41 -68.5 -66.5t-75.5 -24.5z" />
    <glyph glyph-name="uni1EBD" unicode="&#x1ebd;" horiz-adv-x="1150" 
d="M503 635q81 0 147.5 14t113.5 44.5t72.5 79t25.5 116.5q0 32 -11.5 56.5t-31.5 41t-46 25t-55 8.5q-63 0 -121 -28t-106 -78t-84.5 -119t-55.5 -151q38 -3 63 -5t41.5 -2.5t27.5 -1t20 -0.5zM532 -22q-34 0 -78.5 8.5t-91 28.5t-92 54t-81 85t-57.5 120.5t-22 161.5
q0 84 20.5 168.5t59.5 162.5t94.5 145.5t125.5 117.5t153.5 78.5t178.5 28.5q58 0 118.5 -13.5t110 -43.5t81 -79t31.5 -119q0 -66 -24.5 -118t-67 -91.5t-100 -67t-122.5 -45t-135 -25.5t-138 -8q-23 0 -47 1.5t-46.5 3.5t-42.5 4t-35 4q-1 -9 -2 -15.5t-1.5 -13t-0.5 -13
v-14.5q0 -75 17 -138.5t54.5 -110.5t96.5 -73.5t143 -26.5q39 0 76.5 8t79 25.5t89.5 44t108 63.5h45v-140q-66 -37 -126.5 -66t-120 -49.5t-121 -31.5t-130.5 -11zM511 1276h-98q11 55 36.5 104t61 86t78.5 59t90 22q43 0 80.5 -15.5t72 -34t67 -34t66.5 -15.5q16 0 31.5 7
t29 21t24.5 35.5t19 50.5h99q-11 -54 -35 -103t-58.5 -86t-77 -59t-90.5 -22q-44 0 -80 16t-69.5 35t-65.5 35t-67 16q-15 0 -32 -7t-32.5 -21t-28.5 -36.5t-21 -53.5z" />
    <glyph glyph-name="edieresis" unicode="&#xeb;" horiz-adv-x="1150" 
d="M503 635q81 0 147.5 14t113.5 44.5t72.5 79t25.5 116.5q0 32 -11.5 56.5t-31.5 41t-46 25t-55 8.5q-63 0 -121 -28t-106 -78t-84.5 -119t-55.5 -151q38 -3 63 -5t41.5 -2.5t27.5 -1t20 -0.5zM532 -22q-34 0 -78.5 8.5t-91 28.5t-92 54t-81 85t-57.5 120.5t-22 161.5
q0 84 20.5 168.5t59.5 162.5t94.5 145.5t125.5 117.5t153.5 78.5t178.5 28.5q58 0 118.5 -13.5t110 -43.5t81 -79t31.5 -119q0 -66 -24.5 -118t-67 -91.5t-100 -67t-122.5 -45t-135 -25.5t-138 -8q-23 0 -47 1.5t-46.5 3.5t-42.5 4t-35 4q-1 -9 -2 -15.5t-1.5 -13t-0.5 -13
v-14.5q0 -75 17 -138.5t54.5 -110.5t96.5 -73.5t143 -26.5q39 0 76.5 8t79 25.5t89.5 44t108 63.5h45v-140q-66 -37 -126.5 -66t-120 -49.5t-121 -31.5t-130.5 -11zM500 1294q-26 0 -49.5 8t-41 23t-28 37t-10.5 50q0 31 10.5 54t28 38.5t41 23.5t49.5 8q30 0 55 -7t43 -21
t27.5 -35.5t9.5 -50.5q0 -30 -10.5 -54t-28.5 -40.5t-42.5 -25t-53.5 -8.5zM962 1294q-26 0 -49.5 8t-41 23t-28 37t-10.5 50q0 31 10.5 54t28 38.5t41 23.5t49.5 8q30 0 55 -7t43 -21t27.5 -35.5t9.5 -50.5q0 -30 -10.5 -54t-28.5 -40.5t-42.5 -25t-53.5 -8.5z" />
    <glyph glyph-name="emacron" unicode="&#x113;" horiz-adv-x="1150" 
d="M503 635q81 0 147.5 14t113.5 44.5t72.5 79t25.5 116.5q0 32 -11.5 56.5t-31.5 41t-46 25t-55 8.5q-63 0 -121 -28t-106 -78t-84.5 -119t-55.5 -151q38 -3 63 -5t41.5 -2.5t27.5 -1t20 -0.5zM532 -22q-34 0 -78.5 8.5t-91 28.5t-92 54t-81 85t-57.5 120.5t-22 161.5
q0 84 20.5 168.5t59.5 162.5t94.5 145.5t125.5 117.5t153.5 78.5t178.5 28.5q58 0 118.5 -13.5t110 -43.5t81 -79t31.5 -119q0 -66 -24.5 -118t-67 -91.5t-100 -67t-122.5 -45t-135 -25.5t-138 -8q-23 0 -47 1.5t-46.5 3.5t-42.5 4t-35 4q-1 -9 -2 -15.5t-1.5 -13t-0.5 -13
v-14.5q0 -75 17 -138.5t54.5 -110.5t96.5 -73.5t143 -26.5q39 0 76.5 8t79 25.5t89.5 44t108 63.5h45v-140q-66 -37 -126.5 -66t-120 -49.5t-121 -31.5t-130.5 -11zM1121 1354h-715l32 142h715z" />
    <glyph glyph-name="ebreve" unicode="&#x115;" horiz-adv-x="1150" 
d="M503 635q81 0 147.5 14t113.5 44.5t72.5 79t25.5 116.5q0 32 -11.5 56.5t-31.5 41t-46 25t-55 8.5q-63 0 -121 -28t-106 -78t-84.5 -119t-55.5 -151q38 -3 63 -5t41.5 -2.5t27.5 -1t20 -0.5zM532 -22q-34 0 -78.5 8.5t-91 28.5t-92 54t-81 85t-57.5 120.5t-22 161.5
q0 84 20.5 168.5t59.5 162.5t94.5 145.5t125.5 117.5t153.5 78.5t178.5 28.5q58 0 118.5 -13.5t110 -43.5t81 -79t31.5 -119q0 -66 -24.5 -118t-67 -91.5t-100 -67t-122.5 -45t-135 -25.5t-138 -8q-23 0 -47 1.5t-46.5 3.5t-42.5 4t-35 4q-1 -9 -2 -15.5t-1.5 -13t-0.5 -13
v-14.5q0 -75 17 -138.5t54.5 -110.5t96.5 -73.5t143 -26.5q39 0 76.5 8t79 25.5t89.5 44t108 63.5h45v-140q-66 -37 -126.5 -66t-120 -49.5t-121 -31.5t-130.5 -11zM744 1262q-149 0 -219 96t-66 296l88 14q8 -54 19 -98.5t34 -77t63 -50.5t106 -18q64 0 110 17t81 49
t62.5 77t54.5 101l84 -14q-62 -202 -165 -297t-252 -95z" />
    <glyph glyph-name="edotaccent" unicode="&#x117;" horiz-adv-x="1150" 
d="M503 635q81 0 147.5 14t113.5 44.5t72.5 79t25.5 116.5q0 32 -11.5 56.5t-31.5 41t-46 25t-55 8.5q-63 0 -121 -28t-106 -78t-84.5 -119t-55.5 -151q38 -3 63 -5t41.5 -2.5t27.5 -1t20 -0.5zM532 -22q-34 0 -78.5 8.5t-91 28.5t-92 54t-81 85t-57.5 120.5t-22 161.5
q0 84 20.5 168.5t59.5 162.5t94.5 145.5t125.5 117.5t153.5 78.5t178.5 28.5q58 0 118.5 -13.5t110 -43.5t81 -79t31.5 -119q0 -66 -24.5 -118t-67 -91.5t-100 -67t-122.5 -45t-135 -25.5t-138 -8q-23 0 -47 1.5t-46.5 3.5t-42.5 4t-35 4q-1 -9 -2 -15.5t-1.5 -13t-0.5 -13
v-14.5q0 -75 17 -138.5t54.5 -110.5t96.5 -73.5t143 -26.5q39 0 76.5 8t79 25.5t89.5 44t108 63.5h45v-140q-66 -37 -126.5 -66t-120 -49.5t-121 -31.5t-130.5 -11zM736 1294q-29 0 -55.5 9t-46.5 25.5t-32 41t-12 56.5q0 34 12 59.5t32 43t46.5 26t55.5 8.5q34 0 62 -7.5
t48 -23.5t31 -39.5t11 -55.5q0 -34 -11.5 -60.5t-32 -45t-48.5 -28t-60 -9.5z" />
    <glyph glyph-name="uni1EBB" unicode="&#x1ebb;" horiz-adv-x="1150" 
d="M503 635q81 0 147.5 14t113.5 44.5t72.5 79t25.5 116.5q0 32 -11.5 56.5t-31.5 41t-46 25t-55 8.5q-63 0 -121 -28t-106 -78t-84.5 -119t-55.5 -151q38 -3 63 -5t41.5 -2.5t27.5 -1t20 -0.5zM532 -22q-34 0 -78.5 8.5t-91 28.5t-92 54t-81 85t-57.5 120.5t-22 161.5
q0 84 20.5 168.5t59.5 162.5t94.5 145.5t125.5 117.5t153.5 78.5t178.5 28.5q58 0 118.5 -13.5t110 -43.5t81 -79t31.5 -119q0 -66 -24.5 -118t-67 -91.5t-100 -67t-122.5 -45t-135 -25.5t-138 -8q-23 0 -47 1.5t-46.5 3.5t-42.5 4t-35 4q-1 -9 -2 -15.5t-1.5 -13t-0.5 -13
v-14.5q0 -75 17 -138.5t54.5 -110.5t96.5 -73.5t143 -26.5q39 0 76.5 8t79 25.5t89.5 44t108 63.5h45v-140q-66 -37 -126.5 -66t-120 -49.5t-121 -31.5t-130.5 -11zM830 1696q80 0 127 -24.5t47 -83.5q0 -35 -14 -63t-35.5 -53.5t-47 -49.5t-49.5 -49t-43 -53t-26 -61
l-6 -31h-124l8 39q8 37 25.5 64.5t39.5 50t45.5 42t42.5 39.5t31.5 43t12.5 53q0 10 -2.5 19t-8.5 16t-16 11t-25 4q-25 0 -49.5 -7.5t-47 -19t-41.5 -24.5t-34 -25h-45l24 112q12 5 33 13.5t48.5 17t60.5 14.5t69 6z" />
    <glyph glyph-name="uni1EB9" unicode="&#x1eb9;" horiz-adv-x="1150" 
d="M503 635q81 0 147.5 14t113.5 44.5t72.5 79t25.5 116.5q0 32 -11.5 56.5t-31.5 41t-46 25t-55 8.5q-63 0 -121 -28t-106 -78t-84.5 -119t-55.5 -151q38 -3 63 -5t41.5 -2.5t27.5 -1t20 -0.5zM532 -22q-34 0 -78.5 8.5t-91 28.5t-92 54t-81 85t-57.5 120.5t-22 161.5
q0 84 20.5 168.5t59.5 162.5t94.5 145.5t125.5 117.5t153.5 78.5t178.5 28.5q58 0 118.5 -13.5t110 -43.5t81 -79t31.5 -119q0 -66 -24.5 -118t-67 -91.5t-100 -67t-122.5 -45t-135 -25.5t-138 -8q-23 0 -47 1.5t-46.5 3.5t-42.5 4t-35 4q-1 -9 -2 -15.5t-1.5 -13t-0.5 -13
v-14.5q0 -75 17 -138.5t54.5 -110.5t96.5 -73.5t143 -26.5q39 0 76.5 8t79 25.5t89.5 44t108 63.5h45v-140q-66 -37 -126.5 -66t-120 -49.5t-121 -31.5t-130.5 -11zM510 -425q-26 0 -48 7t-38.5 20.5t-26 33t-9.5 44.5q0 37 15.5 66t40.5 49t57 30t65 10q30 0 54 -6
t41 -18.5t26 -31t9 -42.5q0 -37 -14.5 -67t-40 -51t-59.5 -32.5t-72 -11.5z" />
    <glyph glyph-name="uni1EC7" unicode="&#x1ec7;" horiz-adv-x="1150" 
d="M503 635q81 0 147.5 14t113.5 44.5t72.5 79t25.5 116.5q0 32 -11.5 56.5t-31.5 41t-46 25t-55 8.5q-63 0 -121 -28t-106 -78t-84.5 -119t-55.5 -151q38 -3 63 -5t41.5 -2.5t27.5 -1t20 -0.5zM532 -22q-34 0 -78.5 8.5t-91 28.5t-92 54t-81 85t-57.5 120.5t-22 161.5
q0 84 20.5 168.5t59.5 162.5t94.5 145.5t125.5 117.5t153.5 78.5t178.5 28.5q58 0 118.5 -13.5t110 -43.5t81 -79t31.5 -119q0 -66 -24.5 -118t-67 -91.5t-100 -67t-122.5 -45t-135 -25.5t-138 -8q-23 0 -47 1.5t-46.5 3.5t-42.5 4t-35 4q-1 -9 -2 -15.5t-1.5 -13t-0.5 -13
v-14.5q0 -75 17 -138.5t54.5 -110.5t96.5 -73.5t143 -26.5q39 0 76.5 8t79 25.5t89.5 44t108 63.5h45v-140q-66 -37 -126.5 -66t-120 -49.5t-121 -31.5t-130.5 -11zM756 1481l-336 -256l-53 45l275 307q18 20 34.5 37t33.5 29t35.5 18.5t40.5 6.5q44 0 69 -25.5t46 -64.5
l164 -308l-67 -45zM510 -425q-26 0 -48 7t-38.5 20.5t-26 33t-9.5 44.5q0 37 15.5 66t40.5 49t57 30t65 10q30 0 54 -6t41 -18.5t26 -31t9 -42.5q0 -37 -14.5 -67t-40 -51t-59.5 -32.5t-72 -11.5z" />
    <glyph glyph-name="eogonek" unicode="&#x119;" horiz-adv-x="1150" 
d="M503 635q81 0 147.5 14t113.5 44.5t72.5 79t25.5 116.5q0 32 -11.5 56.5t-31.5 41t-46 25t-55 8.5q-63 0 -121 -28t-106 -78t-84.5 -119t-55.5 -151q35 -2 75 -5.5t77 -3.5zM693 -462q-59 0 -100 15.5t-66.5 40t-37 56t-11.5 64.5q0 45 16 83.5t42 72.5t60.5 63.5
t70.5 56.5q-32 -6 -66 -9t-69 -3q-34 0 -78.5 8.5t-91 28.5t-92 54t-81 85t-57.5 120.5t-22 161.5q0 84 20.5 168.5t59.5 162.5t94.5 145.5t125.5 117.5t153.5 78.5t178.5 28.5q58 0 118.5 -13.5t110 -43.5t81 -79t31.5 -119q0 -66 -24.5 -118t-67 -91.5t-100 -67
t-122.5 -45t-135 -25.5t-138 -8q-23 0 -47 1.5t-46.5 3.5t-42.5 4t-35 4q-1 -9 -2 -15.5t-1.5 -13t-0.5 -13v-14.5q0 -75 17 -138.5t54.5 -110.5t96.5 -73.5t143 -26.5q52 0 99 13t90.5 33.5t84 45.5t79.5 49h45v-140q-13 -7 -34.5 -18t-43.5 -22.5t-40.5 -21t-25.5 -13.5
q-44 -26 -87.5 -57t-79 -67.5t-57.5 -78.5t-22 -90q0 -21 7 -41.5t20.5 -36.5t34 -26t47.5 -10q26 0 55 9.5t54 21.5h17v-112q-48 -18 -97 -26.5t-85 -8.5z" />
    <glyph glyph-name="gcircumflex" unicode="&#x11d;" horiz-adv-x="1320" 
d="M594 153q25 0 55.5 6.5t62.5 21t64.5 37t61.5 55.5l133 673q-22 13 -55 22t-67.5 14.5t-66.5 8t-52 2.5q-68 0 -124 -21.5t-100 -58.5t-76 -87.5t-53.5 -108.5t-31.5 -120.5t-10 -124.5q0 -70 14.5 -128.5t45.5 -101t80.5 -66t118.5 -23.5zM377 -501q-49 0 -91 3.5t-76 8
t-59.5 10t-40.5 8.5v215h47q24 -10 51.5 -20.5t57.5 -19.5t63 -14.5t69 -5.5q64 0 111 4t83 13.5t62.5 26t48.5 41.5q15 16 26.5 44t22.5 66t22 84.5t23 100.5l28 124l-14 -15q-54 -60 -105.5 -94.5t-97.5 -52t-83.5 -22t-64.5 -4.5q-86 0 -151.5 32t-109.5 89t-67 134.5
t-23 169.5q0 89 20 176t57 166t91 147t122 117.5t148.5 77.5t172.5 28q46 0 84.5 -9t69.5 -24t54.5 -34.5t40.5 -40.5l58 99h222q-10 -29 -20 -57.5t-20 -57.5t-20 -57.5t-20 -57.5l-160 -831q-14 -70 -34.5 -127.5t-48 -105.5t-61 -87t-73.5 -72q-47 -39 -95 -71.5t-99 -56
t-105.5 -36t-115.5 -12.5zM777 1481l-336 -256l-53 45l275 307q18 20 34.5 37t33.5 29t35.5 18.5t40.5 6.5q44 0 69 -25.5t46 -64.5l164 -308l-67 -45z" />
    <glyph glyph-name="gbreve" unicode="&#x11f;" horiz-adv-x="1320" 
d="M594 153q25 0 55.5 6.5t62.5 21t64.5 37t61.5 55.5l133 673q-22 13 -55 22t-67.5 14.5t-66.5 8t-52 2.5q-68 0 -124 -21.5t-100 -58.5t-76 -87.5t-53.5 -108.5t-31.5 -120.5t-10 -124.5q0 -70 14.5 -128.5t45.5 -101t80.5 -66t118.5 -23.5zM377 -501q-49 0 -91 3.5t-76 8
t-59.5 10t-40.5 8.5v215h47q24 -10 51.5 -20.5t57.5 -19.5t63 -14.5t69 -5.5q64 0 111 4t83 13.5t62.5 26t48.5 41.5q15 16 26.5 44t22.5 66t22 84.5t23 100.5l28 124l-14 -15q-54 -60 -105.5 -94.5t-97.5 -52t-83.5 -22t-64.5 -4.5q-86 0 -151.5 32t-109.5 89t-67 134.5
t-23 169.5q0 89 20 176t57 166t91 147t122 117.5t148.5 77.5t172.5 28q46 0 84.5 -9t69.5 -24t54.5 -34.5t40.5 -40.5l58 99h222q-10 -29 -20 -57.5t-20 -57.5t-20 -57.5t-20 -57.5l-160 -831q-14 -70 -34.5 -127.5t-48 -105.5t-61 -87t-73.5 -72q-47 -39 -95 -71.5t-99 -56
t-105.5 -36t-115.5 -12.5zM748 1262q-149 0 -219 96t-66 296l88 14q8 -54 19 -98.5t34 -77t63 -50.5t106 -18q64 0 110 17t81 49t62.5 77t54.5 101l84 -14q-62 -202 -165 -297t-252 -95z" />
    <glyph glyph-name="gdotaccent" unicode="&#x121;" horiz-adv-x="1320" 
d="M594 153q25 0 55.5 6.5t62.5 21t64.5 37t61.5 55.5l133 673q-22 13 -55 22t-67.5 14.5t-66.5 8t-52 2.5q-68 0 -124 -21.5t-100 -58.5t-76 -87.5t-53.5 -108.5t-31.5 -120.5t-10 -124.5q0 -70 14.5 -128.5t45.5 -101t80.5 -66t118.5 -23.5zM377 -501q-49 0 -91 3.5t-76 8
t-59.5 10t-40.5 8.5v215h47q24 -10 51.5 -20.5t57.5 -19.5t63 -14.5t69 -5.5q64 0 111 4t83 13.5t62.5 26t48.5 41.5q15 16 26.5 44t22.5 66t22 84.5t23 100.5l28 124l-14 -15q-54 -60 -105.5 -94.5t-97.5 -52t-83.5 -22t-64.5 -4.5q-86 0 -151.5 32t-109.5 89t-67 134.5
t-23 169.5q0 89 20 176t57 166t91 147t122 117.5t148.5 77.5t172.5 28q46 0 84.5 -9t69.5 -24t54.5 -34.5t40.5 -40.5l58 99h222q-10 -29 -20 -57.5t-20 -57.5t-20 -57.5t-20 -57.5l-160 -831q-14 -70 -34.5 -127.5t-48 -105.5t-61 -87t-73.5 -72q-47 -39 -95 -71.5t-99 -56
t-105.5 -36t-115.5 -12.5zM740 1294q-29 0 -55.5 9t-46.5 25.5t-32 41t-12 56.5q0 34 12 59.5t32 43t46.5 26t55.5 8.5q34 0 62 -7.5t48 -23.5t31 -39.5t11 -55.5q0 -34 -11.5 -60.5t-32 -45t-48.5 -28t-60 -9.5z" />
    <glyph glyph-name="uni0123" unicode="&#x123;" horiz-adv-x="1320" 
d="M594 153q25 0 55.5 6.5t62.5 21t64.5 37t61.5 55.5l133 673q-22 13 -55 22t-67.5 14.5t-66.5 8t-52 2.5q-68 0 -124 -21.5t-100 -58.5t-76 -87.5t-53.5 -108.5t-31.5 -120.5t-10 -124.5q0 -70 14.5 -128.5t45.5 -101t80.5 -66t118.5 -23.5zM377 -501q-49 0 -91 3.5t-76 8
t-59.5 10t-40.5 8.5v215h47q24 -10 51.5 -20.5t57.5 -19.5t63 -14.5t69 -5.5q64 0 111 4t83 13.5t62.5 26t48.5 41.5q15 16 26.5 44t22.5 66t22 84.5t23 100.5l28 124l-14 -15q-54 -60 -105.5 -94.5t-97.5 -52t-83.5 -22t-64.5 -4.5q-86 0 -151.5 32t-109.5 89t-67 134.5
t-23 169.5q0 89 20 176t57 166t91 147t122 117.5t148.5 77.5t172.5 28q46 0 84.5 -9t69.5 -24t54.5 -34.5t40.5 -40.5l58 99h222q-10 -29 -20 -57.5t-20 -57.5t-20 -57.5t-20 -57.5l-160 -831q-14 -70 -34.5 -127.5t-48 -105.5t-61 -87t-73.5 -72q-47 -39 -95 -71.5t-99 -56
t-105.5 -36t-115.5 -12.5zM927 1669q-37 -26 -63 -46t-44 -38t-30 -36.5t-22 -40.5q27 -19 46.5 -34t31.5 -29.5t18 -30.5t6 -35q0 -25 -11 -49t-31 -43.5t-48.5 -31.5t-63.5 -12q-32 0 -55.5 11t-38.5 30.5t-22 46t-7 57.5q0 69 27.5 123.5t69.5 97t92 75.5t94 60z" />
    <glyph glyph-name="hcircumflex" unicode="&#x125;" horiz-adv-x="1359" 
d="M996 -16q-48 0 -80.5 16t-53 39.5t-29.5 51t-9 50.5q0 13 1.5 30t4.5 36t7 40.5t10 43.5l92 390q10 42 15.5 80t5.5 65q0 37 -9.5 65t-31 47t-56.5 29t-86 10q-33 0 -68.5 -5.5t-71 -18t-70 -33t-64.5 -50.5l-146 -658v-53.5v-52.5v-52.5v-53.5h-252l303 1363q5 22 -4 30
t-23 16l-124 64v85h399l-121 -546l-13 -57q58 60 109.5 96t98 55t89.5 25t84 6q59 0 109 -15.5t86.5 -47.5t57 -80.5t20.5 -114.5q0 -50 -11.5 -100t-22.5 -97l-79 -340q-5 -21 -8.5 -41t-6 -36.5t-4 -29.5t-1.5 -19q0 -16 4 -31.5t15.5 -28t31.5 -20t52 -7.5q10 0 21.5 1.5
t25 4.5t29 8t34.5 12h40v-100q-43 -24 -85 -38t-81 -21.5t-73 -9.5t-61 -2zM538 1933l-336 -241l-53 30l275 307q18 20 34.5 37t33.5 29t35.5 18.5t40.5 6.5q44 0 69 -25.5t46 -64.5l164 -308l-67 -30z" />
    <glyph glyph-name="hbar" unicode="&#x127;" horiz-adv-x="1359" 
d="M996 -16q-48 0 -80.5 16t-53 39.5t-29.5 51t-9 50.5q0 13 1.5 30t4.5 36t7 40.5t10 43.5l90 369q10 42 15.5 80t5.5 65q0 37 -9.5 65t-31 47t-56.5 29t-86 10q-33 0 -68.5 -5.5t-71 -18t-70 -33t-64.5 -50.5l-144 -637v-58.5v-59.5v-53.5v-40.5h-252l271 1221h-184v130
h213l5 22q5 22 -4 30t-23 16l-126 54v85h399l-45 -207h470v-130h-498l-50 -230l-13 -57q58 60 109.5 96t98 55t89.5 25t84 6q59 0 109 -15.5t86.5 -47.5t57 -80.5t20.5 -114.5q0 -50 -11.5 -100t-22.5 -97l-77 -319q-5 -21 -8.5 -41t-6 -36.5t-4 -29.5t-1.5 -19
q0 -16 4 -31.5t15.5 -28t31.5 -20t52 -7.5q10 0 21.5 1.5t25 4.5t29 8t34.5 12h40v-100q-43 -24 -85 -38t-81 -21.5t-73 -9.5t-61 -2z" />
    <glyph glyph-name="igrave" unicode="&#xec;" horiz-adv-x="761" 
d="M363 -16q-48 0 -81 16t-53.5 39.5t-30 51t-9.5 50.5q0 26 7.5 64t17.5 84l129 588q5 20 -3.5 29.5t-23.5 16.5l-155 70v82l442 53l-154 -703q0 -1 -3 -15t-7.5 -35.5t-9.5 -47t-9.5 -48t-7.5 -39.5t-3 -22q0 -16 4.5 -32t16 -28.5t31.5 -20.5t52 -8q10 0 23.5 2t29 5.5
t33 9t36.5 12.5h39v-100q-43 -24 -87 -38.5t-85 -22.5t-76.5 -10.5t-62.5 -2.5zM697 1270l-63 -45l-307 234q-14 11 -27.5 23t-24 25.5t-17.5 29t-7 33.5q0 21 8 39.5t21.5 32t31.5 21t39 7.5t38.5 -4t33.5 -14t32 -27.5t35 -45.5z" />
    <glyph glyph-name="iacute" unicode="&#xed;" horiz-adv-x="761" 
d="M363 -16q-48 0 -81 16t-53.5 39.5t-30 51t-9.5 50.5q0 26 7.5 64t17.5 84l129 588q5 20 -3.5 29.5t-23.5 16.5l-155 70v82l442 53l-154 -703q0 -1 -3 -15t-7.5 -35.5t-9.5 -47t-9.5 -48t-7.5 -39.5t-3 -22q0 -16 4.5 -32t16 -28.5t31.5 -20.5t52 -8q10 0 23.5 2t29 5.5
t33 9t36.5 12.5h39v-100q-43 -24 -87 -38.5t-85 -22.5t-76.5 -10.5t-62.5 -2.5zM367 1225l-57 45q59 78 103 138t77.5 104.5t59.5 74.5t49 48.5t46 26.5t51 8q21 0 38 -7t29 -19t18 -26.5t6 -29.5q0 -23 -5.5 -40t-16 -31.5t-26.5 -28t-37 -29.5z" />
    <glyph glyph-name="icircumflex" unicode="&#xee;" horiz-adv-x="761" 
d="M363 -16q-48 0 -81 16t-53.5 39.5t-30 51t-9.5 50.5q0 26 7.5 64t17.5 84l129 588q1 4 1.5 7.5t0.5 5.5q0 10 -8 18.5t-21 14.5l-155 70v82l442 53l-161 -733q-5 -27 -11 -54.5t-11 -51.5t-8 -43t-3 -28q0 -16 4.5 -32t16 -28.5t31.5 -20.5t52 -8q10 0 23.5 2t29 5.5
t33 9t36.5 12.5h39v-100q-43 -24 -87 -38.5t-85 -22.5t-76.5 -10.5t-62.5 -2.5zM492 1481l-326 -256l-53 45l265 307q37 43 68.5 67t75.5 24t69 -24t46 -66l154 -308l-67 -45z" />
    <glyph glyph-name="itilde" unicode="&#x129;" horiz-adv-x="761" 
d="M363 -16q-48 0 -81 16t-53.5 39.5t-30 51t-9.5 50.5q0 26 7.5 64t17.5 84l129 588q5 20 -3.5 29.5t-23.5 16.5l-155 70v82l442 53l-154 -703q0 -1 -3 -15t-7.5 -35.5t-9.5 -47t-9.5 -48t-7.5 -39.5t-3 -22q0 -16 4.5 -32t16 -28.5t31.5 -20.5t52 -8q10 0 23.5 2t29 5.5
t33 9t36.5 12.5h39v-100q-43 -24 -87 -38.5t-85 -22.5t-76.5 -10.5t-62.5 -2.5zM219 1276h-98q11 55 36.5 104t61 86t78.5 59t90 22q43 0 80.5 -15.5t72 -34t67 -34t66.5 -15.5q16 0 31.5 7t29 21t24.5 35.5t19 50.5h99q-11 -54 -35 -103t-58.5 -86t-77 -59t-90.5 -22
q-44 0 -80 16t-69.5 35t-65.5 35t-67 16q-15 0 -32 -7t-32.5 -21t-28.5 -36.5t-21 -53.5z" />
    <glyph glyph-name="idieresis" unicode="&#xef;" horiz-adv-x="761" 
d="M363 -16q-48 0 -81 16t-53.5 39.5t-30 51t-9.5 50.5q0 26 7.5 64t17.5 84l129 588q1 4 1.5 7.5t0.5 5.5q0 10 -8 18.5t-21 14.5l-155 70v82l442 53l-161 -733q-5 -27 -11 -54.5t-11 -51.5t-8 -43t-3 -28q0 -16 4.5 -32t16 -28.5t31.5 -20.5t52 -8q10 0 23.5 2t29 5.5
t33 9t36.5 12.5h39v-100q-43 -24 -87 -38.5t-85 -22.5t-76.5 -10.5t-62.5 -2.5zM266 1294q-26 0 -49.5 8t-41 23t-28 37t-10.5 50q0 31 10.5 54t28 38.5t41 23.5t49.5 8q30 0 55 -7t43 -21t27.5 -35.5t9.5 -50.5q0 -30 -10.5 -54t-28.5 -40.5t-42.5 -25t-53.5 -8.5z
M708 1294q-26 0 -49.5 8t-41 23t-28 37t-10.5 50q0 31 10.5 54t28 38.5t41 23.5t49.5 8q30 0 55 -7t43 -21t27.5 -35.5t9.5 -50.5q0 -30 -10.5 -54t-28.5 -40.5t-42.5 -25t-53.5 -8.5z" />
    <glyph glyph-name="imacron" unicode="&#x12b;" horiz-adv-x="761" 
d="M363 -16q-48 0 -81 16t-53.5 39.5t-30 51t-9.5 50.5q0 26 7.5 64t17.5 84l129 588q5 20 -3.5 29.5t-23.5 16.5l-155 70v82l442 53l-154 -703q0 -1 -3 -15t-7.5 -35.5t-9.5 -47t-9.5 -48t-7.5 -39.5t-3 -22q0 -16 4.5 -32t16 -28.5t31.5 -20.5t52 -8q10 0 23.5 2t29 5.5
t33 9t36.5 12.5h39v-100q-43 -24 -87 -38.5t-85 -22.5t-76.5 -10.5t-62.5 -2.5zM829 1354h-715l32 142h715z" />
    <glyph glyph-name="ibreve" unicode="&#x12d;" horiz-adv-x="761" 
d="M363 -16q-48 0 -81 16t-53.5 39.5t-30 51t-9.5 50.5q0 26 7.5 64t17.5 84l129 588q5 20 -3.5 29.5t-23.5 16.5l-155 70v82l442 53l-154 -703q0 -1 -3 -15t-7.5 -35.5t-9.5 -47t-9.5 -48t-7.5 -39.5t-3 -22q0 -16 4.5 -32t16 -28.5t31.5 -20.5t52 -8q10 0 23.5 2t29 5.5
t33 9t36.5 12.5h39v-100q-43 -24 -87 -38.5t-85 -22.5t-76.5 -10.5t-62.5 -2.5zM452 1262q-149 0 -219 96t-66 296l88 14q8 -54 19 -98.5t34 -77t63 -50.5t106 -18q64 0 110 17t81 49t62.5 77t54.5 101l84 -14q-62 -202 -165 -297t-252 -95z" />
    <glyph glyph-name="uni1EC9" unicode="&#x1ec9;" horiz-adv-x="761" 
d="M363 -16q-48 0 -81 16t-53.5 39.5t-30 51t-9.5 50.5q0 26 7.5 64t17.5 84l129 588q5 20 -3.5 29.5t-23.5 16.5l-155 70v82l442 53l-154 -703q0 -1 -3 -15t-7.5 -35.5t-9.5 -47t-9.5 -48t-7.5 -39.5t-3 -22q0 -16 4.5 -32t16 -28.5t31.5 -20.5t52 -8q10 0 23.5 2t29 5.5
t33 9t36.5 12.5h39v-100q-43 -24 -87 -38.5t-85 -22.5t-76.5 -10.5t-62.5 -2.5zM537 1696q80 0 127 -24.5t47 -83.5q0 -35 -14 -63t-35.5 -53.5t-47 -49.5t-49.5 -49t-43 -53t-26 -61l-6 -31h-124l8 39q8 37 25.5 64.5t39.5 50t45.5 42t42.5 39.5t31.5 43t12.5 53
q0 10 -2.5 19t-8.5 16t-16 11t-25 4q-25 0 -49.5 -7.5t-47 -19t-41.5 -24.5t-34 -25h-45l24 112q12 5 33 13.5t48.5 17t60.5 14.5t69 6z" />
    </font>
</defs>
</svg>
